<svg width="28" height="26" xmlns="http://www.w3.org/2000/svg"><g id="Group-23-Copy-2" transform="translate(.75 .75)" fill="none" stroke="#0047A3" stroke-width="1.5"><path d="M0 6.653C1.094 5.216 6.18 0 12.315 0 18.452 0 24.96 6.653 24.96 6.653s-6.057 6.867-12.48 6.867S.015 6.703 0 6.653z" transform="translate(.36 9.88)" id="Path-2"/><path d="M6.76 13.52A6.76 6.76 0 1 0 6.76 0a6.76 6.76 0 0 0 0 13.52z" transform="translate(5.56 9.88)" id="Oval"/><path d="M3.64 7.28a3.64 3.64 0 1 0 0-7.28 3.64 3.64 0 0 0 0 7.28z" transform="translate(8.68 13)" id="Oval-Copy-16"/><path d="M.092.08v4" transform="translate(12.748)" id="Line-8" stroke-linecap="square"/><path d="M0 0l2.08 4.16" transform="translate(6.6 1.04)" id="Line-8-Copy" stroke-linecap="square"/><path d="M0 0l2.08 4.16" transform="matrix(-1 0 0 1 19.08 1.04)" id="Line-8-Copy" stroke-linecap="square"/><path d="M0 0l3.12 3.12" transform="translate(1.4 4.16)" id="Line-8-Copy-2" stroke-linecap="square"/><path d="M0 0l3.12 3.12" transform="matrix(-1 0 0 1 24.28 4.16)" id="Line-8-Copy-2" stroke-linecap="square"/></g></svg>