<svg width="24" height="24" xmlns="http://www.w3.org/2000/svg"><g id="icons/accueil-copy-4"><path d="M17.926 0H7.732c-.62 0-1.18.263-1.572.683a3.517 3.517 0 0 0-.89.583L.652 5.538c-.873.808-.867 2.11.012 2.91L5.26 12.63c.215.196.477.375.767.53a2.15 2.15 0 0 0 1.706.84h10.194a2.153 2.153 0 0 0 2.153-2.153V2.153A2.153 2.153 0 0 0 17.926 0z" transform="translate(2 5)" id="Combined-Shape" fill="#0047A3" fill-rule="evenodd" stroke="none"/><g id="Group-Copy-2" transform="translate(14 9)"><path d="M3 0L0 2.973 3 6" id="Path-2" fill="none" stroke="#FFF" stroke-width="1"/></g><g id="Group-Copy-3" transform="matrix(-1 0 0 1 14 9)"><path d="M3 0L0 2.973 3 6" id="Path-2" fill="none" stroke="#FFF" stroke-width="1"/></g></g></svg>