<svg width="15" height="15" xmlns:xlink="http://www.w3.org/1999/xlink" xmlns="http://www.w3.org/2000/svg"><defs><path d="M13.446 5.324L8.268 0 7.15 1.128l3.986 4.098H0v8.524h1.53V6.83h9.68l-4.055 4.092 1.108 1.139 5.176-5.225a1.083 1.083 0 0 0 .007-1.512" id="path_1"/><clipPath id="mask_1"><use xlink:href="#path_1"/></clipPath></defs><g id="Group-2-Copy"><g id="icons/global/flêche-aller-a"><g id="color/culture-copy" transform="translate(.625 .625)"><path d="M13.446 5.324L8.268 0 7.15 1.128l3.986 4.098H0v8.524h1.53V6.83h9.68l-4.055 4.092 1.108 1.139 5.176-5.225a1.083 1.083 0 0 0 .007-1.512" id="Mask" fill="#000" stroke="none"/><g clip-path="url(#mask_1)"><g id="color/culture-copy" transform="translate(-.625 -.625)"><path d="M0 0h15v15H0V0z" id="Rectangle" fill="#0047A3" stroke="none"/></g></g></g></g></g></svg>