<?xml version="1.0" encoding="utf-8"?>
<!-- Generator: Adobe Illustrator 23.1.0, SVG Export Plug-In . SVG Version: 6.00 Build 0)  -->
<svg version="1.1" id="Calque_1" xmlns="http://www.w3.org/2000/svg" xmlns:xlink="http://www.w3.org/1999/xlink" x="0px" y="0px"
	 viewBox="0 0 35 36" style="enable-background:new 0 0 35 36;" xml:space="preserve">
<style type="text/css">
	.st0{fill:#FFFFFF;}
</style>
<path class="st0" d="M16.8,29.9c0,1.8,0,3.6,0,5.4c0,0.3,0,0.4-0.4,0.4c-2.1,0-4.2,0-6.3,0c-0.3,0-0.4-0.1-0.4-0.4
	c0-1.6,0-3.1,0-4.7c0-0.1,0-0.2,0-0.3c-0.1-0.2-0.2-0.4-0.5-0.4c-0.3,0-0.4,0.2-0.4,0.4c0,0.3,0,0.6,0,0.8c0,1.4,0,2.8,0,4.1
	c0,0.2,0,0.3-0.3,0.3c-1.4,0-2.8,0-4.2,0c-0.2,0-0.3,0-0.3-0.3c0-2.4,0-4.8,0-7.2c0.1-3.2,2.7-6.1,5.9-6.5c0.7-0.1,1.4,0,2.2-0.1
	c0.2,0,0.3,0,0.2,0.2c-0.1,0.5,0.2,0.8,0.7,1c1,0.4,1.9,0.9,2.9,1.1c0.3,0.1,0.7,0,0.8,0.2c0.1,0.2,0,0.6,0,0.9
	C16.8,26.7,16.8,28.3,16.8,29.9z"/>
<path class="st0" d="M17.7,29.9c0-1.8,0-3.6,0-5.4c0-0.3,0.1-0.3,0.3-0.4c1.4-0.2,2.5-0.9,3.7-1.4c0.3-0.1,0.3-0.4,0.3-0.7
	c0-0.3,0.1-0.4,0.4-0.4c1.2,0,2.4,0,3.6,0.5c2.6,1,4.4,3.5,4.4,6.3c0,2.3,0,4.7,0,7c0,0.2-0.1,0.3-0.3,0.3c-1.4,0-2.8,0-4.2,0
	c-0.3,0-0.3-0.1-0.3-0.3c0-1.6,0-3.1,0-4.7c0-0.1,0-0.3,0-0.4c-0.1-0.2-0.2-0.3-0.5-0.3c-0.2,0-0.4,0.2-0.4,0.4c0,0.1,0,0.2,0,0.3
	c0,1.6,0,3.1,0,4.7c0,0.3-0.1,0.4-0.3,0.3c-2.1,0-4.2,0-6.3,0c-0.3,0-0.3-0.1-0.3-0.3C17.7,33.5,17.7,31.7,17.7,29.9z"/>
<path class="st0" d="M23.5,9.6c0,0.1,0,0.2-0.2,0.3c-0.5,0.2-0.9,0.5-1.3,0.9c-0.1,0.1-0.2,0.1-0.4,0.1c-2.9-1.1-5.9-1.1-8.8-0.1
	c-0.3,0.1-0.6,0.1-0.8-0.1c-0.2-0.2-0.4-0.3-0.7-0.5C11,10,10.9,9.8,11,9.5c0.2-1.4,0.4-2.8,0.6-4.2C11.8,4,12.8,3.1,14,2.9
	c0.2,0,0.3,0,0.4,0.1c1.8,0.9,3.5,1,5.3,0.1c0.4-0.2,0.7-0.2,1.1-0.1c1.1,0.4,1.8,1.1,2,2.2C23.1,6.7,23.3,8.1,23.5,9.6z"/>
<path class="st0" d="M17.2,0c1.1,0,2.2,0,3.2,0c2.4,0,4.2,1.7,4.2,4.1c0,1.7,0,3.3,0,5c0,0.1,0.1,0.3-0.1,0.3
	c-0.2,0-0.1-0.2-0.1-0.2c-0.2-1.3-0.4-2.7-0.6-4c-0.3-1.7-1.7-3-3.4-3.2c-0.2,0-0.4,0-0.7,0.1C18,3,16.3,3,14.7,2
	C14.5,2,14.4,2,14.3,2c-1.8,0-3.3,1.4-3.6,3.1c-0.2,1.4-0.4,2.8-0.6,4.2c0,0.1,0.1,0.3-0.2,0.3c-0.2,0-0.2-0.1-0.2-0.3
	c0-1.6,0-3.3,0-4.9c0-2.5,1.8-4.2,4.3-4.3C15,0,16.1,0,17.2,0z"/>
<path class="st0" d="M13.3,19.6c2.6,1.4,5.2,1.4,7.8,0c0,0.8,0,1.5,0,2.2c0,0.1,0,0.2-0.1,0.2c-1.1,0.5-2.2,1.1-3.5,1.2
	c-0.9,0-1.7-0.1-2.5-0.5c-0.5-0.2-0.9-0.4-1.4-0.6c-0.2-0.1-0.3-0.2-0.3-0.4C13.3,21,13.3,20.3,13.3,19.6z"/>
<path class="st0" d="M12.3,17.4c1.9,0.6,3.9,0.8,5.9,0.7c1.1-0.1,2.2-0.3,3.3-0.6c0.5-0.1,0.8-0.4,1-0.9c0.3-0.6,0.7-1.2,1.1-1.7
	c0.1,0.1,0,0.1,0,0.2c-1.6,4.8-7.9,6.1-11.3,2.4C12.3,17.6,12.3,17.5,12.3,17.4C12.3,17.5,12.3,17.5,12.3,17.4z"/>
<path class="st0" d="M22.9,14.3c-0.1-0.9-0.1-1.8-0.4-2.6c0-0.1,0-0.2,0.1-0.3c0.3-0.2,0.6-0.4,0.9-0.6c0.2-0.1,0.2-0.1,0.2,0.1
	c0.1,0.7,0.2,1.3,0.2,2c0,0.2,0,0.3-0.2,0.5C23.5,13.7,23.3,14,22.9,14.3z"/>
<path class="st0" d="M10.8,10.9c0.3,0.2,0.6,0.4,0.9,0.6c0.1,0.1,0.1,0.1,0.1,0.2c-0.3,0.9-0.2,1.9-0.3,2.8c-0.7-0.4-1.1-1.1-0.9-2
	C10.6,12,10.7,11.5,10.8,10.9z"/>
<path class="st0" d="M24.9,12.7c-0.1-0.7-0.2-1.4-0.3-2.1c0-0.1,0-0.2,0.2-0.2c0.3,0,0.6-0.1,0.7,0.2c0.1,0.2,0.1,0.5,0.1,0.7
	C25.4,11.8,25.3,12.2,24.9,12.7z"/>
<path class="st0" d="M9.6,12.7c-0.5-0.6-0.7-1.3-0.6-2c0-0.4,0.3-0.4,0.6-0.3c0.3,0,0.3,0.2,0.3,0.4C9.7,11.4,9.7,12,9.6,12.7z"/>
<path class="st0" d="M12.3,17.5c0,0-0.1,0-0.1-0.1C12.2,17.4,12.3,17.4,12.3,17.5C12.3,17.5,12.3,17.5,12.3,17.5z"/>
<path class="st0" d="M21.7,12.3c-0.1-0.3-0.3-0.5-0.6-0.6c-2.7-1-5.4-0.9-8.1,0c-0.3,0.1-0.5,0.4-0.6,0.8c-0.1,1.3-0.1,2.5,0,3.8
	c0,0.3,0.1,0.4,0.4,0.5c1.4,0.4,2.8,0.6,4.2,0.6c1.3,0,2.7-0.2,4-0.5c0.3-0.1,0.5-0.2,0.6-0.5C22.1,14.8,22.1,13.6,21.7,12.3z
	 M20.6,15.9c-1.1,0.3-2.3,0.4-3.5,0.4c-1.2,0-2.3-0.1-3.5-0.4c-0.4-0.1-0.5-0.3-0.5-0.6c0.1-0.3,0.3-0.4,0.7-0.3
	c2.2,0.5,4.3,0.5,6.5,0c0.4-0.1,0.7,0,0.7,0.3C21.1,15.7,20.9,15.9,20.6,15.9z M21.1,13.2c-0.1,0.3-0.3,0.4-0.7,0.3
	c-2.2-0.4-4.4-0.4-6.6,0c-0.3,0.1-0.5,0-0.6-0.3c-0.1-0.3,0.1-0.5,0.5-0.6c1.2-0.2,2.3-0.3,3.6-0.3c1.1,0,2.2,0.1,3.3,0.3
	C21,12.7,21.2,13,21.1,13.2z"/>
</svg>
