<?xml version="1.0" encoding="iso-8859-1"?>
<!-- Generator: Adobe Illustrator 19.0.0, SVG Export Plug-In . SVG Version: 6.00 Build 0)  -->
<svg version="1.1" id="Capa_1" xmlns="http://www.w3.org/2000/svg" xmlns:xlink="http://www.w3.org/1999/xlink" x="0px" y="0px"
	 viewBox="0 0 58.183 58.183" style="enable-background:new 0 0 58.183 58.183;" xml:space="preserve">
<g>
	<g>
		<path d="M46.069,8.835l-2.916,2.862c0,0-0.976-0.22-1.654-0.55L36.93,8.924c-0.555-0.27-1.239-0.4-1.936-0.4
			c-1.003,0-2.036,0.27-2.76,0.782l-7.067,4.956c-1.228,0.869-1.5,2.568-0.604,3.777l0.419,0.566
			c0.575,0.774,1.515,1.197,2.455,1.197c0.529,0,1.057-0.133,1.521-0.413l3.353-2.14c0.593-0.357,1.346-0.533,2.107-0.533
			c0.893,0,1.796,0.243,2.457,0.718l4.867,4.459c1.222,0.879,3.122,2.438,4.226,3.461l4.42,4.108l7.795-9.032L46.069,8.835z"/>
	</g>
</g>
<g>
	<g>
		<path d="M49.027,32.775L41.63,25.9c-0.643-0.522-2.076-1.619-2.076-1.619l-4.636-4.246c-0.098-0.037-0.278-0.08-0.5-0.08
			c-0.231,0-0.384,0.047-0.423,0.064l-3.362,2.143c-0.954,0.576-2.059,0.879-3.194,0.879c-2.001,0-3.892-0.937-5.058-2.509
			l-0.418-0.563c-0.958-1.292-1.346-2.875-1.092-4.459c0.253-1.583,1.116-2.967,2.438-3.901l0.761-0.533
			c-1.098-0.134-2.316-0.017-3.207,0.364c0,0-1.493,0.656-1.972,0.859c-1.11,0.471-2.666,0.464-2.666,0.464l-3.652-3.402L0,21.85
			l4.728,4.755l1.074-1.125c1.12-1.175,2.697-1.85,4.326-1.85c1.545,0,3.01,0.586,4.125,1.649l0.509,0.485
			c0.655,0.625,1.138,1.361,1.447,2.155c0.977,0.251,1.877,0.747,2.625,1.46l0.506,0.484c1.154,1.098,1.812,2.582,1.851,4.18
			c0.35,0.216,0.682,0.471,0.985,0.761l0.512,0.488c0.717,0.684,1.227,1.504,1.527,2.383c0.906,0.264,1.741,0.741,2.437,1.404
			l0.518,0.492c2.082,1.986,2.413,5.127,0.953,7.48l0.388,0.362c1.102,1.025,2.842,0.962,3.867-0.14l0.479-0.517
			c1.003-1.08,0.953-2.764-0.087-3.793l3.547,3.29c1.104,1.023,2.844,0.959,3.869-0.145l0.479-0.515
			c1.018-1.096,0.958-2.821-0.126-3.848l0.912,0.848c1.103,1.024,2.842,0.959,3.866-0.143l0.48-0.516
			c1.024-1.104,0.959-2.844-0.143-3.869l-0.77-0.714c1.107,0.966,2.799,0.892,3.804-0.191l0.482-0.517
			C50.194,35.538,50.131,33.798,49.027,32.775z"/>
	</g>
</g>
<g>
	<g>
		<path d="M24.933,41.915l-0.512-0.487c-0.528-0.503-1.208-0.753-1.888-0.753c-0.722,0-1.444,0.283-1.98,0.845l-0.009-0.015
			c1.037-1.089,0.996-2.83-0.093-3.868L19.94,37.15c-0.526-0.5-1.199-0.748-1.875-0.748c-0.683,0-1.364,0.253-1.892,0.752
			l1.025-1.074c1.039-1.089,0.999-2.831-0.092-3.869l-0.51-0.487c-0.526-0.502-1.204-0.75-1.881-0.75
			c-0.703,0-1.404,0.267-1.936,0.796c0.855-1.092,0.77-2.682-0.254-3.659l-0.509-0.486c-0.528-0.503-1.21-0.753-1.889-0.753
			c-0.724-0.001-1.445,0.283-1.981,0.845l-5.139,5.388c-1.038,1.088-0.997,2.83,0.095,3.867l0.508,0.486
			c0.525,0.5,1.199,0.745,1.872,0.745c0.621,0,1.241-0.209,1.745-0.621l-1.354,1.418c-1.037,1.09-0.996,2.83,0.092,3.869
			l0.513,0.487c0.528,0.503,1.209,0.753,1.887,0.753c0.724,0,1.445-0.283,1.981-0.845l1.057-1.109
			c-0.941,1.093-0.878,2.754,0.177,3.759l0.513,0.487c0.527,0.502,1.208,0.752,1.888,0.752c0.723,0,1.445-0.283,1.98-0.845
			l1.699-1.758c-1.039,1.09-0.999,2.83,0.092,3.869l0.512,0.487c0.526,0.503,1.206,0.753,1.886,0.753
			c0.723,0,1.445-0.283,1.98-0.845l2.895-3.034C26.064,44.694,26.021,42.954,24.933,41.915z"/>
	</g>
</g>
<g>
</g>
<g>
</g>
<g>
</g>
<g>
</g>
<g>
</g>
<g>
</g>
<g>
</g>
<g>
</g>
<g>
</g>
<g>
</g>
<g>
</g>
<g>
</g>
<g>
</g>
<g>
</g>
<g>
</g>
</svg>
