<svg id="Calque_1" data-name="Calque 1" xmlns="http://www.w3.org/2000/svg" viewBox="0 0 30 30"><title>ILLUSTRATOR_ICONS_MAIRIE</title><path d="M19.46,21.84a34.61,34.61,0,0,1-2.8,3.21,2.35,2.35,0,0,1-1.67.7h0A2.22,2.22,0,0,1,13.32,25a36.34,36.34,0,0,1-2.7-3.19C6.73,22.44,4,23.85,4,25.5c0,2.21,4.92,4,11,4s11-1.79,11-4C26,23.86,23.31,22.46,19.46,21.84Z"/><path d="M11.76,21.67c.73.93,1.48,1.82,2.27,2.65a1.34,1.34,0,0,0,1,.43v0a1.33,1.33,0,0,0,1-.42,35.24,35.24,0,0,0,2.35-2.65A34.22,34.22,0,0,0,20.88,18C22.46,15.43,24,12.65,24,9.67A9.13,9.13,0,0,0,15,.5,9.1,9.1,0,0,0,6,9.68c0,2.57,1.2,4.87,2.54,7.19A39.77,39.77,0,0,0,11.76,21.67Zm0-10.6v-6a1,1,0,0,1,1-1h2.69a4,4,0,0,1,0,8h-1.7V15.4a1,1,0,1,1-2,0Z"/><path d="M17.37,8.06a2,2,0,0,0-2-2h-1.7v4h1.7A2,2,0,0,0,17.37,8.06Z"/></svg>