<?xml version="1.0" encoding="utf-8"?>
<!-- Generator: Adobe Illustrator 24.2.3, SVG Export Plug-In . SVG Version: 6.00 Build 0)  -->
<svg version="1.1" id="Calque_1" xmlns="http://www.w3.org/2000/svg" xmlns:xlink="http://www.w3.org/1999/xlink" x="0px" y="0px"
	 viewBox="0 0 24 24" style="enable-background:new 0 0 24 24;" xml:space="preserve">
<style type="text/css">
	.st0{fill:#FFFFFF;}
</style>
<path class="st0" d="M22.8,12.8v-0.3l-0.1-0.1c-0.2-0.5-0.5-0.7-0.7-0.9c-0.1-0.1-0.3-0.2-0.5-0.3c-0.4-0.5-1-1.4-1.2-1.9V9
	c0,0,0,0,0.1-0.1c0.1-0.1,0.4-0.4,0.4-0.7c0.1-1-0.6-3.1-0.7-3.4L19.9,4l0-0.1c0.1-0.4,0.2-0.7,0.2-0.9c0-0.4-0.2-0.6-0.5-0.9
	c-0.7-0.6-4.2-1.4-4.2-1.4c-1.6-0.4-3.1-0.4-3.9-0.4c-2.2,0-4,0.7-5.1,1.3C5.4,2.2,4.8,2.9,3.9,4.4C3.4,5.3,2.7,6.6,3,9.6
	c0.4,4.9,2,6.9,2.5,7.7c0,0.1,0.1,0.1,0.1,0.2c0,0.2,0,0.7-0.3,2.7c-0.2,1.1-0.4,2-0.5,2.5c-0.1,0.2-0.1,0.4,0,0.6
	c0.1,0.3,0.4,0.4,0.7,0.4h9c0.5,0,0.8-0.4,0.8-0.6l0.3-1.5c0-0.1,0.1-0.3,0.1-0.4c0,0,0-0.1,0-0.1l0-0.1c0.1-0.3,0.3-0.3,0.7-0.4
	c0.1,0,0.3-0.1,0.5-0.1c0.1,0,0.1,0,0.2,0c0.7,0.3,1.4,0.5,2,0.5h0.2l0.2,0c0.3-0.1,0.7-0.2,1.1-0.6c0.2-0.2,0.4-0.6,0.7-0.9
	c0.4-0.7,0.6-1.4,0.9-2.3C22.7,15.4,22.9,13.5,22.8,12.8z M19.1,19.8c-0.5,0-1.1-0.2-1.7-0.4l-0.1-0.1h-0.1c-0.2,0-0.4,0-0.7,0.1
	c-0.1,0-0.2,0.1-0.3,0.1c-0.5,0.1-1,0.3-1.3,0.9c-0.1,0.2-0.1,0.3-0.2,0.5c0,0.1,0,0.2-0.1,0.4l-0.3,1.4H5.9
	c0.1-0.5,0.3-1.3,0.4-2.3c0.5-2.9,0.4-3.2,0.2-3.4c0-0.1-0.1-0.1-0.2-0.3C5.8,16.1,4.4,14.2,4,9.6l0,0C3.7,6.9,4.3,5.8,4.8,4.8
	c0.8-1.4,1.4-1.9,2.2-2.4c0.9-0.5,2.6-1.1,4.5-1.1c0.8,0,2.2,0.1,3.7,0.4C16.5,2,18.7,2.6,19,2.9C19.1,2.9,19.2,3,19.2,3
	c0,0.1-0.1,0.4-0.2,0.6L18.9,4l0.4,1.1c0.2,0.6,0.7,2.3,0.7,3c0,0-0.1,0.1-0.1,0.1c-0.2,0.1-0.4,0.4-0.4,0.9v0.3l0,0.2
	c0.2,0.6,0.8,1.5,1.5,2.4L21,12c-0.7,0-1.6,0.6-2.9,0.8c-0.4,0.1-1.1,0.3-1.6,0.4c-1-0.4-1.9-1.2-2.6-2c-0.4-0.5-0.7-1.1-1.2-1.6
	C12,9,10.9,8.6,10,8.9c-0.4,0.2-0.8,0.6-1.1,1c-0.2,0.4,0.4,0.6,0.4,0.3c0.3-0.4,0.6-0.8,1.1-0.8c0.5-0.1,1,0,1.4,0.3
	c0.5,0.3,0.9,0.9,1.2,1.4c0.7,1,1.4,2,2.5,2.6c0,1.3,0.5,2-0.3,3.4c-0.6-0.3-1.2-0.6-1.8-0.9c-0.6-0.4-1.2-0.8-1.8-1.2
	c-0.7-0.5-1.4-1-1.9-1.6c-0.1-0.3-0.6-0.1-0.5,0.2c0.1,0.1,0.2,0.3,0.3,0.4c1,1.2,2.2,2.1,3.5,2.9c0.8,0.4,1.6,0.8,2.4,1.1
	c1.1,0.8,2.4,1.7,3.8,1.8c0,0,0,0,0,0H19.1z"/>
</svg>
