<svg id="Calque_1" data-name="Calque 1" xmlns="http://www.w3.org/2000/svg" viewBox="0 0 30 30"><title>ILLUSTRATOR_ICONS_MAIRIE</title><path d="M24.58,27s-.19-6.5-2.61-10.41a34,34,0,0,0,4.48-7.81s-5.6,2.42-7.28,3l-5.6-5.39-.94,6.13L8,12.43,9.27,9.75s1.5-.37,3.18-.93l-2.8-.93V4.18L7.59,5.85,5.17,3.62,6.1,7S2.93,8.45,2,8.82a15.31,15.31,0,0,0,4.67.93L7,12.4l-1.82,0,2,1.21.08.64.21-.46,4.08,2.51s-1.86,6.51-4.29,9.67c0,0,2.05.37,10.64-5.21C17.86,20.72,19.54,21.09,24.58,27ZM18.23,13.1a.93.93,0,1,1-.93.93A.94.94,0,0,1,18.23,13.1Zm-3.73.56a.93.93,0,0,1,0,1.86.93.93,0,0,1,0-1.86Zm5.37,3.19a4.53,4.53,0,0,1-2.87,2,2.6,2.6,0,0,1-.56.06,4.93,4.93,0,0,1-2.71-1.05.38.38,0,0,1-.11-.53.39.39,0,0,1,.54-.11,3.61,3.61,0,0,0,2.69.87,3.75,3.75,0,0,0,2.37-1.69.39.39,0,0,1,.54-.11A.4.4,0,0,1,19.87,16.85Z"/><path d="M24.58,27.79c-2.37,0-4.29.37-4.29.83s1.92.84,4.29.84,4.29-.38,4.29-.84S27,27.79,24.58,27.79Z"/><ellipse cx="20.66" cy="7.71" rx="1.31" ry="1.3"/><ellipse cx="16.83" cy="2.97" rx="1.59" ry="1.58"/><path d="M5.45,18.49A1.58,1.58,0,1,0,7,20.07,1.59,1.59,0,0,0,5.45,18.49Z"/><polygon points="2.74 3.25 4.05 4.18 3.67 2.88 4.42 1.76 3.3 1.76 3.11 0.46 2.55 1.57 0.87 1.39 1.99 2.69 1.43 4.18 2.74 3.25"/></svg>