<?xml version="1.0" encoding="utf-8"?>
<!-- Generator: Adobe Illustrator 24.3.0, SVG Export Plug-In . SVG Version: 6.00 Build 0)  -->
<svg version="1.1" id="Calque_1" xmlns="http://www.w3.org/2000/svg" xmlns:xlink="http://www.w3.org/1999/xlink" x="0px" y="0px"
	 viewBox="0 0 30 30" style="enable-background:new 0 0 30 30;" xml:space="preserve">
<style type="text/css">
	.st0{fill:#FFFFFF;}
</style>
<path class="st0" d="M5.8,19.2c0.9-0.8,2-1.3,3.2-1.3c1.2,0,2.4,0.5,3.2,1.4c0.7,0.8,1.7,1.3,2.8,1.2c1.1,0,2.1-0.4,2.7-1.2
	c0.8-0.9,2-1.5,3.3-1.4c1.2,0,2.3,0.4,3.1,1.3c1.1,1,2.5,1.5,3.9,1.4v-2.8c-4.4,0-4-2.7-7-2.7c-0.7,0-1.4,0.2-2,0.5V2.9
	c0-0.8,0.6-1.4,1.4-1.4c0.8,0,1.4,0.6,1.4,1.4h1c0-1.3-1.1-2.4-2.4-2.4c-1.3,0-2.4,1.1-2.4,2.4v2.2h-6.6V2.9c0-0.8,0.6-1.4,1.4-1.4
	c0.8,0,1.4,0.6,1.4,1.4c0,0,0,0,0,0h1c-0.1-1.3-1.2-2.3-2.5-2.2c-1.2,0.1-2.1,1-2.2,2.2v12.6c-0.5-0.2-1-0.3-1.6-0.3
	c-3,0-3,2.7-7,2.7v11.7l0,0v-0.4c1.4,0,2.8-0.4,3.8-1.4c0.9-0.8,2-1.3,3.2-1.3c1.2,0,2.4,0.5,3.2,1.4c0.7,0.8,1.7,1.3,2.8,1.2
	c1,0,2.1-0.4,2.7-1.2c0.8-0.9,2-1.5,3.3-1.4c1.2,0,2.3,0.4,3.1,1.3c1.1,1,2.5,1.5,3.9,1.4v-3.4c-1.7,0.1-3.3-0.5-4.5-1.6
	c-0.7-0.6-1.5-1-2.5-1c-1,0-1.9,0.4-2.6,1.2c-0.9,1-2.1,1.5-3.4,1.4c-1.3,0-2.6-0.5-3.4-1.5c-0.6-0.7-1.6-1.2-2.6-1.2
	c-1,0-1.9,0.4-2.6,1.1c-1.2,1.1-2.8,1.6-4.4,1.6v-1c1.4,0,2.8-0.4,3.8-1.4c0.9-0.8,2-1.3,3.2-1.3c1.2,0,2.4,0.5,3.2,1.4
	c0.7,0.8,1.7,1.3,2.8,1.2c1,0,2.1-0.4,2.7-1.2c0.8-0.9,2-1.5,3.3-1.4c1.2,0,2.3,0.4,3.1,1.3c1.1,1,2.5,1.5,3.9,1.4v-3.2
	c-1.7,0.1-3.3-0.5-4.5-1.6c-0.6-0.7-1.5-1.1-2.5-1.1c-1,0-1.9,0.4-2.6,1.2c-0.9,1-2.1,1.5-3.4,1.5c-1.3,0-2.6-0.5-3.4-1.5
	c-0.6-0.8-1.6-1.2-2.6-1.2c-1,0-1.9,0.4-2.6,1.1c-1.2,1.1-2.8,1.6-4.4,1.6v-1C3.4,20.6,4.8,20.1,5.8,19.2z M11.5,6H18v2.4h-6.5V6z
	 M11.5,9.3H18v2.3h-6.5V9.3z M11.5,12.6H18v2.3h-6.5V12.6z M11.5,15.8H18v0.6c-0.8,0.9-1.9,1.3-3,1.3c-1.9,0-2.6-1-3.5-1.7
	L11.5,15.8z"/>
</svg>
