<svg id="Calque_1" data-name="Calque 1" xmlns="http://www.w3.org/2000/svg" viewBox="0 0 30 30"><title>ILLUSTRATOR_ICONS_MAIRIE</title><path d="M14.52,4.16l-2.8,3.25-.28.4.37.3A1.44,1.44,0,0,1,12,10.17a1.41,1.41,0,0,1-.46.35l-7-2.29-1.38,4-.11.47.47.15a1.53,1.53,0,0,1,.85.73,1.41,1.41,0,0,1,.08,1.12,1.47,1.47,0,0,1-1.9.9l-.47-.17L.57,20l18.71,6.16.47-1.39,1.69,1.41,3.14-3.66-.42-.3-.08-.06a1.39,1.39,0,0,1-.52-1,1.43,1.43,0,0,1,.34-1.06,1.48,1.48,0,0,1,1-.51,1.51,1.51,0,0,1,1.08.34l.07.07.37.36,3.14-3.65Zm4.14,20.77L1.81,19.38l.92-2.71a2.48,2.48,0,0,0,1.44-.23A2.42,2.42,0,0,0,5.4,15a2.36,2.36,0,0,0-.13-1.84,2.41,2.41,0,0,0-1-1l.92-2.71,3.74,1.22L6.39,13.62l6.3,5.25L7.11,17l-.31.91,7.89,2.6L19,24.08Zm.7-5.59-.71-.6-2.5-2.08-.71-.59L12.94,14l.63-.73,5.77,4.81.65.54Zm2.34-2.66-.18-.15-3.39-2.82-2-1.67-.84-.71.63-.73,2.71,2.26,2,1.67,1.22,1,.48.4Z"/></svg>