<svg id="Calque_1" data-name="Calque 1" xmlns="http://www.w3.org/2000/svg" viewBox="0 0 24 24"><title>icons_</title><path d="M22.16,11.59a2.71,2.71,0,0,0-.52-.33l-.73-5.87a1.83,1.83,0,0,0-1.86-1.8H15.87v-2A1.1,1.1,0,0,0,14.76.5H9.24A1.1,1.1,0,0,0,8.13,1.58v2H5A1.82,1.82,0,0,0,3.09,5.32l-.73,5.94a2.14,2.14,0,0,0-.51.33A2.43,2.43,0,0,0,1,13.3v5.8c0,.9.62,1.36,1.86,1.36h.86v1.77A1.32,1.32,0,0,0,5.08,23.5H7.17a1.32,1.32,0,0,0,1.36-1.27V20.46h6.94v1.77a1.32,1.32,0,0,0,1.36,1.27h2.09a1.32,1.32,0,0,0,1.36-1.27V20.46h.86C22.38,20.46,23,20,23,19.1V13.3A2.46,2.46,0,0,0,22.16,11.59Zm-16,6.58a2.4,2.4,0,1,1,0-4.8,2.4,2.4,0,1,1,0,4.8Zm11.6,0a2.4,2.4,0,1,1,2.48-2.4A2.44,2.44,0,0,1,17.8,18.17Zm1.47-7.51-.2,0A40.66,40.66,0,0,0,12,10H12a40.66,40.66,0,0,0-7,.63l-.2,0-1.13.22.67-5.49A.67.67,0,0,1,5,4.74h14.1a.68.68,0,0,1,.68.72l.66,5.42C20,10.8,19.65,10.73,19.27,10.66Z"/></svg>