<svg id="Calque_1" data-name="Calque 1" xmlns="http://www.w3.org/2000/svg" viewBox="0 0 30 30"><title>ILLUSTRATOR_ICONS_MAIRIE</title><path d="M13.34,17.41l4.07,4.06A5.9,5.9,0,0,0,19,18.05a6.9,6.9,0,0,1-4.41-1.88Z"/><path d="M11.46,19.28a6.9,6.9,0,0,1,1.87,4.09,6,6,0,0,0,3.6-1.44l-4.06-4.05Z"/><path d="M19,17.39a5.94,5.94,0,0,0-1.61-4.05L15,15.7A6.29,6.29,0,0,0,19,17.39Z"/><path d="M16.93,12.88a5.92,5.92,0,0,0-3.88-1.45,6.24,6.24,0,0,0,1.53,3.79Z"/><path d="M7.07,17.78A5.85,5.85,0,0,0,8.5,21.29l2-2A6.23,6.23,0,0,0,7.07,17.78Z"/><path d="M9,21.77a6,6,0,0,0,3.7,1.59A6.25,6.25,0,0,0,11,19.75Z"/><path d="M5.41,2.21a13.63,13.63,0,0,1,1.69,0H24C24,1.49,24,1,23.92.47c-6.41,0-12.7,0-19,0a3.06,3.06,0,0,0-3,3.36q0,11,0,21.88c0,2.53,1.22,3.7,3.76,3.71,5.68,0,11.35,0,17,0A11.38,11.38,0,0,0,24,29.31V5.82H6.9a12.69,12.69,0,0,1-1.51,0A1.9,1.9,0,0,1,3.81,4.06,1.86,1.86,0,0,1,5.41,2.21Zm1,14.86h0a6.65,6.65,0,1,1,7,7v0H12.7v0a6.63,6.63,0,0,1-6.3-6.29h0Z"/><path d="M14.11,15.69a6.93,6.93,0,0,1-1.73-4.22A5.93,5.93,0,0,0,9,13l3.91,3.89Z"/><path d="M12.39,17.41,8.5,13.52a5.94,5.94,0,0,0-1.44,3.59A6.89,6.89,0,0,1,11,18.81Z"/><path d="M25.68,18.89v4.39c1.72.16,2-.06,2.16-1.49a9.84,9.84,0,0,0,0-1.33C27.78,18.91,27.39,18.63,25.68,18.89Z"/><path d="M25.66,24.91V29.3c1.77.11,2.06-.11,2.17-1.58a9.4,9.4,0,0,0,0-1.5C27.68,24.8,27.31,24.57,25.66,24.91Z"/><path d="M27.85,15.6a7.49,7.49,0,0,0,0-1.16c-.11-1.49-.36-1.7-2.16-1.71a23.53,23.53,0,0,0,0,4.52C27.44,17.4,27.73,17.17,27.85,15.6Z"/><path d="M27.76,9.71c0-.44,0-.89,0-1.34-.06-1.52-.29-1.72-2.1-1.62v4.41C27.43,11.38,27.68,11.2,27.76,9.71Z"/></svg>