<?xml version="1.0" encoding="utf-8"?>
<!-- Generator: Adobe Illustrator 16.0.0, SVG Export Plug-In . SVG Version: 6.00 Build 0)  -->
<!DOCTYPE svg PUBLIC "-//W3C//DTD SVG 1.1//EN" "http://www.w3.org/Graphics/SVG/1.1/DTD/svg11.dtd">
<svg version="1.1" id="Outline" xmlns="http://www.w3.org/2000/svg" xmlns:xlink="http://www.w3.org/1999/xlink" x="0px" y="0px"
	 width="512px" height="512px" viewBox="0 0 512 512" enable-background="new 0 0 512 512" xml:space="preserve">
<path fill="#FFFFFF" d="M479.977,263.386C479.656,259.218,476.18,256,472,256H357.209l-5.22-104.4c-0.213-4.257-3.727-7.6-7.989-7.6
	h-56v-40c0.014-39.75-32.199-71.986-71.95-72c-8.193-0.003-16.327,1.393-24.05,4.128c-37.471-13.269-78.604,6.351-91.872,43.822
	C97.393,87.673,95.997,95.807,96,104v40H40c-4.263,0-7.777,3.343-7.99,7.6l-16,320c-0.221,4.413,3.177,8.17,7.59,8.391
	c0.134,0.007,0.267,0.01,0.4,0.01h464c4.418,0,8-3.581,8-7.999c0-0.205-0.008-0.41-0.023-0.615L479.977,263.386z M456,438.422
	L473.052,464h-34.101L456,438.422z M477.676,442.091l-13.914-20.87L448.84,272h15.752L477.676,442.091z M432.76,272l15,149.946
	l-17.561,26.334L416.639,272H432.76z M341.19,256h-15.057l-5.648-96h15.9L341.19,256z M304.457,160l5.647,96h-16.899l-4.801-96
	H304.457z M216,48c30.913,0.035,55.965,25.087,56,56v40h-32v-40c0-21.725-9.824-42.284-26.728-55.931
	C214.177,48.026,215.085,48,216,48z M192,53.414c19.527,9.281,31.979,28.964,32,50.586v40h-64v-40
	C160.021,82.378,172.472,62.695,192,53.414z M112,104c0.035-30.913,25.086-55.965,56-56c0.915,0,1.822,0.026,2.727,0.069
	C153.823,61.716,143.999,82.275,144,104v40h-32V104z M208.592,464H32.41L47.61,160H96v51.719l-20.438,13.625
	C73.336,226.828,72,229.325,72,232v64c0,4.418,3.581,8,8,8h48c4.418,0,8-3.582,8-8v-64c0-2.675-1.337-5.172-3.563-6.656L112,211.719
	V160h112v24c0,4.418,3.581,8,8,8c4.418,0,8-3.582,8-8v-24h32.39l4.8,96H232c-4.181,0-7.656,3.218-7.978,7.386L208.592,464z
	 M104,225.615l16,10.666V288H88v-51.719L104,225.615z M239.408,272h161.184l14.769,192H224.639L239.408,272z"/>
<path fill="#FFFFFF" d="M360,304c-4.419,0-8,3.582-8,8v64c-0.016,13.248-10.752,23.985-24,24h-16c-13.249-0.015-23.985-10.752-24-24
	v-64c0-4.418-3.582-8-8-8c-4.419,0-8,3.582-8,8v64c0.024,22.081,17.919,39.975,40,40h16c22.081-0.025,39.975-17.919,40-40v-64
	C368,307.582,364.418,304,360,304z"/>
</svg>
