<svg id="Calque_1" data-name="Calque 1" xmlns="http://www.w3.org/2000/svg" viewBox="0 0 30 30"><title>ILLUSTRATOR_ICONS_MAIRIE</title><path d="M15.7,17.24H.54v2.19a.17.17,0,0,0,.16.17H17.1l-.81-.81A2,2,0,0,1,15.7,17.24Z"/><path d="M16.29,15.93a2.05,2.05,0,0,1,2.87,0l1.95,1.95V5.32A.16.16,0,0,0,21,5.16H.7a.16.16,0,0,0-.16.16V16.17H16.09A2.12,2.12,0,0,1,16.29,15.93ZM13.38,7.56a.54.54,0,0,1,.54.53.53.53,0,0,1-.54.53H8.61a.53.53,0,0,1-.53-.53.53.53,0,0,1,.53-.53M18.72,10a.54.54,0,0,1,0,1.07H8.61a.54.54,0,0,1,0-1.07M4.44,7.34A1.23,1.23,0,1,1,3.2,8.57,1.24,1.24,0,0,1,4.44,7.34Zm1.94,6.1H2.5v-2a1.06,1.06,0,0,1,1.06-1.07H5.31a1.07,1.07,0,0,1,1.07,1.07ZM18.72,12.2a.53.53,0,0,1,.53.53.53.53,0,0,1-.53.53H8.61a.53.53,0,0,1-.53-.53.53.53,0,0,1,.53-.53"/><path d="M28,22.39l0-.16A38.66,38.66,0,0,0,24.07,14l-1.72-.8v7.42l-.45-.46-.38-.37-.42-.42-2.71-2.7a1,1,0,0,0-1.36,0s0,0,0,0a.91.91,0,0,0-.21.4A.93.93,0,0,0,17,18l1.57,1.56.54.53.53.53.6.6,0,.16a7.16,7.16,0,0,0,1.3,3.1A4.67,4.67,0,0,0,25,25.86h.21l1.21,1.06,3.16-3.25Z"/></svg>