<svg id="Calque_1" data-name="Calque 1" xmlns="http://www.w3.org/2000/svg" viewBox="0 0 30 30"><title>ILLUSTRATOR_ICONS_MAIRIE</title><path d="M29.3,16.71l-4.66-4.33A2.13,2.13,0,0,0,24,14a3.69,3.69,0,0,0,0,.41l.11,1.14h-4.4l-.07-1c0-.36,0-.67,0-1a5.76,5.76,0,0,1,1.71-4.29l-.69-.45L19,8.65l-2.57-.32-.67-.08-.18-.66A5.52,5.52,0,0,1,15.37,6a6.9,6.9,0,0,1,.3-2l0,0a.84.84,0,0,0-1.13,0L.84,16.71a.85.85,0,0,0-.21.92.83.83,0,0,0,.78.54H4.67V28.61a.85.85,0,0,0,.84.85h6.83a.84.84,0,0,0,.83-.85V21H17v7.61a.84.84,0,0,0,.83.85h6.83a.84.84,0,0,0,.83-.85V18.17h3.27a.84.84,0,0,0,.56-1.46Zm-7.49,5.5a2.81,2.81,0,1,1,2.77-2.8A2.78,2.78,0,0,1,21.81,22.21Z"/><path d="M19.13,7.63A3.16,3.16,0,0,1,19,7.15a4.8,4.8,0,0,1-.08-.85,3.22,3.22,0,0,1,3.32-3.46,3,3,0,0,1,3.17,3.08A3.19,3.19,0,0,1,24,8.57l-1.17.81a6.06,6.06,0,0,0-.76.63,4.67,4.67,0,0,0-1.45,3.59c0,.35,0,.63,0,1H23A3.84,3.84,0,0,1,23,14a3.16,3.16,0,0,1,.91-2.36,3,3,0,0,1,.26-.24l1.22-.84a5.56,5.56,0,0,0,2.72-4.71A5.48,5.48,0,0,0,22.26.46a5.52,5.52,0,0,0-5.74,4.38A5.81,5.81,0,0,0,16.39,6a4.67,4.67,0,0,0,.16,1.3Z"/><path d="M21.81,17.63a1.72,1.72,0,0,0-1.43.79,1.79,1.79,0,0,0-.29,1h0a2.1,2.1,0,0,0,0,.36,1.73,1.73,0,0,0,1.69,1.4,1.76,1.76,0,0,0,1.72-1.4,2.09,2.09,0,0,0,0-.36h0a1.73,1.73,0,0,0-.31-1A1.75,1.75,0,0,0,21.81,17.63Z"/></svg>