<?xml version="1.0" encoding="utf-8"?>
<!-- Generator: Adobe Illustrator 24.3.0, SVG Export Plug-In . SVG Version: 6.00 Build 0)  -->
<svg version="1.1" id="Calque_1" xmlns="http://www.w3.org/2000/svg" xmlns:xlink="http://www.w3.org/1999/xlink" x="0px" y="0px"
	 viewBox="0 0 30 30" style="enable-background:new 0 0 30 30;" xml:space="preserve">
<style type="text/css">
	.st0{fill:#FFFFFF;}
</style>
<path class="st0" d="M11.4,6.8c1.8,0,3.2-1.4,3.2-3.2c0-1.8-1.4-3.2-3.2-3.2S8.2,1.9,8.2,3.6c0,0,0,0,0,0C8.2,5.4,9.6,6.8,11.4,6.8z
	"/>
<path class="st0" d="M28.7,18c-2.4-0.4-3.4-2.1-5.6-5.9l-0.1-0.2c-2.1-3.4-4.9-5.2-8.5-5.2C14.2,6.8,14,7,14,7.3
	c0,0.2,0.2,0.4,0.4,0.4c3.2,0,5.7,1.5,7.6,4.7l0.1,0.2c2.1,3.6,3.3,5.5,5.6,6.2c-1.1,1.3-2.5,2.2-4.1,2.7c-2.2,0.8-4.7,0.3-6.4-1.5
	c-0.1-0.2-0.5-0.3-0.7-0.1c0,0,0,0,0,0c-0.2,0.2-0.3,0.5-0.1,0.7c0,0,0,0,0,0c1.3,1.5,3.2,2.4,5.1,2.3c0.8,0,1.6-0.1,2.4-0.4
	c2.1-0.6,3.9-2,5-3.8l0.3-0.6L28.7,18z"/>
<path class="st0" d="M14.8,18.3v-1.6c0.2,0.6,0.9,0.9,1.5,0.7c0.2-0.1,0.5-0.3,0.6-0.5c1.4-1.6,1.4-1.6,2.3-2.8s0-2.1-0.7-2.6
	s-2.8-1.9-4-2.6C12.6,8,10.3,8,8.4,8.9c-1.2,0.7-3.3,2.1-4,2.6s-1.6,1.4-0.7,2.6s0.9,1.2,2.3,2.8c0.3,0.6,1.1,0.7,1.6,0.4
	c0.2-0.1,0.4-0.3,0.5-0.6v1.6c0,0-1.6,7.8-1.8,8.9C6,28.1,6.5,29,7.3,29.3c0.1,0,0.1,0,0.2,0.1c0.8,0.3,1.7-0.1,2-0.9
	c0.1-0.2,0.1-0.3,0.1-0.5c0.2-1.4,1.9-8,1.9-8s1.6,6.6,1.9,8c0,0.9,0.7,1.5,1.6,1.5c0.2,0,0.4,0,0.5-0.1c0.9-0.2,1.4-1,1.2-1.9
	c0-0.1,0-0.2-0.1-0.2C16.4,26.1,14.8,18.3,14.8,18.3z M14.8,12.5l1.6,0.9C16,14,15.5,14.5,15,15.1c-0.1,0.1-0.2,0.2-0.2,0.3
	L14.8,12.5z M8.2,15.4c-0.1-0.1-0.1-0.2-0.2-0.3c-0.5-0.5-1-1.1-1.4-1.6l1.6-0.9L8.2,15.4z M11.4,13.7l-2-2.3l1-0.9h2l1,1L11.4,13.7
	z"/>
</svg>
