<svg id="Calque_1" data-name="Calque 1" xmlns="http://www.w3.org/2000/svg" viewBox="0 0 30 30"><title>ILLUSTRATOR_ICONS_MAIRIE</title><path d="M28.46,9a1.9,1.9,0,0,0-.8-1.2,1.83,1.83,0,0,0-2.56.56L22.05,13.2V1.47a1,1,0,0,0-.94-1H2.44a1,1,0,0,0-.94,1V28.53a1,1,0,0,0,.94,1H21.11a1,1,0,0,0,.94-1V20.24l6.15-9.81A1.92,1.92,0,0,0,28.46,9ZM18.19,24.6l-1.65.84.09-1.87.71-1.12.61-1L22.05,15,25.89,8.9a.9.9,0,0,1,1.25-.28,1,1,0,0,1,.4.59,1,1,0,0,1-.13.7l-5.36,8.54ZM5.36,4.2H9.58V8.53H5.36ZM5,11.69H18.52a.49.49,0,0,1,0,1H5a.49.49,0,0,1,0-1Zm0,3.2H18.52a.49.49,0,0,1,0,1H5a.49.49,0,0,1,0-1Zm0,3.2H18.52a.46.46,0,0,1,.34.16l-.51.81H5a.47.47,0,0,1-.47-.48A.48.48,0,0,1,5,18.09ZM4.56,22A.48.48,0,0,1,5,21.48H16.82l-.61,1H5A.47.47,0,0,1,4.56,22Z"/></svg>