<svg id="Calque_1" data-name="Calque 1" xmlns="http://www.w3.org/2000/svg" viewBox="0 0 30 30"><title>ILLUSTRATOR_ICONS_MAIRIE</title><path d="M21.91,13.56H18.65a.4.4,0,0,1-.4-.4V9.57H16.44v3.59a.4.4,0,0,1-.4.4H12.78a.4.4,0,0,1-.4-.4V8.24H10.82A.4.4,0,0,1,10.45,8a.39.39,0,0,1,.1-.43l6.53-6a.39.39,0,0,1,.53,0l6.53,6a.39.39,0,0,1,.1.43.4.4,0,0,1-.37.26H22.31v4.92A.4.4,0,0,1,21.91,13.56Z"/><path d="M11.57,16.42a11.37,11.37,0,0,0-4.28-.89l-.12,8.73c1.35.43,5.26,1.67,7,2.09l.79.21c1.57.42,2.44.65,4.06-.16,2.07-1,7.86-4.71,9.49-5.79A2.22,2.22,0,0,0,29.57,19a.85.85,0,0,0-.12-.6l-.2-.21c-.42-.47-.86-1-2.81-.18s-4,1.65-4.93,2a3.28,3.28,0,0,1,0,.56,2,2,0,0,1-2.25,2.25H11.86V21.56H19.3c.93,0,.93-.38.93-.94s-.09-1.21-1.2-1.21H15.28l-.2-.23A13.41,13.41,0,0,0,11.57,16.42Z"/><path d="M5.76,28.46a.42.42,0,0,0,.4-.41V12.39a.42.42,0,0,0-.4-.41H1a.42.42,0,0,0-.41.41V28.05a.42.42,0,0,0,.41.41Z"/></svg>