<svg id="Calque_1" data-name="Calque 1" xmlns="http://www.w3.org/2000/svg" viewBox="0 0 30 30"><title>ILLUSTRATOR_ICONS_MAIRIE</title><path d="M8.55,12.85A8.15,8.15,0,0,1,7.94,10H6.37A3.71,3.71,0,0,0,8.55,12.85Z"/><path d="M8.53,6.06A3.71,3.71,0,0,0,6.37,8.92H7.94A8.38,8.38,0,0,1,8.53,6.06Z"/><path d="M13.75,20.71H6.47a.53.53,0,1,1,0-1.06h6.25a2.2,2.2,0,0,1-.48-1.38,2.24,2.24,0,0,1,.67-1.6,2.36,2.36,0,0,1,3.23,0l2.54,2.51V.77A.27.27,0,0,0,18.4.5H1.79A.28.28,0,0,0,1.5.77V24.21a.28.28,0,0,0,.29.26h15c-.12-.38-.21-.75-.29-1.09ZM10.09,4.65a4.8,4.8,0,1,1-4.86,4.8A4.84,4.84,0,0,1,10.09,4.65Z"/><path d="M10.1,13.13c.31,0,1-1.08,1.08-3.15H9C9.12,12.05,9.8,13.13,10.1,13.13Z"/><path d="M10.1,5.75c-.3,0-1,1.08-1.08,3.17h2.16C11.08,6.86,10.4,5.75,10.1,5.75Z"/><path d="M13.82,8.92a3.76,3.76,0,0,0-2.14-2.85,8.38,8.38,0,0,1,.58,2.85Z"/><path d="M13.82,10H12.26a8,8,0,0,1-.6,2.85A3.75,3.75,0,0,0,13.82,10Z"/><path d="M10.09,5.72H10l.11,0,.1,0Z"/><path d="M10.09,13.18h.18a.53.53,0,0,0-.17,0,.47.47,0,0,0-.17,0Z"/><path d="M26.66,24.08l0-.16c-1-3.7-4.06-8.73-4.6-9.6l-2.15-1v8.55l-.12-.12-.54-.53-.54-.53-3.3-3.26a1.25,1.25,0,0,0-1.71,0,1.18,1.18,0,0,0,0,1.7l3.77,3.73,0,.15a12.31,12.31,0,0,0,.39,1.46c.06.18.12.36.19.54s.16.35.25.53a5.05,5.05,0,0,0,.7,1.12,5.6,5.6,0,0,0,4,1.59h.22l1.45,1.26,3.82-3.91Z"/></svg>