<?xml version="1.0" encoding="utf-8"?>
<!-- Generator: Adobe Illustrator 16.0.0, SVG Export Plug-In . SVG Version: 6.00 Build 0)  -->
<!DOCTYPE svg PUBLIC "-//W3C//DTD SVG 1.1//EN" "http://www.w3.org/Graphics/SVG/1.1/DTD/svg11.dtd">
<svg version="1.1" id="Calque_1" xmlns="http://www.w3.org/2000/svg" xmlns:xlink="http://www.w3.org/1999/xlink" x="0px" y="0px"
	 width="1190.55px" height="841.891px" viewBox="0 0 1190.55 841.891" enable-background="new 0 0 1190.55 841.891"
	 xml:space="preserve">
<title>ILLUSTRATOR_ICONS_MAIRIE</title>
<g>
	<path fill-rule="evenodd" clip-rule="evenodd" fill="#FFFFFF" d="M641.573,37.056c20.097,9.275,26.173,25.191,25.922,46.806
		c-0.87,73.952-0.336,147.919-0.336,221.88c0,4.177,0,8.354,0,12.532c-1.015,0.806-2.032,1.608-3.052,2.415
		c-11.901-11.121-24.655-21.479-35.524-33.529c-20.996-23.277-41.515-23.28-62.41,0.048c-10.696,11.941-23.211,22.253-34.904,33.302
		c-1.227-0.575-2.455-1.154-3.685-1.733c0-3.959,0-7.919,0-11.877c0-74.353,0.54-148.708-0.335-223.044
		c-0.251-21.624,5.807-37.539,25.924-46.8C582.64,37.056,612.106,37.056,641.573,37.056z"/>
	<path fill-rule="evenodd" clip-rule="evenodd" fill="#FFFFFF" d="M1027.728,427.66c49.853,19.525,96.902,41.166,132.124,81.401
		c43.853,50.097,40.685,109.822-7.706,157.811c-36.334,36.031-81.607,57.106-128.763,74.366
		c-80.858,29.597-164.896,45.017-250.219,54.184c-87.664,9.421-175.536,11.829-263.562,6.961
		c-116.842-6.465-232.074-22.135-342.584-62.904c-44.168-16.291-86.473-36.427-121.074-69.447
		c-55.365-52.837-56.076-117.729-1.488-171.127c34.408-33.659,76.954-53.734,122.562-70.974c0,27.693-0.021,53.977,0.005,80.26
		c0.058,55.338,29.806,93.466,83.47,108.425c124.767,34.78,251.801,51.463,381.312,47.886
		c106.975-2.955,211.975-19.422,314.972-48.471c51.474-14.516,80.835-53.516,80.941-106.953
		C1027.771,482.419,1027.728,455.761,1027.728,427.66z"/>
	<path fill-rule="evenodd" clip-rule="evenodd" fill="#FFFFFF" d="M737.524,108.626c26.427,1.473,51.071,7.91,74.149,18.964
		c93.115,44.601,142.651,118.735,145.949,222.032c1.719,53.828,0.391,107.756,0.267,161.636
		c-0.046,18.994-8.549,31.291-26.435,36.419c-73.484,21.078-148.261,35.495-224.479,42.12c-0.241,0.018-0.521-0.342,0.197,0.154
		c12.687-21.699,26.556-42.692,37.7-65.043c24.156-48.457,29.389-100.695,26.634-153.959c-0.866-16.722-11.382-25.931-33.982-32.784
		C737.524,261.941,737.524,185.693,737.524,108.626z"/>
	<path fill-rule="evenodd" clip-rule="evenodd" fill="#FFFFFF" d="M457.134,108.436c0,76.96,0,153.2,0,226.761
		c-10.085,7.001-21.505,11.445-27.095,19.794c-5.471,8.167-6.476,20.254-6.897,30.723c-3.005,74.413,17.288,141.555,64.195,200.06
		c0.684,0.849,0.941,2.036,2.329,5.159c-30.981-4.231-60.887-6.904-90.189-12.646c-44.019-8.628-87.699-19.074-131.367-29.406
		c-22.914-5.421-31.274-17.106-31.293-40.771c-0.039-51.944-0.154-103.889,0.019-155.833
		c0.406-121.567,85.948-222.283,205.806-242.443C447.18,109.069,451.821,108.933,457.134,108.436z"/>
	<path fill-rule="evenodd" clip-rule="evenodd" fill="#FFFFFF" d="M598.916,357.196c28.668,25.089,63.07,41.771,102.771,49.145
		c0.388,27.14-4.94,52.635-14.503,77.242c-16.487,42.423-43.971,76.239-81.787,101.468c-3.332,2.224-9.833,3.394-12.99,1.653
		c-57.264-31.55-102.782-114.296-99.095-178.397c18.669-6.71,37.797-11.905,55.347-20.363
		C565.909,379.625,581.562,367.995,598.916,357.196z"/>
</g>
</svg>
