<svg id="Calque_1" data-name="Calque 1" xmlns="http://www.w3.org/2000/svg" viewBox="0 0 30 30"><title>ILLUSTRATOR_ICONS_MAIRIE</title><path d="M25.61,13.36a4.62,4.62,0,0,1-2.72.9H21.78v2.29H18.64V14.26H12.37v2.29H9.23V14.26H8.18a4.64,4.64,0,0,1-2.91-1,6.2,6.2,0,0,0-1.89,4.44v9.77A2.08,2.08,0,0,0,5.47,29.5H8.71V20.18H22.3V29.5h3a2.08,2.08,0,0,0,2.09-2.07V17.66A6.13,6.13,0,0,0,25.61,13.36Z"/><path d="M6.11,12.54a3.64,3.64,0,0,0,2.07.69H9.23V10.86h3.14v2.37h6.27V10.86h3.14v2.37h1.11a3.55,3.55,0,0,0,1.9-.59A5.09,5.09,0,0,0,27,8.29V6.57a1.81,1.81,0,0,0-1.57-1.94H19.69V3.09A2.6,2.6,0,0,0,17.07.5H13.94a2.6,2.6,0,0,0-2.62,2.59V4.63H5.62A1.8,1.8,0,0,0,4.06,6.57V8.29A5.17,5.17,0,0,0,6.11,12.54Zm6.26-8.43v-1a1.56,1.56,0,0,1,1.57-1.55h3.13a1.56,1.56,0,0,1,1.57,1.55V4.63H12.37Z"/><polygon points="10.28 13.74 10.28 14.26 10.28 15.52 11.32 15.52 11.32 14.26 11.32 13.74 11.32 13.23 11.32 11.89 10.28 11.89 10.28 13.23 10.28 13.74"/><polygon points="19.69 13.74 19.69 14.26 19.69 15.52 20.73 15.52 20.73 14.26 20.73 13.74 20.73 13.23 20.73 11.89 19.69 11.89 19.69 13.23 19.69 13.74"/><rect x="9.75" y="21.21" width="11.5" height="2.07"/><rect x="9.75" y="24.32" width="11.5" height="5.18"/></svg>