<?xml version="1.0" encoding="utf-8"?>
<!-- Generator: Adobe Illustrator 24.2.1, SVG Export Plug-In . SVG Version: 6.00 Build 0)  -->
<svg version="1.1" id="Calque_1" xmlns="http://www.w3.org/2000/svg" xmlns:xlink="http://www.w3.org/1999/xlink" x="0px" y="0px"
	 viewBox="0 0 24 24" style="enable-background:new 0 0 24 24;" xml:space="preserve">
<style type="text/css">
	.st0{fill:#FFFFFF;}
</style>
<path class="st0" d="M23.9,14.4c-0.1-0.6-0.5-1.2-0.7-1.8c-0.9-2-1.7-4.1-2.6-6.1C20.3,5.7,20,5,19.8,4.3c-0.4-1.2-1.4-2-2.7-2.1
	c-1.8-0.2-3.2,0.9-3.6,2.7c0,0.1-0.1,0.2-0.2,0.2c-0.8,0-1.7,0-2.5,0c-0.2,0-0.2-0.1-0.3-0.2c-0.2-1.4-1.4-2.5-2.8-2.7
	C6.3,2,4.9,2.8,4.3,4.1C4.2,4.4,4.2,4.7,4,5C3.4,6.4,2.9,7.8,2.3,9.2c-0.6,1.4-1.2,2.8-1.8,4.2c-0.8,1.8-0.6,3.5,0.5,5.1
	c1.5,2.2,4.3,2.8,6.6,1.6c1.7-0.9,2.7-2.4,2.8-4.4c0-0.5,0-1,0-1.4c0-0.2,0-0.2,0.2-0.2c0.9,0,1.9,0,2.8,0c0.2,0,0.2,0.1,0.2,0.2
	c0,0.6-0.1,1.2,0,1.8c0.4,2.9,3,4.9,5.9,4.4c2.2-0.3,4-2,4.4-4.3c0-0.1,0-0.2,0.1-0.2c0-0.4,0-0.8,0-1.2
	C23.9,14.7,23.9,14.5,23.9,14.4z M5.2,19.1c-2,0-3.7-1.7-3.6-3.7c0.1-2,1.5-3.6,3.7-3.6c2.2,0,3.8,1.9,3.6,3.7
	C9,17.3,7.3,19.2,5.2,19.1z M10.5,6.8c0-0.1,0-0.2,0.2-0.2c0.9,0,1.8,0,2.6,0c0.2,0,0.2,0.1,0.2,0.2c0,0.5,0,1,0,1.4c0,0,0,0,0,0
	c0,0.5,0,0.9,0,1.4c0,0.2,0,0.2-0.2,0.2c-0.9,0-1.8,0-2.7,0c-0.1,0-0.2,0-0.2-0.2C10.5,8.7,10.5,7.8,10.5,6.8z M13.4,12.6
	c-0.5,0-1,0-1.4,0c-0.5,0-0.9,0-1.4,0c-0.2,0-0.2,0-0.2-0.2c0-0.3,0-0.5,0-0.8c0-0.1,0-0.2,0.2-0.2c0.9,0,1.9,0,2.8,0
	c0.1,0,0.2,0,0.2,0.2c0,0.3,0,0.5,0,0.8C13.6,12.5,13.6,12.6,13.4,12.6z M18.8,19.1c-2,0-3.8-1.8-3.6-3.7c-0.2-1.7,1.4-3.7,3.6-3.6
	c2.1,0,3.6,1.6,3.6,3.6C22.5,17.4,20.8,19.1,18.8,19.1z"/>
</svg>
