<svg id="Calque_1" data-name="Calque 1" xmlns="http://www.w3.org/2000/svg" viewBox="0 0 24 24"><title>icons_</title><path d="M22.38,7.31a.53.53,0,0,0-.49,0,17.26,17.26,0,0,1-6.14,1.18c0-.15,0-.28,0-.43V1.06a.54.54,0,0,0-.72-.49A17.38,17.38,0,0,1,2.33.57a.57.57,0,0,0-.49.12.65.65,0,0,0-.23.49V8a9,9,0,0,0,7,8.77l.13,0h.05a9,9,0,0,0,6.67,6.64l.12,0,.13,0a9,9,0,0,0,6.94-8.75V7.75A.54.54,0,0,0,22.38,7.31ZM10.79,5.52h1.3a.52.52,0,0,1,.53.52.53.53,0,0,1-.53.53h-1.3A.52.52,0,0,1,10.27,6,.52.52,0,0,1,10.79,5.52ZM4.77,6a.52.52,0,0,1,.53-.52H6.6A.52.52,0,0,1,7.13,6a.53.53,0,0,1-.53.53H5.3A.53.53,0,0,1,4.77,6Zm.89,5a.53.53,0,0,1,1-.38,2.21,2.21,0,0,0,4.11,0,.54.54,0,0,1,.69-.3.52.52,0,0,1,.29.68,3.27,3.27,0,0,1-6.07,0Zm12.62,8.78a.53.53,0,0,1-.69-.29,2.2,2.2,0,0,0-4.09,0,.56.56,0,0,1-.5.33.43.43,0,0,1-.19,0,.52.52,0,0,1-.3-.68,3.27,3.27,0,0,1,6.06,0A.52.52,0,0,1,18.28,19.79Zm.65-6.44h-1.3a.52.52,0,0,1-.52-.52.52.52,0,0,1,.52-.53h1.3a.53.53,0,0,1,.53.53A.52.52,0,0,1,18.93,13.35Z"/></svg>