<?xml version="1.0" encoding="utf-8"?>
<!-- Generator: Adobe Illustrator 24.3.0, SVG Export Plug-In . SVG Version: 6.00 Build 0)  -->
<svg version="1.1" id="Calque_1" xmlns="http://www.w3.org/2000/svg" xmlns:xlink="http://www.w3.org/1999/xlink" x="0px" y="0px"
	 viewBox="0 0 24 24" style="enable-background:new 0 0 24 24;" xml:space="preserve">
<style type="text/css">
	.st0{fill:#FDFDFD;}
</style>
<g>
	<path class="st0" d="M21.5,17.3c0.2,0,0.3,0.1,0.3-0.2c0-4.3,0-8.5,0-12.8c0-0.2,0-0.3-0.2-0.3c-1.6-0.3-3.1-0.4-4.7-0.1
		c-1.6,0.3-3,0.9-4.2,2.1c-0.2,0.1-0.2,0.2-0.2,0.4c0,4.1,0,8.1,0,12.1c0,0.1,0,0.2,0,0.3c0.2-0.1,0.4-0.2,0.5-0.3
		c1.6-0.9,3.4-1.2,5.2-1.3C19.3,17.1,20.4,17.2,21.5,17.3z"/>
	<path class="st0" d="M8.7,4.4C6.6,3.6,4.5,3.7,2.4,4.1c-0.1,0-0.1,0.1-0.1,0.2c0,4.3,0,8.6,0,12.9c0,0.2,0.1,0.2,0.2,0.2
		c0.5,0,1.1-0.1,1.6-0.1c1.8-0.1,3.6,0.1,5.3,0.6c0.7,0.3,1.4,0.6,2.1,1c0-4.2,0-8.3,0-12.4c0-0.1,0-0.2-0.1-0.3
		C10.7,5.4,9.7,4.8,8.7,4.4z"/>
	<path class="st0" d="M5.8,18.4c-1.3-0.1-2.7,0-4,0.2c-0.3,0-0.6-0.1-0.6-0.5c0-0.1,0-0.2,0-0.3c0-4,0-8,0-12c0-0.1,0-0.1,0-0.2
		c0-0.2-0.1-0.2-0.2-0.2c-0.3,0-0.5,0-0.8,0C0,5.3,0,5.4,0,5.6c0,4.8,0,9.5,0,14.3C0,20,0,20,0.1,20.2c2.8-1.2,5.7-1.6,8.8-1.3
		C7.8,18.5,6.8,18.3,5.8,18.4z"/>
	<path class="st0" d="M23.9,5.4c-0.3,0-0.5,0-0.8,0c-0.3,0-0.3,0.1-0.3,0.3c0,4,0,8.1,0,12.1c0,0,0,0.1,0,0.2
		c-0.1,0.3-0.3,0.5-0.6,0.5c-0.1,0-0.2,0-0.3,0c-2-0.3-4-0.3-6,0.1c-0.3,0-0.5,0.1-0.8,0.2c0,0.1,0,0.1,0,0.1c3.1-0.3,6,0.1,8.9,1.3
		c0-0.1,0-0.2,0.1-0.2c0-4.8,0-9.5,0-14.3V5.6C24.1,5.4,24,5.4,23.9,5.4z"/>
</g>
</svg>
