<?xml version="1.0" encoding="utf-8"?>
<!-- Generator: Adobe Illustrator 24.2.1, SVG Export Plug-In . SVG Version: 6.00 Build 0)  -->
<svg version="1.1" id="Calque_1" xmlns="http://www.w3.org/2000/svg" xmlns:xlink="http://www.w3.org/1999/xlink" x="0px" y="0px"
	 viewBox="0 0 24 24" style="enable-background:new 0 0 24 24;" xml:space="preserve">
<path d="M22.8,0H5.5C5.2,0,4.9,0.3,4.9,0.7v5.4H1.2c-0.4,0-0.7,0.3-0.7,0.7v11.5c0.1,1.5,1.3,2.7,2.8,2.8h17.3
	c1.6,0,2.9-1.3,2.9-2.9c0,0,0,0,0,0V0.7C23.5,0.3,23.2,0,22.8,0z M4.8,18.2c0,0.9-0.7,1.6-1.5,1.6c0,0,0,0,0,0
	c-0.9,0-1.5-0.7-1.5-1.6c0,0,0,0,0,0V7.5h3.1L4.8,18.2z M22.1,18.2c0,0.9-0.7,1.6-1.5,1.6c0,0,0,0,0,0H5.7c0.3-0.5,0.4-1,0.4-1.6
	V1.3h16L22.1,18.2z"/>
<rect x="8.5" y="14.1" width="11.2" height="1.3"/>
<rect x="8.5" y="6.2" width="11.2" height="1.3"/>
<rect x="8.4" y="10.2" width="11.3" height="1.4"/>
</svg>
