<svg id="Calque_1" data-name="Calque 1" xmlns="http://www.w3.org/2000/svg" viewBox="0 0 24 24"><title>icons_</title><path d="M23,7.53,19.2,7.42a3.83,3.83,0,0,0-2.82,1.12,4.14,4.14,0,0,0-1.23,2.84l0,.87a3.48,3.48,0,0,0-2,1.68,9.93,9.93,0,0,0-1.44-5.16.29.29,0,0,0,0-.09V7a5.42,5.42,0,0,0-5.33-5.5H1a.47.47,0,0,0-.48.48V3.65A5.43,5.43,0,0,0,5.83,9.16h4.92c1.28,1.45,1.45,4.35,1.49,7.26C8.73,16.64,6,19.08,6,22.06a.47.47,0,0,0,.48.48H19.08a.47.47,0,0,0,.48-.48c0-3-2.75-5.4-6.24-5.64.23-1.84,1-3.07,2.27-3.31h0l3.81.1h.11a3.84,3.84,0,0,0,2.67-1.08,4.09,4.09,0,0,0,1.27-2.88L23.5,8A.48.48,0,0,0,23,7.53Z"/></svg>