<svg id="Calque_1" data-name="Calque 1" xmlns="http://www.w3.org/2000/svg" viewBox="0 0 30 30"><title>ILLUSTRATOR_ICONS_MAIRIE</title><path d="M15.36,5.84A9,9,0,0,0,6.48,15a9,9,0,0,0,8.9,9.07,9,9,0,0,0,8.87-9.19A9,9,0,0,0,15.36,5.84Zm0,15.08A6,6,0,0,1,15.41,9a6,6,0,0,1-.09,11.93Z"/><path d="M27.94,5.45A5.48,5.48,0,0,0,26.16,9C26,11.15,26,13.29,26,15.42a.89.89,0,0,0,.83.85c.71.1.95.38.95,1.11,0,2,0,4,0,6a7.09,7.09,0,0,0,0,.8.86.86,0,0,0,.79.79.84.84,0,0,0,.94-.64,2.32,2.32,0,0,0,.05-.59V5A1.67,1.67,0,0,0,27.94,5.45Z"/><path d="M5.27,8c0-.83,0-1.67,0-2.5A.66.66,0,0,0,5,5a.52.52,0,0,0-.48.08.72.72,0,0,0-.16.49c0,1,0,2.09,0,3.13,0,.3-.07.54-.37.64s-.56-.16-.56-.59c0-1,0-2.09,0-3.13,0-.34-.06-.64-.47-.67s-.49.21-.49.67c0,1,0,2,0,3,0,.35,0,.67-.45.72s-.47-.23-.47-.74V5.58c0-.33-.1-.61-.47-.61s-.48.26-.48.6c0,1.55,0,3.1,0,4.66a2.28,2.28,0,0,0,1.13,2,.61.61,0,0,1,.33.6Q2,18.29,2,23.7a3.65,3.65,0,0,0,0,.47.89.89,0,0,0,1.36.65,1.07,1.07,0,0,0,.44-1c0-3.65,0-7.31,0-11,0-.22,0-.41.24-.56a2.28,2.28,0,0,0,1.19-2.12c0-.73,0-1.47,0-2.2Z"/><path d="M15.39,10.05A4.91,4.91,0,1,0,20.15,15,4.85,4.85,0,0,0,15.39,10.05Z"/></svg>