<svg id="Calque_1" data-name="Calque 1" xmlns="http://www.w3.org/2000/svg" viewBox="0 0 30 30"><title>ILLUSTRATOR_ICONS_MAIRIE</title><path d="M7.37,8.69a.74.74,0,0,0-.74.74v2.44a.74.74,0,0,0,1.48,0V9.43A.74.74,0,0,0,7.37,8.69Z"/><path d="M7.37,13.38a.73.73,0,1,0,.74.73A.74.74,0,0,0,7.37,13.38Z"/><path d="M19.09,12V3H8.63V6.12l-.27-.44a1.09,1.09,0,0,0-1.79,0L.65,15.23a1.06,1.06,0,0,0,0,1.05,1,1,0,0,0,.92.53H8.63V27h3.6V22.64h3.23V27h14V12ZM10,4.54h2.89V7.4H10Zm2.89,4.63V12h-.57L10.52,9.17ZM7,5.93Zm5.88,15.13H10V18.19h2.89Zm.52-5.21H1.55l-.07-.12L7.4,6.18h.13L8.63,8,10,10.12,11.15,12l2.3,3.7Zm4.16,5.21h-2.9V18.19h2.9Zm0-4.63h-2.9V13.57h2.9Zm0-4.4h-2.9V9.17h2.9Zm0-4.63h-2.9V4.54h2.9Zm5.8,13.66H20.45V18.19h2.89Zm0-4.63H20.45V13.57h2.89ZM28,21.06H25.12V18.19H28Zm0-4.63H25.12V13.57H28Z"/></svg>