<?xml version="1.0" encoding="utf-8"?>
<!-- Generator: Adobe Illustrator 16.0.0, SVG Export Plug-In . SVG Version: 6.00 Build 0)  -->
<!DOCTYPE svg PUBLIC "-//W3C//DTD SVG 1.1//EN" "http://www.w3.org/Graphics/SVG/1.1/DTD/svg11.dtd">
<svg version="1.1" id="Calque_1" xmlns="http://www.w3.org/2000/svg" xmlns:xlink="http://www.w3.org/1999/xlink" x="0px" y="0px"
	 width="1190.55px" height="841.891px" viewBox="0 0 1190.55 841.891" enable-background="new 0 0 1190.55 841.891"
	 xml:space="preserve">
<title>ILLUSTRATOR_ICONS_MAIRIE</title>
<g>
	<path fill-rule="evenodd" clip-rule="evenodd" fill="#FFFFFF" d="M118.43,248.322c6.453-15.729,18.159-21.153,35.05-21.31
		c83.802-0.781,164.77-15.606,240.548-52.882C466.87,138.298,527.39,88.412,569.422,17.819
		c11.375-19.103,36.601-19.256,48.116-0.333c58.268,95.734,144.886,153.407,250.013,185.903
		c55.354,17.112,112.427,23.16,170.177,23.945c16.33,0.225,26.484,6.714,29.414,20.132c1.355,6.219,0.903,13.806-1.427,19.71
		c-30.731,77.82-62.037,155.414-92.856,233.199c-2.47,6.229-6.26,6.316-11.407,6.314c-81.971-0.07-163.94-0.049-245.909-0.049
		c-162.7,0-325.4-0.073-488.104,0.205c-8.155,0.015-11.652-2.445-14.627-9.97c-30.541-77.243-61.516-154.312-92.387-231.421
		c-0.568-1.421-1.325-2.763-1.994-4.141C118.43,256.984,118.43,252.653,118.43,248.322z M593.06,450.614
		c63.365,0.182,115.364-51.461,115.487-114.695c0.12-63.224-51.778-115.266-114.965-115.282
		c-62.804-0.017-114.749,51.606-115.011,114.296C478.304,398.278,529.925,450.436,593.06,450.614z"/>
	<path fill-rule="evenodd" clip-rule="evenodd" fill="#FFFFFF" d="M233.377,675.047c240.098,0,479.604,0,721.405,0
		c-3.979,11.026-6.873,21.596-11.474,31.358c-15.763,33.444-42.262,56.638-73.698,74.715
		c-40.101,23.063-83.776,36.054-128.799,45.113c-52.28,10.523-105.114,17.112-158.416,15.382
		c-77.54-2.519-153.975-12.757-226.657-41.994c-38.966-15.671-74.139-36.962-99.363-71.749
		C245.022,712.21,237.058,694.976,233.377,675.047z"/>
	<path fill-rule="evenodd" clip-rule="evenodd" fill="#FFFFFF" d="M956.415,617.998c-241.894,0-483.514,0-725.73,0
		c0-18.434,0-36.467,0-55.105c241.955,0,483.537,0,725.73,0C956.415,581.285,956.415,599.34,956.415,617.998z"/>
	<path fill-rule="evenodd" clip-rule="evenodd" fill="#FFFFFF" d="M593.812,276.157c32.459,0.056,59.012,26.506,59.118,58.894
		c0.109,32.783-26.802,59.812-59.416,59.674c-32.329-0.138-59.029-26.772-59.191-59.046
		C534.16,302.929,560.968,276.104,593.812,276.157z"/>
</g>
</svg>
