<svg id="Calque_1" data-name="Calque 1" xmlns="http://www.w3.org/2000/svg" viewBox="0 0 30 30"><title>ILLUSTRATOR_ICONS_MAIRIE</title><path d="M18.76,23.88a6,6,0,0,1-3.9-1.47H4.56a.49.49,0,0,1,0-1h9.38a6.09,6.09,0,0,1-.58-.88l0-.09a3.36,3.36,0,0,1-.19-.38.61.61,0,0,1-.09-.18,4.66,4.66,0,0,1-.16-.49l0-.15c0-.08,0-.16-.07-.25H4.56a.49.49,0,0,1,0-1h8a4.23,4.23,0,0,1-.05-.63,5.48,5.48,0,0,1,.07-.76v-.11c0-.26.09-.5.14-.73H4.56a.49.49,0,0,1,0-1h8.53a6.33,6.33,0,0,1,1.56-2.23H4.56a.49.49,0,0,1,0-1H16a6,6,0,0,1,2.76-.7,6.06,6.06,0,0,1,2.58.59V1.43a1,1,0,0,0-.93-1H2a1,1,0,0,0-.94,1V28.49a1,1,0,0,0,.94,1h18.4a1,1,0,0,0,.93-1V23.26a2.39,2.39,0,0,1-.32.16A6,6,0,0,1,18.76,23.88ZM4.88,4.15H9.05V8.49H4.88Z"/><path d="M24,21.1a6.27,6.27,0,0,1-.67.85,6.05,6.05,0,0,1-.79.73l.49.51.74-.77.74-.78Z"/><path d="M23.56,19.58A5.55,5.55,0,0,0,24,17.42a5.92,5.92,0,0,0-.09-1,5.36,5.36,0,0,0-.27-1q-.12-.3-.27-.6a5.61,5.61,0,0,0-.56-.87,5.31,5.31,0,0,0-1.12-1l-.34-.22A5.05,5.05,0,0,0,18.76,12c-.16,0-.31,0-.46,0a5,5,0,0,0-2,.63,5.34,5.34,0,0,0-2.08,2.23,5.5,5.5,0,0,0-.4,1,1.15,1.15,0,0,1-.06.17,5.25,5.25,0,0,0-.13.69,5.8,5.8,0,0,0-.07.74,4.46,4.46,0,0,0,.05.63,2.7,2.7,0,0,0,0,.28,4.88,4.88,0,0,0,.16.66v0a4.28,4.28,0,0,0,.15.51l.06.13.22.42a5.62,5.62,0,0,0,1,1.36,4.89,4.89,0,0,0,5.38,1,3.26,3.26,0,0,0,.53-.26l.16-.09c.12-.07.25-.13.36-.21a6.25,6.25,0,0,0,.5-.4,5.81,5.81,0,0,0,1.05-1.31A5.38,5.38,0,0,0,23.56,19.58Z"/><polygon points="24.99 22.64 23.93 23.75 27.99 27.99 29.07 26.86 24.99 22.64"/></svg>