<svg id="Calque_1" data-name="Calque 1" xmlns="http://www.w3.org/2000/svg" viewBox="0 0 30 30"><title>ILLUSTRATOR_ICONS_MAIRIE</title><path d="M3.14,29.5H21.78V19.15H3.14Z"/><path d="M2,18.19H23V16.33H2Z"/><path d="M18.94,10.44,18.19,10l-.31.12c-.69.27-1.37.57-2.07.81A1.53,1.53,0,0,1,14,10.38a3.2,3.2,0,0,1-.34-.53,1.43,1.43,0,0,1,0-1.43c.14-.25.33-.47.5-.73l-1.34-.84L8.36,13.49H17Z"/><path d="M22.28,15.29,19.5,13.14a.45.45,0,0,0-.21-.1h-.92l-.31.47.63,0v.88H6.28v-.9h1L7.55,13c-.6,0-1.14,0-1.68,0a.82.82,0,0,0-.52.18l-2.5,2a2.91,2.91,0,0,0-.23.2H22.33S22.3,15.3,22.28,15.29Z"/><path d="M25.45.5l-2,1.6-1,.07a13.76,13.76,0,0,1-4.09-.47A1.49,1.49,0,0,0,16.87,2,5.61,5.61,0,0,0,16,3.14c-.65,1.05-1.24,2.12-1.85,3.18a.93.93,0,0,0-.09.2l1.11.68a1.71,1.71,0,0,0,1.18-.78A6.74,6.74,0,0,1,17,5.54a1.68,1.68,0,0,1,2.43,0,.48.48,0,0,1-.15.86c-1.38.61-2.76,1.23-4.14,1.83a1.11,1.11,0,0,0-.65.55.89.89,0,0,0-.07.53.91.91,0,0,0,1.39.66l3.05-1.24a4.6,4.6,0,0,1,2.26-.34A2.46,2.46,0,0,0,23,7.82a8,8,0,0,1,.66-.48l.1-.06h0L28,4.74Z"/></svg>