<svg id="Calque_1" data-name="Calque 1" xmlns="http://www.w3.org/2000/svg" viewBox="0 0 30 30"><title>icons_</title><path d="M13.22,24.07H1.48V9.76H24.09v3.33a.5.5,0,0,0,1,0V4.82a1,1,0,0,0-1-1H20.65V1a.49.49,0,0,0-1,0V3.83H5.91V1a.5.5,0,0,0-1,0V3.83H1.48a1,1,0,0,0-1,1V24.07a1,1,0,0,0,1,1H13.22a.5.5,0,0,0,0-1Z"/><rect x="4.68" y="11.98" width="3.44" height="3.46"/><rect x="10.08" y="11.98" width="3.44" height="3.46"/><rect x="15.49" y="11.98" width="3.44" height="3.46"/><rect x="4.68" y="17.41" width="3.44" height="3.46"/><rect x="10.08" y="17.41" width="3.44" height="3.46"/><path d="M22.5,15.43a7,7,0,1,0,7,7A7,7,0,0,0,22.5,15.43Zm0,13.08a6,6,0,1,1,6-6A6,6,0,0,1,22.5,28.51Z"/><path d="M25.57,23.08H22.13V19.63a.5.5,0,1,0-1,0v4.44h4.43a.5.5,0,0,0,0-1Z"/></svg>