<?xml version="1.0" encoding="utf-8"?>
<!-- Generator: Adobe Illustrator 24.2.0, SVG Export Plug-In . SVG Version: 6.00 Build 0)  -->
<svg version="1.1" id="Calque_1" xmlns="http://www.w3.org/2000/svg" xmlns:xlink="http://www.w3.org/1999/xlink" x="0px" y="0px"
	 viewBox="0 0 24 24" style="enable-background:new 0 0 24 24;" xml:space="preserve">
<style type="text/css">
	.st0{fill:#FFFFFF;}
</style>
<g>
	<path class="st0" d="M22.6,14c-2.1,0-3.2-0.8-4.1-1.5c-0.7-0.5-1.1-0.8-1.7-0.8c-0.6,0-0.9,0.3-1.5,0.8c-0.7,0.6-1.6,1.4-3.2,1.4
		c-2,0-2.8-0.8-3.4-1.5c-0.5-0.5-0.8-0.8-1.6-0.8c-0.8,0-1.1,0.3-1.7,0.8c-0.8,0.7-1.7,1.5-4,1.5v-1.8c1.6,0,2.2-0.5,2.8-1
		C4.8,10.6,5.6,10,7,10c1.6,0,2.3,0.7,2.9,1.3c0.6,0.5,1,0.9,2.2,0.9c0.9,0,1.4-0.4,2-1c0.6-0.6,1.4-1.3,2.7-1.3
		c1.3,0,2.1,0.6,2.8,1.1c0.8,0.6,1.5,1.1,3,1.1V14z"/>
	<path class="st0" d="M22.6,19.6c-2.1,0-3.2-0.8-4.1-1.5c-0.7-0.5-1.1-0.8-1.7-0.8c-0.6,0-0.9,0.3-1.5,0.8c-0.7,0.6-1.6,1.4-3.2,1.4
		c-2,0-2.8-0.8-3.4-1.5c-0.5-0.5-0.8-0.8-1.6-0.8c-0.8,0-1.1,0.3-1.7,0.8c-0.8,0.7-1.7,1.5-4,1.5v-1.8c1.6,0,2.2-0.5,2.8-1
		c0.6-0.5,1.4-1.2,2.8-1.2c0,0,0.1,0,0.1,0c1.5,0,2.2,0.7,2.8,1.3c0.6,0.5,1,0.9,2.2,0.9c0.9,0,1.4-0.4,2-1c0.6-0.6,1.4-1.3,2.7-1.3
		c1.3,0,2.1,0.6,2.8,1.1c0.8,0.6,1.5,1.1,3,1.1V19.6z"/>
	<path class="st0" d="M22.6,8.4c-2.1,0-3.2-0.8-4.1-1.5c-0.7-0.5-1.1-0.8-1.7-0.8c-0.6,0-0.9,0.3-1.5,0.8c-0.7,0.6-1.6,1.4-3.2,1.4
		c-2,0-2.8-0.8-3.4-1.5C8.2,6.5,7.9,6.2,7.1,6.2C6.3,6.2,5.9,6.5,5.4,7c-0.8,0.7-1.7,1.5-4,1.5V6.6c1.6,0,2.2-0.5,2.8-1
		C4.8,5.1,5.6,4.4,7,4.4c1.6,0,2.3,0.7,2.9,1.3c0.6,0.5,1,0.9,2.2,0.9c0.9,0,1.4-0.4,2-1c0.6-0.6,1.4-1.3,2.7-1.3
		c1.3,0,2.1,0.6,2.8,1.1c0.8,0.6,1.5,1.1,3,1.1V8.4z"/>
</g>
</svg>
