<svg id="Calque_1" data-name="Calque 1" xmlns="http://www.w3.org/2000/svg" viewBox="0 0 30 30"><title>ILLUSTRATOR_ICONS_MAIRIE</title><path d="M10.9,12.85h7.76V6.71a40.27,40.27,0,0,0-3.14-3.55H5.88V16.83c.5-1,.83-1.6,1-1.87C7.84,13.33,8.74,12.85,10.9,12.85Zm-3-5.61H16v1H7.91Zm0,2.56H16v1H7.91Z"/><path d="M29.35,14.63a1.8,1.8,0,0,0-1.67-.76H23.11v-3a2.55,2.55,0,0,0-2.54-2.56h-.89v1h.89a1.52,1.52,0,0,1,1.52,1.53v3H10.9c-1.8,0-2.39.31-3.17,1.62-.25.42-1,1.89-1.85,3.62l-.5,1-.51,1c-1,2-1.94,4-2.37,4.85a1.55,1.55,0,0,1-.91-1.4V10.82A1.52,1.52,0,0,1,3.11,9.29H4.87v-1H3.11A2.55,2.55,0,0,0,.57,10.82V24.61a2.55,2.55,0,0,0,1.49,2.31l.3.11a2.32,2.32,0,0,0,.75.13H20.57a2.38,2.38,0,0,0,.76-.13c1.44,0,2.57,0,3.38-1.64.22-.43,1-1.92,1.87-3.55,1.05-2,2.24-4.24,2.63-5A2.15,2.15,0,0,0,29.35,14.63Z"/></svg>