<?xml version="1.0" encoding="utf-8"?>
<!-- Generator: Adobe Illustrator 24.3.0, SVG Export Plug-In . SVG Version: 6.00 Build 0)  -->
<svg version="1.1" id="Calque_1" xmlns="http://www.w3.org/2000/svg" xmlns:xlink="http://www.w3.org/1999/xlink" x="0px" y="0px"
	 viewBox="0 0 30 30" style="enable-background:new 0 0 30 30;" xml:space="preserve">
<style type="text/css">
	.st0{fill:#FFFFFF;}
</style>
<path class="st0" d="M12.7,8.5c0-0.2,0-0.3,0-0.5H8.1v2h4.7C12.7,9.5,12.7,9,12.7,8.5z"/>
<rect x="5.6" y="18.4" class="st0" width="1.3" height="1.7"/>
<path class="st0" d="M13.2,11.1H0.6c-0.1,0-0.2,0.1-0.2,0.2c0,0,0,0,0,0v6H21v-2.6C17.9,15.7,14.5,14.1,13.2,11.1L13.2,11.1z"/>
<rect x="14.6" y="18.4" class="st0" width="1.3" height="1.7"/>
<path class="st0" d="M16.9,20.6c0,0.3-0.2,0.5-0.5,0.5c0,0,0,0,0,0H14c-0.3,0-0.5-0.3-0.5-0.5c0,0,0,0,0,0v-2.2H8v2.2
	c0,0.3-0.2,0.5-0.5,0.5c0,0,0,0,0,0H5.1c-0.3,0-0.5-0.3-0.5-0.5c0,0,0,0,0,0v-2.2H0.5v7.4c0,0.1,0.1,0.2,0.1,0.2c0,0,0,0,0,0h20.1
	c0.1,0,0.2-0.1,0.2-0.2c0,0,0,0,0,0v-7.4h-4.1V20.6z"/>
<path class="st0" d="M24.3,12.1c-0.2,0.3-0.4,0.6-0.7,0.9c-0.2,0.3-0.5,0.5-0.8,0.7l0.5,0.5l0.8-0.8l0.8-0.8L24.3,12.1z"/>
<path class="st0" d="M24.3,8.5C24.4,5.5,22,3,19,3c0,0,0,0,0,0c-2.4,0-4.5,1.7-5.1,4c-0.1,0.2-0.1,0.5-0.1,0.7
	c0,0.2-0.1,0.5-0.1,0.7c0,0.3,0,0.6,0.1,0.9c0.1,0.2,0.1,0.4,0.2,0.7c0,0.2,0.1,0.4,0.2,0.6l0.1,0.1c0.1,0.1,0.1,0.3,0.2,0.4
	c0.9,1.7,2.7,2.8,4.6,2.8c0.7,0,1.3-0.1,2-0.4c0.2-0.1,0.4-0.2,0.5-0.3c0.2-0.1,0.3-0.2,0.5-0.3C23.5,12,24.4,10.3,24.3,8.5z"/>
<polygon class="st0" points="25.4,13.7 24.3,14.8 28.4,19 29.5,17.9 "/>
</svg>
