<?xml version="1.0" encoding="utf-8"?>
<!-- Generator: Adobe Illustrator 16.0.0, SVG Export Plug-In . SVG Version: 6.00 Build 0)  -->
<!DOCTYPE svg PUBLIC "-//W3C//DTD SVG 1.1//EN" "http://www.w3.org/Graphics/SVG/1.1/DTD/svg11.dtd">
<svg version="1.1" id="Calque_1" xmlns="http://www.w3.org/2000/svg" xmlns:xlink="http://www.w3.org/1999/xlink" x="0px" y="0px"
	 width="1190.55px" height="756.554px" viewBox="0 39.548 1190.55 756.554" enable-background="new 0 39.548 1190.55 756.554"
	 xml:space="preserve">
<title>ILLUSTRATOR_ICONS_MAIRIE</title>
<g>
	<path fill-rule="evenodd" clip-rule="evenodd" fill="#FFFFFF" d="M555.409,79.869c-21.106,14.854-40.7,28.553-60.2,42.385
		c-32.025,22.718-45.403,54.171-35.786,87.547c9.287,32.233,39.782,66.139,78.439,70.348c21.19,2.307,40.052-1.894,57.936-12.677
		c10.952-6.606,21.65-13.699,32.955-19.637c26.968-14.167,53.277-13.96,79.411,3.352c115.445,76.485,218.981,167.35,318.575,263.005
		c17.97,17.262,18.058,37.561,0.499,56.637c-20.273,22.021-39.543,24.736-58.989,6.947
		c-49.667-45.428-98.912-91.324-148.338-137.018c-6.343-5.865-12.763-11.645-19.787-18.049
		c-9.678,10.344-18.919,20.223-30.672,32.789c3.996,2.719,8.031,4.785,11.237,7.746c55.214,50.996,109.693,102.803,165.703,152.902
		c30.84,27.586,16.077,58.557-13.021,74.994c-15.38,8.693-30.253,3.287-42.92-8.439c-51.822-47.973-103.712-95.869-155.585-143.783
		c-3.307-3.059-6.682-6.039-11.177-10.1c-9.727,10.387-19.15,20.453-29.214,31.199c23.343,21.639,45.952,42.629,68.604,63.58
		c26.073,24.111,52.241,48.125,78.258,72.297c15.108,14.035,19.684,30.303,10.522,45.469c-12.483,20.67-28.317,34.883-49.474,28.541
		c-7.901-2.367-15.72-7.256-21.872-12.859c-48.208-43.951-96.001-88.361-145.155-133.766c-9.627,10.35-19.021,20.449-29.279,31.479
		c22.563,20.865,43.752,42.234,66.815,61.35c32.119,26.617,19.495,55.357-8.761,74.721c-11.818,8.096-29.136,6.752-40.465-3.215
		c-21.384-18.816-42.13-38.363-62.813-57.951c-2.011-1.908-3.05-6.596-2.302-9.398c16.834-63.033-19.135-113.662-84.748-118.924
		c-0.4-0.031-0.786-0.244-1.598-0.514c-11.143-40.256-29.087-75.248-75.275-87.609c7.078-29.287,3.383-56.234-17.512-79.357
		c-19.945-22.078-43.037-37.18-74.241-35.25c-7.216-43.716-31.878-72.698-73.332-83.415c-44.343-11.463-72.921,16.653-98.711,48.104
		c-2.559-1.606-4.334-2.438-5.771-3.663c-34.582-29.445-69.216-58.833-103.645-88.454c-21.079-18.129-22.447-36.868-3.928-57.796
		c36.943-41.747,74.063-83.34,111.382-124.755c20.672-22.936,47.647-28.15,76.514-16.436c27.453,11.138,54.556,23.855,82.958,31.774
		c35.03,9.767,70.408,5.566,104.176-8.656c18.237-7.686,36.146-16.192,54.587-23.326C485.132,58.162,520.14,58.652,555.409,79.869z"
		/>
	<path fill-rule="evenodd" clip-rule="evenodd" fill="#FFFFFF" d="M1007.486,437.703c-18.469-17.01-37.256-33.754-55.416-51.145
		c-68.27-65.387-145.614-119.153-223.021-172.591c-38.899-26.856-81.391-26.112-122.86-2.837
		c-11.146,6.255-21.839,13.318-32.947,19.646c-31.558,17.981-71.865-4.002-73.697-40.315c-0.606-11.99,4.813-21.83,14.458-28.659
		c39.732-28.14,79.032-56.964,119.748-83.617c25.184-16.484,53.163-16.01,80.42-3.034c27.914,13.291,55.563,27.137,83.508,40.368
		c46.028,21.796,91.056,19.457,134.561-6.971c28.906-17.56,57.435-35.747,86.235-53.49c25.1-15.46,47.188-11.534,65.186,11.44
		c31.305,39.965,62.64,79.909,93.775,120.006c16.371,21.082,16.175,46.202-1.257,65.624
		c-54.873,61.14-110.101,121.962-165.217,182.886C1010.162,435.897,1009.057,436.502,1007.486,437.703z"/>
	<path fill-rule="evenodd" clip-rule="evenodd" fill="#FFFFFF" d="M128.805,626.114c4.563-8.424,7.583-18.301,13.937-25.039
		c46.743-49.57,94.022-98.643,141.43-147.586c15.464-15.967,35.268-16.252,52.002-1.813c3.123,2.697,6.141,5.533,9.016,8.49
		c16.034,16.498,16.853,36.277,1.122,52.859c-46.608,49.133-93.549,97.951-140.412,146.85
		c-11.597,12.094-25.384,16.801-41.579,10.678C147.472,664.188,131.474,642.944,128.805,626.114z"/>
	<path fill-rule="evenodd" clip-rule="evenodd" fill="#FFFFFF" d="M209.667,355.197c26.618,2.048,39.189,15.847,47.969,34.182
		c7.604,15.882,1.187,28.371-10.035,39.95c-34.414,35.518-68.528,71.324-102.832,106.951c-17.526,18.197-36.607,18.09-56.224-0.113
		c-21.15-19.625-23.974-39.623-6.737-57.947c35.01-37.225,70.356-74.147,106.288-110.477
		C194.555,361.212,204.483,358.115,209.667,355.197z"/>
	<path fill-rule="evenodd" clip-rule="evenodd" fill="#FFFFFF" d="M429.806,601.397c-4.164,8.174-6.759,17.807-12.759,24.287
		c-31.094,33.576-62.821,66.582-94.819,99.301c-15.604,15.957-36.123,15.648-52.98,0.543c-26.095-23.379-26.844-41.537-2.755-66.742
		c4.843-5.068,9.667-10.152,14.516-15.213c23.674-24.719,47.348-49.434,71.034-74.139c11.75-12.26,25.49-18.156,42.301-11.996
		C411.216,563.621,427.297,584.781,429.806,601.397z"/>
	<path fill-rule="evenodd" clip-rule="evenodd" fill="#FFFFFF" d="M523.781,691.524c-4.003,7.844-6.584,16.971-12.273,23.299
		c-19.31,21.477-39.413,42.271-59.805,62.738c-15.697,15.75-35.436,15.77-52.044,1.135c-3.095-2.729-6.066-5.611-8.939-8.568
		c-15.34-15.801-16.297-35.924-1.443-52.021c19.314-20.932,39.083-41.457,59.133-61.686c16.008-16.152,36.027-16.303,53.007-1.107
		C511.965,664.75,522.437,674.369,523.781,691.524z"/>
</g>
</svg>
