<svg id="Calque_1" data-name="Calque 1" xmlns="http://www.w3.org/2000/svg" viewBox="0 0 24 24"><title>icons_</title><path d="M19.05,4.17a.54.54,0,0,0-.44-.23H15a.52.52,0,0,0-.52.43l-.38,2H9.89l-.38-2A.52.52,0,0,0,9,3.94H5.39A.54.54,0,0,0,5,4.17L1.52,9.29a6.12,6.12,0,0,1,9.42,2.34h2.12a6.12,6.12,0,0,1,9.42-2.34Zm-5.73,6.4H10.68l-.59-3.14h3.82Z"/><path d="M5.32,9.29a4.83,4.83,0,1,0,4.83,4.82A4.82,4.82,0,0,0,5.32,9.29Z"/><path d="M18.68,9.29a4.83,4.83,0,1,0,4.82,4.82A4.82,4.82,0,0,0,18.68,9.29Z"/></svg>