<?xml version="1.0" encoding="utf-8"?>
<!-- Generator: Adobe Illustrator 16.0.0, SVG Export Plug-In . SVG Version: 6.00 Build 0)  -->
<!DOCTYPE svg PUBLIC "-//W3C//DTD SVG 1.1//EN" "http://www.w3.org/Graphics/SVG/1.1/DTD/svg11.dtd">
<svg version="1.1" id="Outline" xmlns="http://www.w3.org/2000/svg" xmlns:xlink="http://www.w3.org/1999/xlink" x="0px" y="0px"
	 width="512px" height="512px" viewBox="0 0 512 512" enable-background="new 0 0 512 512" xml:space="preserve">
<g>
	<path fill-rule="evenodd" clip-rule="evenodd" fill="#FFFFFF" d="M457.137,389.931c7.618,1.731,8.76,2.87,9.632,10.249
		c0.894,7.566,1.585,15.156,2.218,21.319c5.712,2.59,10.881,4.085,15.027,7.022c5.595,3.965,6.838,10.379,6.365,16.99
		c-0.278,3.909,0.265,6.123,5.166,6.89c8.822,1.381,15.201,9.763,15.465,18.973c0.19,6.647,0.198,13.311,0.001,19.958
		c-0.325,10.996-8.762,19.675-19.793,19.722c-40.918,0.174-81.837,0.11-122.756,0.074c-5.407-0.005-8.628-3.032-8.572-7.59
		c0.057-4.619,3.492-7.477,9.267-7.479c39.256-0.025,78.511-0.012,117.767-0.017c7.811,0,9.031-1.2,9.047-8.847
		c0.01-4.657,0.019-9.315-0.01-13.973c-0.026-4.262-2.12-6.473-6.47-6.4c-1.496,0.025-2.994-0.008-4.49-0.008
		c-153.03-0.001-306.06-0.001-459.089,0c-1.497,0-2.994,0.026-4.491,0.015c-4.087-0.028-6.206,2.043-6.26,6.077
		c-0.076,5.654-0.084,11.312-0.001,16.966c0.059,3.979,2.083,6.171,6.2,6.165c1.498-0.003,2.994,0.007,4.491,0.007
		c102.131,0.001,204.262,0,306.393,0.004c1.829,0,3.678-0.124,5.482,0.099c4.226,0.521,7.014,3.758,6.74,7.835
		c-0.287,4.27-2.726,6.618-6.944,7.092c-1.152,0.13-2.326,0.085-3.49,0.085c-103.793,0.003-207.588,0.034-311.382-0.114
		c-4.157-0.006-8.72-0.933-12.375-2.822c-6.046-3.124-9.639-8.305-9.313-15.746c0.319-7.306,0.59-14.682-0.061-21.942
		c-0.843-9.428,7.824-17.336,14.624-18.149c4.933-0.589,5.494-2.916,5.195-6.851c-0.597-7.857,1.688-14.721,8.66-18.874
		c3.571-2.128,7.947-2.904,12.664-4.535c0.695-6.763,1.387-14.351,2.277-21.916c0.874-7.423,2.033-8.583,9.735-10.267
		c0.509-12.31,1.063-24.744,1.53-37.181c1.776-47.202,3.249-94.417,5.458-141.6c0.63-13.46-2.723-25.962-5.659-39.22
		c-9.957,0.443-10.957-6.298-10.226-14.312c-2.771,0.736-4.945,1.528-7.188,1.871c-8.477,1.294-16.992-2.994-20.577-10.896
		c-3.907-8.614-7.517-17.384-10.799-26.256c-3.648-9.866,0.736-20.434,10.443-24.522C42.9,86.934,68.892,76.349,94.863,65.723
		c4.59-1.878,8.744-0.24,10.454,3.716c1.858,4.3-0.074,8.3-5.473,10.538c-24.081,9.981-48.198,19.876-72.306,29.792
		c-7.865,3.235-8.196,3.98-4.991,11.768c2.402,5.834,4.801,11.671,7.224,17.498c2.498,6.01,3.736,6.539,9.78,4.053
		c64.495-26.529,128.985-53.068,193.477-79.604c5.682-2.338,11.446-4.498,17.014-7.081c3.945-1.831,7.439-1.613,11.429,0.034
		c69.218,28.581,138.483,57.047,207.738,85.541c1.381,0.568,2.784,1.095,4.133,1.731c3.91,1.845,6.307,0.381,7.823-3.375
		c2.674-6.62,5.423-13.21,8.125-19.82c2.661-6.511,2.299-7.521-4.071-10.152c-27.932-11.537-55.879-23.035-83.819-34.547
		c-44.828-18.471-89.706-36.823-134.436-55.528c-7.78-3.254-14.604-3.276-22.419,0.014c-37.183,15.659-74.558,30.86-111.864,46.224
		c-0.922,0.379-1.829,0.8-2.771,1.119c-4.755,1.607-8.656,0.084-10.388-4.027c-1.692-4.018,0.045-7.962,4.76-9.956
		c12.388-5.234,24.831-10.338,37.265-15.463c26.865-11.074,53.765-22.064,80.593-33.226c8.919-3.711,17.611-3.907,26.591-0.204
		c74.596,30.762,149.235,61.415,223.827,92.184c12.127,5.002,16.347,15.524,11.458,27.722c-2.779,6.936-5.683,13.822-8.567,20.716
		c-5.274,12.603-14.077,16.67-27.21,12.625c-0.457-0.14-0.964-0.121-1.444-0.176c-0.568,3.42-0.227,7.362-1.939,9.941
		c-1.636,2.464-5.409,3.51-9.521,5.931c-1.873,10.101-5.83,21.473-5.301,33.923c2.525,59.489,4.615,118.994,6.865,178.491
		C456.94,387.279,457.04,388.43,457.137,389.931z M60.861,156.196c130.183,0,260.101,0,389.929,0
		c0.842-3.483,0.233-5.37-3.243-6.793c-62.819-25.721-125.562-51.63-188.381-77.353c-2.012-0.824-4.954-0.809-6.971,0.018
		c-62.665,25.667-125.258,51.51-187.91,77.209C60.865,150.678,59.394,152.345,60.861,156.196z M147.197,390.123
		c-2.325-62.177-4.627-123.725-6.927-185.195c-21.795,0-42.689,0-64.03,0c-2.306,61.838-4.602,123.396-6.906,185.195
		C95.449,390.123,120.979,390.123,147.197,390.123z M223.551,204.877c-2.323,61.898-4.634,123.441-6.952,185.187
		c26.192,0,51.84,0,77.903,0c-2.325-61.884-4.637-123.424-6.958-185.187C266.108,204.877,245.225,204.877,223.551,204.877z
		 M363.915,390.011c26.252,0,51.905,0,77.854,0c-2.317-61.965-4.62-123.539-6.924-185.153c-21.616,0-42.529,0-64.027,0
		C368.515,266.63,366.22,328.199,363.915,390.011z M201.419,389.842c0.752-19.949,1.495-39.547,2.229-59.144
		c1.5-40.04,2.602-80.102,4.71-120.109c0.713-13.534-3.126-25.871-5.672-38.613c-14.064,0-27.799,0-42.238,0
		c-1.691,10.303-4.979,20.454-4.735,30.52c1.182,49.027,3.299,98.035,5.105,147.046c0.495,13.43,1.065,26.857,1.612,40.56
		c7.294,0.287,9.501,4.591,9.913,10.874c0.483,7.384,1.489,14.734,2.259,21.999c5.242,0,9.81,0,14.619,0
		c0.817-7.561,1.678-14.795,2.363-22.046C192.328,393.067,193.376,391.763,201.419,389.842z M348.638,389.821
		c0.213-4.245,0.457-8.221,0.606-12.198c1.958-52.001,3.708-104.011,5.96-156c0.731-16.887,0.249-33.441-5.747-49.735
		c-13.385,0-26.974,0-41.909,0c-1.606,11.083-4.829,22.351-4.584,33.543c0.962,44.042,3.001,88.063,4.668,132.088
		c0.66,17.433,1.393,34.861,2.09,52.237c8.22,2.214,9.023,3.262,9.815,11.52c0.693,7.231,1.565,14.444,2.374,21.801
		c5.03,0,9.622,0,14.579,0c0.836-7.78,1.557-15.363,2.488-22.922C339.909,392.606,340.763,391.771,348.638,389.821z
		 M475.239,451.256c0-2.545-0.109-4.83,0.024-7.103c0.244-4.156-1.883-5.715-5.747-5.601c-1.495,0.045-2.992,0.001-4.489,0.001
		c-139.342-0.001-278.684-0.001-418.025,0c-11.665,0-11.742,0.079-11.001,11.642c0.019,0.289,0.298,0.561,0.579,1.061
		C182.536,451.256,328.606,451.256,475.239,451.256z M204.595,422.963c34.351,0,68.016,0,102.005,0
		c-0.664-5.949-1.284-11.497-1.87-16.735c-0.788-0.289-0.941-0.395-1.095-0.396c-31.426-0.072-62.852-0.173-94.277-0.072
		c-1.143,0.004-3.067,1.844-3.278,3.063C205.29,413.371,205.064,418.018,204.595,422.963z M157.522,405.956
		c-33.041,0-65.653,0-98.485,0c-0.586,5.841-1.14,11.362-1.714,17.085c34.181,0,67.802,0,101.862,0
		C158.629,417.317,158.103,411.916,157.522,405.956z M351.891,423.006c34.338,0,67.963,0,101.935,0
		c-0.625-5.896-1.212-11.437-1.802-17.009c-33.02,0-65.635,0-98.432,0C353.014,411.779,352.472,417.198,351.891,423.006z
		 M369.516,189.252c22.48,0,44.483,0,66.619,0c1.335-5.889,2.612-11.525,3.946-17.407c-24.904,0-49.441,0-74.45,0
		C366.946,177.737,368.199,183.35,369.516,189.252z M70.955,171.809c1.477,6.298,2.815,12.01,4.104,17.505
		c22.569,0,44.45,0,66.515,0c1.301-5.884,2.56-11.579,3.869-17.505C120.314,171.809,95.934,171.809,70.955,171.809z
		 M292.737,171.915c-24.937,0-49.435,0-74.376,0c1.168,5.291,2.104,10.335,3.507,15.246c0.298,1.045,2.29,2.278,3.51,2.287
		c20.1,0.142,40.2,0.142,60.3,0.002c1.23-0.009,3.246-1.211,3.542-2.247C290.625,182.293,291.561,177.248,292.737,171.915z"/>
	<path fill-rule="evenodd" clip-rule="evenodd" fill="#FFFFFF" d="M291.855,116.903c-0.467,19.969-17.021,35.997-36.742,35.573
		c-20.319-0.438-36.061-17.163-35.536-37.76c0.494-19.403,17.371-35.285,36.979-34.799
		C276.447,80.409,292.32,97.041,291.855,116.903z M276.675,115.994c-0.073-11.537-9.415-20.885-20.906-20.923
		c-11.594-0.039-21.229,9.667-21.137,21.292c0.091,11.43,9.548,20.835,21.012,20.894
		C267.349,137.318,276.751,127.813,276.675,115.994z"/>
</g>
<rect x="106.535" y="-24.914" transform="matrix(0.381 0.9246 -0.9246 0.381 131.5544 -64.6187)" fill="#FFFFFF" width="15" height="181.702"/>
<rect x="261.72" y="496.551" fill="#FFFFFF" width="181.703" height="15"/>
</svg>
