<svg id="Calque_1" data-name="Calque 1" xmlns="http://www.w3.org/2000/svg" viewBox="0 0 24 24"><title>ILLUSTRATOR_ICONS_MAIRIE</title><path d="M12.5,11.48h5.1a19,19,0,0,0-1.05-5.91H12.5Z"/><path d="M11.5.87c-1.45.25-2.76,1.63-3.7,3.68h3.7Z"/><path d="M6.33,11.48H11.5V5.57H7.38A18.7,18.7,0,0,0,6.33,11.48Z"/><path d="M17.26,4.55H20.9a11.45,11.45,0,0,0-6.7-4A8.62,8.62,0,0,1,17.26,4.55Z"/><path d="M7.38,18.45h4.11V12.5H6.32A19.24,19.24,0,0,0,7.38,18.45Z"/><path d="M17.64,5.57a20.09,20.09,0,0,1,1,5.91h4.9a11.7,11.7,0,0,0-1.87-5.91Z"/><path d="M21.62,18.45A11.76,11.76,0,0,0,23.5,12.5H18.6a20.37,20.37,0,0,1-1,5.95Z"/><path d="M12.5.88V4.55h3.63C15.2,2.53,13.92,1.16,12.5.88Z"/><path d="M5.32,12.5H.5a11.76,11.76,0,0,0,1.88,5.95H6.29A20.36,20.36,0,0,1,5.32,12.5Z"/><path d="M11.49,23.15V19.47H7.8C8.74,21.51,10.05,22.9,11.49,23.15Z"/><path d="M6.67,19.47H3.12a11.47,11.47,0,0,0,6.53,4A8.76,8.76,0,0,1,6.67,19.47Z"/><path d="M17.26,19.47a8.76,8.76,0,0,1-3,4,11.48,11.48,0,0,0,6.63-4Z"/><path d="M2.37,5.57h0A11.83,11.83,0,0,0,.5,11.48H5.32a20.41,20.41,0,0,1,1-5.91Z"/><path d="M16.13,19.47H12.49v3.67C13.92,22.86,15.2,21.49,16.13,19.47Z"/><path d="M17.6,12.5H12.5v5.95h4.05A19,19,0,0,0,17.6,12.5Z"/><path d="M6.67,4.55a8.65,8.65,0,0,1,3-4,11.55,11.55,0,0,0-6.6,4Z"/></svg>