<?xml version="1.0" encoding="utf-8"?>
<!-- Generator: Adobe Illustrator 24.2.1, SVG Export Plug-In . SVG Version: 6.00 Build 0)  -->
<svg version="1.1" id="Calque_1" xmlns="http://www.w3.org/2000/svg" xmlns:xlink="http://www.w3.org/1999/xlink" x="0px" y="0px"
	 viewBox="0 0 24 24" style="enable-background:new 0 0 24 24;" xml:space="preserve">
<style type="text/css">
	.st0{fill:#FFFFFF;}
</style>
<g>
	<path class="st0" d="M11.2,24.1c-0.8-0.3-1.5-0.6-2.3-0.9c-1.5-0.6-3.1-1.1-4.6-1.7c-0.4-0.2-0.6-0.4-0.6-0.9c0-0.4,0-0.8,0-1.2
		c0-0.1,0-0.2,0.2-0.2c1.3,0,2.2-0.9,2.2-2.3c0-0.6,0-1.1,0-1.7c0-1.3-0.9-2.2-2.2-2.2c-0.1,0-0.2,0-0.2-0.2c0-0.4,0-0.9,0-1.3
		c0-0.6,0.5-0.9,1-0.7c2.1,0.8,4.2,1.6,6.4,2.4c0.2,0.1,0.2,0.1,0.2,0.3C11.3,17.1,11.3,20.6,11.2,24.1
		C11.3,24.1,11.3,24.1,11.2,24.1z"/>
	<path class="st0" d="M12.7,24.1c0-3.5,0-7,0-10.5c0-0.2,0-0.2,0.2-0.3c2.1-0.8,4.2-1.6,6.3-2.4c0.6-0.2,1.1,0.1,1.1,0.7
		c0,0.4,0,0.8,0,1.3c0,0.1,0,0.2-0.2,0.2c-1.3,0-2.2,0.9-2.2,2.2c0,0.6,0,1.1,0,1.7c0,1.2,0.9,2.2,2.1,2.2c0.2,0,0.2,0.1,0.2,0.2
		c0,0.4,0,0.7,0,1.1c0,0.5-0.1,0.7-0.6,0.9c-2.2,0.8-4.4,1.7-6.7,2.5C12.9,24,12.8,24.1,12.7,24.1C12.7,24.1,12.7,24.1,12.7,24.1z"
		/>
	<path class="st0" d="M12.5,0c0.3,0.1,0.7,0.2,1,0.3c1.6,0.7,2.7,2.4,2.5,4.1c-0.2,1.9-1.6,3.3-3.3,3.6c-2.2,0.3-4.2-1.1-4.6-3.3
		C7.7,2.4,9.2,0.4,11.4,0c0,0,0.1,0,0.1,0C11.8,0,12.1,0,12.5,0z"/>
	<path class="st0" d="M6.5,10.1C7.3,9.4,8.1,8.9,9,8.6c0.1,0,0.2,0,0.2,0c1.9,1.1,3.7,1.1,5.6,0c0.1,0,0.1-0.1,0.2,0
		c0.9,0.4,1.7,0.9,2.5,1.5c-0.6,0.2-1.2,0.4-1.7,0.7c-1.2,0.4-2.3,0.9-3.5,1.3c-0.1,0-0.3,0.1-0.4,0c-1.7-0.7-3.5-1.3-5.2-2
		C6.6,10.1,6.6,10.1,6.5,10.1z"/>
	<path class="st0" d="M20.3,14.6c1,0,1.6,0.5,1.8,1.3c0.2,1-0.5,1.9-1.5,1.9c-0.2,0-0.4,0-0.6,0c-0.4,0-0.7-0.3-0.7-0.7
		c0-0.6,0-1.3,0-1.9c0-0.4,0.3-0.7,0.7-0.7C20.1,14.6,20.2,14.6,20.3,14.6z"/>
	<path class="st0" d="M4.7,16.2c0,0.3,0,0.6,0,0.9c0,0.4-0.3,0.7-0.7,0.7c-0.4,0-0.8,0-1.2-0.2c-0.7-0.3-1-1.1-0.9-1.8
		c0.2-0.7,0.8-1.3,1.6-1.3c0.2,0,0.3,0,0.5,0c0.4,0,0.7,0.3,0.7,0.7C4.7,15.6,4.7,15.9,4.7,16.2z"/>
</g>
</svg>
