<?xml version="1.0" encoding="utf-8"?>
<!-- Generator: Adobe Illustrator 24.2.0, SVG Export Plug-In . SVG Version: 6.00 Build 0)  -->
<svg version="1.1" id="Calque_1" xmlns="http://www.w3.org/2000/svg" xmlns:xlink="http://www.w3.org/1999/xlink" x="0px" y="0px"
	 viewBox="0 0 24 24" style="enable-background:new 0 0 24 24;" xml:space="preserve">
<style type="text/css">
	.st0{fill:#FFFFFF;}
</style>
<g>
	<path class="st0" d="M23.2,17.6C23.2,17.7,23.2,17.7,23.2,17.6c-0.5,0-0.9,0.2-1.2,0.2c-0.2,0-0.3,0.1-0.5-0.1
		c-0.1-0.1-0.2,0-0.2,0c-0.1,0.1-0.2,0.1-0.3,0.1c-0.7,0-1.3,0.2-2,0.2c-0.7,0-1.3-0.2-1.9-0.4c-0.1,0-0.1-0.1-0.1-0.2
		c0.1-0.9-0.1-1.8,0.1-2.7c0,0,0-0.1,0-0.1C17,14.5,17,14.2,17,14c0-0.6,0-1.2,0-1.8c0-0.4,0.1-0.8,0.1-1.1c-0.1-0.6,0-1.1,0-1.7
		c0-0.3-0.1-0.7,0.2-0.9c0,0,0.1-0.1,0-0.2c-0.2-0.2-0.1-0.3-0.1-0.5c0-0.2,0-0.4,0-0.6c0-0.1,0-0.1,0.1-0.2c-0.1,0-0.2-0.1-0.3,0
		c-0.3,0.1-0.3,0.3-0.2,0.5c0.1,0.1,0,0.3-0.1,0.3c-0.1,0.1-0.3,0-0.4,0c-0.1,0-0.1-0.2-0.1-0.3c0-0.2,0.1-0.3,0-0.5
		c-0.2-0.4-0.2-0.9-0.1-1.3c0-0.2,0-0.2-0.1-0.4c-0.3-0.3-0.3-0.8-0.2-1.1c0.1-0.3,0.1-0.7,0.1-1c0-0.3-0.1-0.6,0-0.8
		C16.3,2.2,15.9,2,15.9,2c-0.2,0-0.2-0.1-0.2-0.3c0-0.1-0.1-0.2-0.2-0.2c-0.1,0-0.2,0.1-0.1,0.2c0,0.2-0.1,0.3-0.1,0.5
		c-0.1,0.2-0.1,0.3-0.1,0.5c0.1,0.4,0.1,0.8,0.1,1.2c0,0.3-0.1,0.5-0.1,0.8c0,0.3,0,0.5-0.3,0.7c-0.1,0-0.1,0.1-0.1,0.2
		c0.2,0.7,0,1.4-0.3,2.1c0,0.1,0,0.1-0.3,0.1c-0.3,0-0.1-0.1-0.1-0.2c0-0.2,0-0.4-0.2-0.5c-0.1,0-0.3,0-0.3,0.1
		c0.1,0.3-0.1,0.6,0,0.8c0,0.2,0.1,0.3-0.1,0.5c-0.1,0,0,0.1,0,0.2c0.3,0.3,0.2,0.7,0.2,1.1c0,0.5-0.1,1-0.1,1.4c0,0.4,0,0.9,0,1.4
		c0,0.3-0.2,0.5-0.5,0.4c-0.3,0-0.1-0.3-0.1-0.4c0-0.1,0-0.2,0.1-0.3c0-0.3,0.1-0.5-0.1-0.7c-0.1-0.2-0.2-0.4-0.3-0.6
		c-0.1-0.3-0.3-0.6-0.6-0.8c-0.3-0.2-0.7-0.4-0.6-0.9c0,0,0,0-0.1,0c0,0.1-0.1,0.1-0.1,0.2c0.1,0.3-0.1,0.4-0.3,0.5
		c-0.5,0.3-0.8,0.7-1,1.2c0,0.2-0.1,0.4-0.3,0.5c-0.1,0.1-0.1,0.2-0.1,0.3c0,0.4,0.1,0.8,0,1.2c0,0.2-0.1,0.3-0.3,0.2
		c-0.4-0.1-0.6,0.1-0.7,0.4c-0.1,0.1-0.1,0.2-0.2,0.3c-0.1,0.1-0.1,0.2-0.1,0.5c0.1,0.3,0.1,0.7-0.1,1c0,0.1,0,0.1,0,0.2
		c0.2,0.5,0.2,0.6-0.4,0.6c-0.2,0-0.5,0-0.6,0c-0.3,0.2-0.6,0.3-1,0.5c-0.2,0.1-0.6,0-0.5,0.4c0,0-0.1,0-0.1,0.1
		c-0.1,0-0.2,0.1-0.1,0.1c0.1,0.3-0.2,0.3-0.3,0.3c-0.3,0-0.5,0.2-0.4,0.5c0,0.1,0,0.3-0.1,0.4c-0.1,0.1-0.3,0.3-0.1,0.5
		c-0.6,0.1-1.1,0.3-1.7,0.4c-0.2,0-0.4,0.1-0.5,0.1c-0.3-0.1-0.4,0.2-0.6,0.2c-0.1,0-0.2,0.3-0.2,0.4c0.1,0.3,0,0.5,0,0.8
		c-0.1-0.1-0.1-0.2-0.2-0.2c-0.2,0.1-0.3,0-0.4,0c0,0,0,0,0,0v1.6h22.1V17.6z"/>
</g>
<g>
	<path class="st0" d="M1.5,8c0.1-0.2,0.2-0.2,0.4-0.2c0.2,0,0.3,0,0.5,0c0.1,0,0.2,0.1,0.3,0.2c0,0.1,0,0.2-0.2,0.3c0,0-0.1,0-0.2,0
		c-0.1,0-0.3,0-0.4,0c-0.2,0-0.3,0-0.4-0.2C1.5,8.1,1.5,8,1.5,8z"/>
	<path class="st0" d="M5.7,3.9C5.9,4,5.9,4,5.9,4.2c0,0.2,0,0.3,0,0.5C5.9,4.9,5.8,5,5.7,5c-0.1,0-0.2,0-0.3-0.2c0,0,0-0.1,0-0.2
		c0-0.1,0-0.3,0-0.4c0-0.2,0-0.3,0.2-0.4C5.6,3.9,5.6,3.9,5.7,3.9z"/>
	<path class="st0" d="M5.6,10.6c-1.4,0-2.5-1.1-2.5-2.5c0-1.4,1.1-2.5,2.5-2.5c1.4,0,2.5,1.1,2.5,2.5C8.2,9.4,7,10.6,5.6,10.6z"/>
	<path class="st0" d="M9.2,7.8c0.1,0,0.2,0,0.3,0c0.2,0,0.3,0.1,0.3,0.3c0,0.2-0.1,0.3-0.3,0.3c-0.2,0-0.3,0-0.5,0
		C8.8,8.3,8.7,8.2,8.7,8c0-0.2,0.1-0.3,0.3-0.3C9.1,7.8,9.2,7.8,9.2,7.8z"/>
	<path class="st0" d="M5.4,11.7c0-0.1,0-0.2,0-0.3c0-0.2,0.1-0.3,0.3-0.3c0.2,0,0.3,0.1,0.3,0.3c0,0.2,0,0.3,0,0.5
		c0,0.2-0.1,0.3-0.3,0.3c-0.2,0-0.3-0.1-0.3-0.3C5.4,11.8,5.4,11.7,5.4,11.7z"/>
	<path class="st0" d="M3.9,5.4c-0.1,0-0.1,0-0.2-0.1C3.6,5.1,3.5,5,3.5,4.8c-0.1-0.1,0-0.3,0.1-0.4c0.1-0.1,0.3,0,0.4,0.1
		C4,4.7,4.1,4.9,4.2,5C4.3,5.2,4.2,5.4,3.9,5.4z"/>
	<path class="st0" d="M7.3,5.4C7.1,5.4,7,5.2,7.1,5.1c0.1-0.2,0.2-0.4,0.3-0.5c0.1-0.1,0.2-0.1,0.4-0.1c0.1,0.1,0.2,0.2,0.1,0.3
		C7.7,5,7.6,5.1,7.5,5.3C7.5,5.4,7.4,5.4,7.3,5.4z"/>
	<path class="st0" d="M2.3,5.8c0,0,0.1,0,0.1,0C2.6,6,2.7,6.1,2.9,6.1C3,6.2,3.1,6.4,3,6.5C2.9,6.6,2.7,6.7,2.6,6.6
		C2.4,6.5,2.3,6.4,2.1,6.3C2,6.3,2,6.1,2,6C2.1,5.9,2.2,5.8,2.3,5.8z"/>
	<path class="st0" d="M8.3,6.3c0-0.1,0-0.1,0.1-0.2C8.5,6.1,8.7,6,8.9,5.9C9,5.8,9.2,5.9,9.2,6c0.1,0.1,0,0.3-0.1,0.4
		C9,6.4,8.8,6.5,8.6,6.6C8.5,6.7,8.3,6.6,8.3,6.3z"/>
	<path class="st0" d="M2.3,10.3c-0.1,0-0.2-0.1-0.3-0.2C2,10,2,9.8,2.1,9.8c0.2-0.1,0.3-0.2,0.5-0.3c0.1-0.1,0.3,0,0.3,0.1
		C3,9.7,3,9.9,2.9,9.9c-0.2,0.1-0.3,0.2-0.5,0.3C2.4,10.3,2.3,10.3,2.3,10.3z"/>
	<path class="st0" d="M9,10.3c0,0-0.1,0-0.1,0c-0.1-0.1-0.3-0.2-0.4-0.3C8.3,9.9,8.2,9.7,8.3,9.6c0.1-0.1,0.2-0.2,0.4-0.1
		C8.8,9.6,9,9.7,9.1,9.8c0.1,0.1,0.2,0.2,0.1,0.3C9.2,10.2,9.1,10.3,9,10.3z"/>
	<path class="st0" d="M3.4,11.4c0,0,0-0.1,0-0.1c0.1-0.1,0.2-0.3,0.3-0.4c0.1-0.1,0.2-0.2,0.4-0.1c0.1,0.1,0.2,0.2,0.1,0.4
		c-0.1,0.2-0.2,0.3-0.3,0.5c-0.1,0.1-0.2,0.1-0.3,0.1C3.5,11.6,3.4,11.5,3.4,11.4z"/>
	<path class="st0" d="M7.3,10.7c0.1,0,0.2,0,0.2,0.1c0.1,0.2,0.2,0.3,0.3,0.5c0.1,0.1,0,0.3-0.1,0.4c-0.1,0.1-0.3,0-0.4-0.1
		c-0.1-0.2-0.2-0.3-0.3-0.5C7,10.9,7.1,10.7,7.3,10.7z"/>
</g>
</svg>
