<svg id="Calque_1" data-name="Calque 1" xmlns="http://www.w3.org/2000/svg" viewBox="0 0 24 24"><title>icons_</title><path d="M14.2,8.63A13.31,13.31,0,0,1,10.85.47,11.46,11.46,0,0,0,4.16,3.55l7.56,7.56Z"/><path d="M7.29,15.54a12.09,12.09,0,0,0-6.73-3,11.43,11.43,0,0,0,2.8,6.89Z"/><path d="M8.1,14.72l2.8-2.8L3.36,4.38a11.41,11.41,0,0,0-2.81,7A13.35,13.35,0,0,1,8.1,14.72Z"/><path d="M15.81,8.65A12.13,12.13,0,0,0,23.55,12v0A11.45,11.45,0,0,0,20.42,4Z"/><path d="M11.72,12.74,8.93,15.52a13.36,13.36,0,0,1,3.62,7.89,11.48,11.48,0,0,0,7-2.8Z"/><path d="M8.12,16.34l-4,4a11.39,11.39,0,0,0,7.23,3.1A12.18,12.18,0,0,0,8.12,16.34Z"/><path d="M15,7.82l4.58-4.58A11.48,11.48,0,0,0,12,.41h0A12.24,12.24,0,0,0,15,7.82Z"/><path d="M15,9.46l-2.47,2.46,7.89,7.89a11.48,11.48,0,0,0,3.07-6.7A13.29,13.29,0,0,1,15,9.46Z"/></svg>