<?xml version="1.0" encoding="utf-8"?>
<!-- Generator: Adobe Illustrator 16.0.0, SVG Export Plug-In . SVG Version: 6.00 Build 0)  -->
<!DOCTYPE svg PUBLIC "-//W3C//DTD SVG 1.1//EN" "http://www.w3.org/Graphics/SVG/1.1/DTD/svg11.dtd">
<svg version="1.1" id="Calque_1" xmlns="http://www.w3.org/2000/svg" xmlns:xlink="http://www.w3.org/1999/xlink" x="0px" y="0px"
	 width="1190.55px" height="841.891px" viewBox="0 0 1190.55 841.891" enable-background="new 0 0 1190.55 841.891"
	 xml:space="preserve">
<title>ILLUSTRATOR_ICONS_MAIRIE</title>
<g>
	<path fill-rule="evenodd" clip-rule="evenodd" fill="#FFFFFF" d="M641.808,6.77c0,32.181,0.107,64.363-0.113,96.544
		c-0.034,4.986,1.273,7.476,6.09,9.595c16.201,7.13,28.182,19.08,35.367,35.223c2.291,5.152,4.961,6.419,10.215,6.411
		c93.298-0.154,186.598-0.112,279.896-0.112c3.229,0,6.457,0,10.308,0c0,16.095,0,31.868,0,48.483c-19.758,0-39.612,0-60.519,0
		c1.439,3.797,2.4,6.54,3.506,9.226c34.279,83.398,68.422,166.853,103.053,250.104c4.416,10.616,3.052,20.688,1.146,30.93
		c-10.618,57.187-60.466,98.979-118.711,99.264c-22.951,0.112-46.123,0.861-68.82-1.833
		c-55.393-6.575-101.012-58.427-102.234-114.194c-0.087-3.879,0.948-8.029,2.428-11.659
		c34.427-84.502,68.989-168.948,103.511-253.412c0.991-2.426,1.819-4.915,2.919-7.907c-55.123,0-109.382,0-163.857,0
		c-7.926,19.821-21.334,34.266-41.026,42.739c-1.462,0.628-2.364,3.041-3.06,4.808c-0.463,1.171-0.098,2.668-0.098,4.021
		c0,110.609,0,221.214,0,331.822c0,2.67,0,5.338,0,7.98c50.043,13.146,81.656,43.931,95.008,94.501c-79.783,0-158.533,0-237.286,0
		c-0.084-36.362,38.818-75.942,93.598-94.694c0-2.694,0-5.63,0-8.564c0-110.065-0.052-220.131,0.141-330.197
		c0.01-6.203-1.511-9.349-7.509-12.023c-15.89-7.09-26.962-19.412-34.623-35.012c-1.16-2.363-4.156-5.446-6.317-5.458
		c-52.987-0.304-105.975-0.236-160.346-0.236c1.329,3.549,2.314,6.419,3.466,9.219C422.104,295.493,456.114,378.71,490.67,461.7
		c4.53,10.887,3.321,21.18,1.324,31.696c-10.87,57.306-60.542,98.751-118.9,99.065c-21.875,0.115-43.976,1.086-65.591-1.514
		c-53.79-6.466-95.209-47.748-103.921-101.056c-0.25-1.521-1-2.958-1.517-4.435c0-5.409,0-10.82,0-16.228
		c0.668-1.137,1.49-2.212,1.986-3.421c35.089-85.674,70.156-171.36,105.19-257.06c0.662-1.615,0.924-3.392,1.606-5.982
		c-20.399,0-40.018,0-59.457,0c0-16.522,0-32.295,0-48.335c3.877,0,7.115,0,10.35,0c93.288,0,186.578-0.044,279.865,0.116
		c5.285,0.008,7.893-1.327,10.175-6.447c7.199-16.145,19.242-28.058,35.411-35.182c4.916-2.164,6.067-4.706,6.037-9.617
		c-0.196-32.178-0.101-64.355-0.101-96.533C609.355,6.77,625.583,6.77,641.808,6.77z M433.158,446.213
		c-28.276-67.86-56.262-135.03-85.066-204.163c-28.903,69.407-56.845,136.507-85.019,204.163
		C320.201,446.213,376.069,446.213,433.158,446.213z M971.866,446.155c-28.337-68.007-56.259-135.02-85.04-204.094
		c-28.849,69.255-56.784,136.317-85.017,204.094C858.806,446.155,914.646,446.155,971.866,446.155z"/>
	<path fill-rule="evenodd" clip-rule="evenodd" fill="#FFFFFF" d="M398.407,837.576c0.435-12.945-0.427-26.093,1.559-38.795
		c5.347-34.204,34.899-59.877,69.463-60.008c98.693-0.37,197.388-0.427,296.078,0.017c38.846,0.176,70.022,32.233,70.941,71.208
		c0.219,9.188,0.063,18.387,0.079,27.578C690.489,837.576,544.449,837.576,398.407,837.576z"/>
</g>
</svg>
