<svg id="Calque_1" data-name="Calque 1" xmlns="http://www.w3.org/2000/svg" viewBox="0 0 24 24"><title>icons_</title><path d="M17.75,2.5c-2.87,0-2.87,2.81-5.74,2.81S9.13,2.5,6.25,2.5,3.37,5.31.5,5.31V11A3.3,3.3,0,0,0,3,9.73,4.24,4.24,0,0,1,6.25,8.19,4.22,4.22,0,0,1,9.46,9.73,3.34,3.34,0,0,0,12,11a3.32,3.32,0,0,0,2.54-1.27,4.11,4.11,0,0,1,6.41,0A3.32,3.32,0,0,0,23.5,11V5.31C20.63,5.31,20.63,2.5,17.75,2.5Z"/><path d="M17.75,9.17a3.32,3.32,0,0,0-2.54,1.27,4.11,4.11,0,0,1-6.41,0A3.32,3.32,0,0,0,6.25,9.17a3.3,3.3,0,0,0-2.54,1.27A4.24,4.24,0,0,1,.5,12v6.18A3.3,3.3,0,0,0,3,16.89a4.21,4.21,0,0,1,3.21-1.54,4.23,4.23,0,0,1,3.22,1.54A3.3,3.3,0,0,0,12,18.16a3.32,3.32,0,0,0,2.54-1.27,4.11,4.11,0,0,1,6.41,0,3.32,3.32,0,0,0,2.54,1.27V12a4.2,4.2,0,0,1-3.2-1.54A3.32,3.32,0,0,0,17.75,9.17Z"/><path d="M17.75,16.46a3.32,3.32,0,0,0-2.54,1.27,4.11,4.11,0,0,1-6.41,0,3.32,3.32,0,0,0-2.55-1.27,3.3,3.3,0,0,0-2.54,1.27A4.21,4.21,0,0,1,.5,19.27V23.5h23V19.27a4.2,4.2,0,0,1-3.2-1.54A3.32,3.32,0,0,0,17.75,16.46Z"/></svg>