<svg id="Calque_1" data-name="Calque 1" xmlns="http://www.w3.org/2000/svg" viewBox="0 0 30 30"><title>ILLUSTRATOR_ICONS_MAIRIE</title><path d="M2.64,22.73l-.54,0V6.16c-.5.09-1,.19-1.53.32V26.16A26.38,26.38,0,0,1,14,25.82C9.7,22.26,2.72,22.73,2.64,22.73Z"/><path d="M28,6.16V22.77l-.53,0c-.08,0-7.06-.47-11.32,3.09a26.33,26.33,0,0,1,13.38.34V6.48C29.05,6.35,28.55,6.25,28,6.16Z"/><path d="M3.1,4.22V21.69h.54C5.85,21.68,11,22,14.57,25V8.2c-.15-.15-.46-.44-.88-.78A14.94,14.94,0,0,0,3.1,4.22Z"/><path d="M27,21.69V4.22a14.93,14.93,0,0,0-10.58,3.2c-.42.34-.73.63-.89.78V25C19.48,21.76,25.25,21.64,27,21.69Z"/></svg>