<?xml version="1.0" encoding="utf-8"?>
<!-- Generator: Adobe Illustrator 23.1.0, SVG Export Plug-In . SVG Version: 6.00 Build 0)  -->
<svg version="1.1" id="Calque_1" xmlns="http://www.w3.org/2000/svg" xmlns:xlink="http://www.w3.org/1999/xlink" x="0px" y="0px"
	 viewBox="0 0 24 24" style="enable-background:new 0 0 24 24;" xml:space="preserve">
<g>
	<path d="M12.4,19.2c0-0.1,0-0.1,0-0.3c0-4,0-8,0-12c0-0.1,0-0.3,0.1-0.4c1-1.2,2.3-1.8,4-2c1.6-0.3,3.4-0.3,5,0
		c0.1,0,0.1,0.1,0.1,0.3c0,4.2,0,8.5,0,12.7c0,0.3-0.1,0.1-0.3,0.1c-1.6-0.1-3.1-0.1-4.7,0C15.2,17.8,13.9,18.3,12.4,19.2z"/>
	<path d="M11.4,19.2c-0.9-0.6-1.9-1-3.1-1.2c-1.5-0.3-3.1-0.4-4.7-0.3c-0.4,0-1,0.1-1.5,0.1c-0.1,0-0.1,0-0.1-0.1
		c0-4.2,0-8.6,0-12.9c0-0.1,0-0.1,0.1-0.1C4.7,4.1,7,4.1,9.2,5c0.9,0.3,1.6,0.9,2.2,1.5c0.1,0.1,0.1,0.1,0.1,0.3
		C11.4,11,11.4,15.1,11.4,19.2z"/>
	<path d="M8.8,19.2c-3.1-0.3-6,0.1-8.8,1.3c0-0.1,0-0.1,0-0.3C0,15.5,0,10.8,0,6c0-0.3,0-0.3,0.3-0.3s0.4,0,0.6,0
		c0.3,0,0.3,0.1,0.3,0.3c0,1.2,0,2.3,0,3.5c0,2.9,0,5.7,0,8.6c0,0.6,0.1,0.7,0.7,0.7c1.3-0.1,2.6-0.3,4-0.1
		C6.9,18.6,7.8,18.7,8.8,19.2C8.8,19,8.8,19,8.8,19.2L8.8,19.2z"/>
	<path d="M15.1,19.2c2.2-0.7,4.5-0.6,6.9-0.3c0.1,0,0.1,0,0.3,0c0.3,0,0.6-0.1,0.6-0.4c0-0.1,0-0.1,0-0.3c0-4.1,0-8,0-12.1
		c0-0.3,0-0.3,0.3-0.3c0.3,0,0.4,0,0.7,0c0.1,0,0.1,0,0.1,0.1c0,0.3,0,0.6,0,0.7c0,4.5,0,8.9,0,13.5c0,0.3,0,0.3-0.3,0.1
		c-2.5-1-5.1-1.3-7.8-1.3C15.7,19.2,15.4,19.2,15.1,19.2L15.1,19.2z"/>
</g>
</svg>
