<?xml version="1.0" encoding="utf-8"?>
<!-- Generator: Adobe Illustrator 24.2.1, SVG Export Plug-In . SVG Version: 6.00 Build 0)  -->
<svg version="1.1" id="Calque_1" xmlns="http://www.w3.org/2000/svg" xmlns:xlink="http://www.w3.org/1999/xlink" x="0px" y="0px"
	 viewBox="0 0 30 30" style="enable-background:new 0 0 30 30;" xml:space="preserve">
<style type="text/css">
	.st0{fill-rule:evenodd;clip-rule:evenodd;}
	.st1{clip-path:url(#SVGID_2_);}
	.st2{fill-rule:evenodd;clip-rule:evenodd;fill:none;}
	.st3{clip-path:url(#SVGID_4_);enable-background:new    ;}
	.st4{clip-path:url(#SVGID_6_);}
	.st5{clip-path:url(#SVGID_8_);}
	.st6{clip-path:url(#SVGID_10_);}
	.st7{clip-path:url(#SVGID_12_);}
	.st8{fill:#FFFFFF;}
</style>
<path d="M-426.01,78.5c-0.27,0-0.53-0.17-0.63-0.43l-3.23-8.15l-4.08,2.56c-0.23,0.15-0.52,0.14-0.74-0.01
	c-0.22-0.15-0.34-0.42-0.29-0.69l2.81-15.71c0.04-0.25,0.22-0.45,0.46-0.53c0.24-0.08,0.5-0.02,0.68,0.15l11.83,11.04
	c0.2,0.19,0.27,0.48,0.18,0.75c-0.1,0.26-0.34,0.44-0.62,0.45l-4.75,0.15l3.03,8.1c0.06,0.17,0.06,0.37-0.02,0.53
	c-0.08,0.17-0.22,0.3-0.39,0.36l-3.99,1.4C-425.86,78.49-425.94,78.5-426.01,78.5z M-429.55,68.21c0.07,0,0.14,0.01,0.21,0.03
	c0.19,0.06,0.35,0.21,0.42,0.4l3.29,8.3l2.71-0.95l-3.12-8.34c-0.08-0.21-0.05-0.44,0.07-0.62c0.12-0.19,0.33-0.3,0.55-0.31
	l4.04-0.13l-9.69-9.05l-2.31,12.95l3.47-2.18C-429.8,68.25-429.67,68.21-429.55,68.21z"/>
<path d="M-916,55.5c-6.34,0-11.5,5.16-11.5,11.5s5.16,11.5,11.5,11.5s11.5-5.16,11.5-11.5S-909.66,55.5-916,55.5z M-926.15,67.65
	h3.68c0.06,1.87,0.35,3.61,0.83,5.12h-2.75C-925.39,71.3-926.03,69.54-926.15,67.65z M-915.34,59.92l0-2.96
	c1.13,0.32,2.16,1.39,2.94,2.96H-915.34z M-911.85,61.24c0.52,1.47,0.86,3.22,0.92,5.09h-4.42l0-5.09H-911.85z M-916.66,56.94
	l0,2.98h-3.01C-918.87,58.32-917.82,57.24-916.66,56.94z M-916.66,61.24l0,5.09h-4.48c0.07-1.87,0.4-3.61,0.92-5.09H-916.66z
	 M-922.46,66.33h-3.68c0.12-1.88,0.75-3.62,1.76-5.09h2.76C-922.11,62.75-922.4,64.47-922.46,66.33z M-921.14,67.65h4.48l0,5.12
	h-3.56C-920.75,71.29-921.08,69.53-921.14,67.65z M-916.67,74.09l0,2.98c-1.16-0.3-2.21-1.39-3-2.98H-916.67z M-915.35,77.06l0-2.96
	h2.94C-913.18,75.66-914.21,76.74-915.35,77.06z M-915.35,72.77l0-5.12h4.42c-0.06,1.88-0.39,3.64-0.92,5.12H-915.35z M-909.6,67.65
	h3.75c-0.12,1.89-0.75,3.65-1.77,5.12h-2.81C-909.95,71.26-909.66,69.52-909.6,67.65z M-909.61,66.33
	c-0.06-1.86-0.35-3.58-0.83-5.09h2.83c1.01,1.47,1.64,3.21,1.76,5.09H-909.61z M-908.7,59.92h-2.24c-0.41-0.94-0.89-1.76-1.45-2.43
	C-910.98,58.03-909.73,58.86-908.7,59.92z M-919.71,57.53c-0.54,0.66-1.02,1.47-1.42,2.39h-2.17
	C-922.3,58.89-921.08,58.07-919.71,57.53z M-923.29,74.09h2.15c0.4,0.91,0.87,1.71,1.41,2.37
	C-921.08,75.93-922.29,75.12-923.29,74.09z M-912.37,76.5c0.55-0.66,1.03-1.48,1.43-2.41h2.22
	C-909.73,75.14-910.98,75.96-912.37,76.5z"/>
<path d="M-873.26,64.87l-3.29-4.77c-0.12-0.18-0.33-0.28-0.55-0.28h-3.22c-0.32,0-0.59,0.22-0.65,0.52l-0.31,1.59h-3.45l-0.31-1.59
	c-0.06-0.3-0.33-0.52-0.65-0.52h-3.22c-0.22,0-0.43,0.11-0.55,0.28l-3.29,4.77c-1.08,0.98-1.76,2.38-1.76,3.93
	c0,2.97,2.49,5.39,5.55,5.39c3.06,0,5.55-2.42,5.55-5.39c0-0.66-0.13-1.29-0.35-1.88l-0.02-0.09h1.54l-0.02,0.09
	c-0.22,0.59-0.35,1.22-0.35,1.88c0,2.97,2.49,5.39,5.55,5.39c3.06,0,5.55-2.42,5.55-5.39C-871.5,67.25-872.18,65.85-873.26,64.87z
	 M-877.46,61.09l1.7,2.47c-0.42-0.1-0.85-0.15-1.3-0.15c-1.28,0-2.45,0.43-3.39,1.13l0.67-3.45H-877.46z M-888.54,61.09h2.32
	l0.67,3.45c-0.94-0.71-2.11-1.13-3.39-1.13c-0.45,0-0.88,0.06-1.3,0.15L-888.54,61.09z M-888.95,72.91c-2.33,0-4.23-1.84-4.23-4.11
	c0-2.26,1.9-4.11,4.23-4.11s4.23,1.84,4.23,4.11C-884.72,71.06-886.62,72.91-888.95,72.91z M-884.02,65.55l-0.46-2.35h2.95
	l-0.46,2.35H-884.02z M-877.05,72.91c-2.33,0-4.23-1.84-4.23-4.11c0-2.26,1.9-4.11,4.23-4.11s4.23,1.84,4.23,4.11
	C-872.82,71.06-874.72,72.91-877.05,72.91z"/>
<g>
	<path d="M-838.16,56.46h-17.31c-0.36,0-0.66,0.3-0.66,0.67v5.44h-3.71c-0.36,0-0.66,0.3-0.66,0.67v11.46c0,0.03,0,0.05,0,0.08
		c0.08,1.53,1.33,2.75,2.84,2.75c0,0,0.01,0,0.02,0h17.28c1.58,0,2.86-1.31,2.86-2.92V57.13C-837.5,56.76-837.8,56.46-838.16,56.46z
		 M-856.13,74.62c0,0.87-0.68,1.57-1.52,1.57c-0.84,0-1.53-0.71-1.53-1.57v-10.7h3.05V74.62z M-838.82,74.62
		c0,0.87-0.69,1.57-1.54,1.57h-14.9c0.28-0.45,0.45-0.99,0.45-1.57V57.81h15.99V74.62z"/>
	<rect x="-852.52" y="70.61" width="11.17" height="1.35"/>
	<rect x="-852.52" y="62.69" width="11.17" height="1.35"/>
	<rect x="-852.59" y="66.65" width="11.3" height="1.35"/>
</g>
<g>
	<path d="M-804.41,62.17c-1.87,0.73-3.82,1.11-5.84,1.15c0-0.09,0.01-0.18,0.01-0.28v-6.87c0-0.45-0.49-0.77-0.91-0.61
		c-4.01,1.57-8.43,1.57-12.45,0c-0.2-0.08-0.44-0.06-0.62,0.07c-0.18,0.12-0.29,0.33-0.29,0.54l0,6.87c0,4.19,2.87,7.81,6.98,8.8
		c0.03,0.01,0.07,0.01,0.1,0.01c0.82,3.21,3.35,5.76,6.65,6.55c0.05,0.01,0.1,0.02,0.16,0.02c0.05,0,0.11-0.01,0.16-0.02
		c4.1-0.99,6.96-4.6,6.96-8.78v-6.85C-803.5,62.33-804,62-804.41,62.17z M-823.17,63.04l0-5.93c3.77,1.26,7.83,1.26,11.61,0v5.93
		c0,0.27-0.02,0.54-0.05,0.8c-0.01,0.03-0.02,0.05-0.02,0.08c-0.17,1.53-0.78,2.92-1.73,4.06c-0.02,0.02-0.04,0.04-0.06,0.07
		c-0.22,0.26-0.46,0.5-0.71,0.73c-0.04,0.03-0.07,0.06-0.11,0.1c-0.25,0.22-0.51,0.42-0.79,0.61c-0.04,0.03-0.09,0.05-0.13,0.08
		c-0.24,0.15-0.48,0.29-0.74,0.41c-0.08,0.04-0.15,0.08-0.23,0.12c-0.26,0.12-0.53,0.22-0.8,0.31c-0.15,0.05-0.29,0.1-0.44,0.14
		C-820.79,69.62-823.17,66.57-823.17,63.04z M-804.83,69.63c0,3.52-2.37,6.57-5.79,7.46c-2.75-0.72-4.87-2.86-5.55-5.56
		c0.08-0.03,0.14-0.07,0.22-0.1c0.24-0.09,0.47-0.2,0.69-0.31c0.09-0.04,0.17-0.08,0.26-0.13c0.28-0.15,0.55-0.32,0.81-0.49
		c0.08-0.05,0.15-0.11,0.23-0.16c0.28-0.2,0.55-0.41,0.8-0.64c0.01-0.01,0.02-0.02,0.02-0.02c0.26-0.24,0.51-0.5,0.74-0.77
		c0.02-0.03,0.05-0.05,0.07-0.08c0.99-1.18,1.67-2.61,1.95-4.16c1.9-0.02,3.76-0.34,5.55-0.93V69.63z"/>
	<path d="M-810.62,71.84c-1.39,0-2.62,0.83-3.12,2.11c-0.13,0.34,0.03,0.72,0.38,0.85c0.08,0.03,0.16,0.05,0.24,0.05
		c0.26,0,0.52-0.16,0.62-0.42c0.31-0.77,1.05-1.27,1.89-1.27c0.83,0,1.59,0.51,1.89,1.27c0.13,0.34,0.52,0.5,0.86,0.37
		c0.34-0.13,0.51-0.51,0.37-0.85C-808,72.67-809.23,71.84-810.62,71.84z"/>
	<path d="M-808.55,68.45h1.28c0.37,0,0.66-0.29,0.66-0.66c0-0.36-0.3-0.66-0.66-0.66h-1.28c-0.37,0-0.66,0.29-0.66,0.66
		C-809.22,68.16-808.92,68.45-808.55,68.45z"/>
	<path d="M-814.24,66.05c0.13-0.34-0.04-0.72-0.38-0.85c-0.34-0.13-0.73,0.03-0.86,0.37c-0.31,0.78-1.05,1.28-1.89,1.28
		c-0.84,0-1.59-0.5-1.89-1.28c-0.13-0.34-0.52-0.5-0.86-0.37c-0.34,0.13-0.51,0.51-0.38,0.85c0.51,1.29,1.73,2.12,3.13,2.12
		C-815.97,68.17-814.75,67.34-814.24,66.05z"/>
	<path d="M-818.77,61.1c0-0.36-0.3-0.66-0.66-0.66h-1.28c-0.37,0-0.66,0.29-0.66,0.66c0,0.36,0.3,0.66,0.66,0.66h1.28
		C-819.07,61.75-818.77,61.46-818.77,61.1z"/>
	<path d="M-815.3,61.75h1.28c0.37,0,0.66-0.29,0.66-0.66c0-0.36-0.3-0.66-0.66-0.66h-1.28c-0.37,0-0.66,0.29-0.66,0.66
		C-815.96,61.46-815.67,61.75-815.3,61.75z"/>
</g>
<path d="M-768.19,62.44l-3.75-0.1c-1.1-0.02-2.11,0.38-2.9,1.15c-0.78,0.77-1.23,1.8-1.26,2.9l-0.02,0.71
	c-0.66,0.22-1.21,0.64-1.66,1.23c-0.16-1.78-0.53-3.4-1.35-4.53c0-0.02,0.01-0.03,0.01-0.04v-1.68c0-3.07-2.43-5.57-5.41-5.57h-5.27
	c-0.36,0-0.66,0.3-0.66,0.66v1.67c0,3.07,2.43,5.57,5.41,5.57h4.73c1.14,1.36,1.32,4.03,1.36,6.73c-3.45,0.29-6.16,2.74-6.16,5.7
	c0,0.36,0.29,0.66,0.66,0.66h12.39c0.36,0,0.66-0.3,0.66-0.66c0-2.95-2.67-5.38-6.1-5.69c0.24-1.61,0.99-2.67,2.06-2.88
	c0,0,0,0,0.01,0l3.71,0.1c0.04,0,0.08,0,0.11,0c1.02,0,1.99-0.39,2.74-1.11c0.81-0.77,1.27-1.82,1.3-2.95l0.03-1.19
	C-767.54,62.75-767.82,62.45-768.19,62.44z M-789.14,58.83v-1.02h4.61c2.26,0,4.1,1.91,4.1,4.26v1.02h-4.61
	C-787.3,63.09-789.14,61.18-789.14,58.83z M-772.78,76.18h-10.95c0.4-2.12,2.7-3.75,5.48-3.75
	C-775.48,72.43-773.18,74.06-772.78,76.18z M-768.89,64.27c-0.02,0.78-0.34,1.5-0.89,2.03c-0.53,0.5-1.23,0.77-1.92,0.74l-3.1-0.08
	l0.01-0.54c0.02-0.76,0.33-1.47,0.86-2c0.53-0.52,1.22-0.81,1.95-0.77l3.1,0.08L-768.89,64.27z"/>
<path d="M-732.81,71.47v-1.12c0-3.22-1.53-6.14-3.99-8v-0.01h-0.01c-1.08-0.82-2.34-1.44-3.73-1.78v-1.13
	c0-0.13-0.11-0.23-0.24-0.23h-4.53c-0.13,0-0.24,0.1-0.24,0.23v1.07c-1.38,0.36-2.65,0.99-3.73,1.84h0v0c-2.44,1.9-3.99,4.85-3.99,8
	v1.15c-0.72,0.3-1.23,1.05-1.23,1.93c0,1.14,0.85,2.07,1.9,2.07h19.2c1.05,0,1.9-0.93,1.9-2.07
	C-731.5,72.51-732.05,71.74-732.81,71.47z M-744.2,60.57h2.31v6.34c0,0.5-0.48,0.91-1.04,0.91h-0.23c-0.56,0-1.04-0.42-1.04-0.91
	V60.57z M-749.28,64.16v5.01h1.35v-6.12c0.73-0.49,1.53-0.87,2.39-1.12v4.98c0,1.25,1.08,2.28,2.39,2.28h0.23
	c1.31,0,2.39-1.03,2.39-2.28v-4.92c0.86,0.25,1.67,0.61,2.39,1.08v6.1h1.35v-5.02c1.64,1.6,2.64,3.8,2.64,6.21v1.01h-2.61
	c-0.38,0-0.77-0.03-1.11-0.09l-3.67-0.83c-1.04-0.18-2.11-0.18-3.19,0.02l-3.34,0.8c-0.39,0.07-0.79,0.11-1.19,0.11h-2.64v-1.01
	C-751.93,68-750.92,65.78-749.28,64.16z M-733.4,74.13h-19.2c-0.3,0-0.55-0.32-0.55-0.7c0-0.38,0.25-0.7,0.55-0.7h3.31
	c0.48,0,0.96-0.04,1.47-0.13l3.34-0.8c0.9-0.16,1.8-0.16,2.66-0.02l3.67,0.83c0.45,0.08,0.91,0.12,1.37,0.12h3.37
	c0.3,0,0.55,0.32,0.55,0.7C-732.85,73.81-733.1,74.13-733.4,74.13z"/>
<path d="M-632.5,67c0-6.35-5.15-11.5-11.5-11.5c-6.16,0-11.17,4.84-11.47,10.93c-0.01,0-0.02,0-0.03,0v1.15c0.01,0,0.02,0,0.03,0
	c0.29,5.89,5,10.6,10.89,10.89c0,0.01,0,0.02,0,0.03h0.57c0,0,0,0,0.01,0s0,0,0.01,0h0.57c0-0.01,0-0.02,0-0.03
	C-637.34,78.17-632.5,73.16-632.5,67z M-633.65,66.98c-2.65-0.14-5.05-1.22-6.87-2.92l4.09-4.09
	C-634.72,61.8-633.66,64.27-633.65,66.98z M-637.26,59.16l-4.06,4.06c-1.54-1.78-2.52-4.06-2.65-6.57
	C-641.41,56.66-639.07,57.61-637.26,59.16z M-645.12,56.72c0.15,2.8,1.24,5.34,2.98,7.32l-2.15,2.15l-6.75-6.75
	C-649.45,57.96-647.4,56.96-645.12,56.72z M-651.84,60.27l6.74,6.73l-2.44,2.44c-1.85-1.63-4.19-2.7-6.78-2.95
	C-654.2,64.11-653.29,61.95-651.84,60.27z M-654.32,67.64c2.27,0.25,4.32,1.19,5.96,2.61l-3.48,3.48
	C-653.27,72.08-654.17,69.96-654.32,67.64z M-651.04,74.56l3.51-3.51c1.57,1.68,2.63,3.85,2.89,6.26
	C-647.11,77.16-649.34,76.15-651.04,74.56z M-643.48,77.32c-0.27-2.73-1.45-5.19-3.23-7.08l2.42-2.42l7.03,7.03
	C-638.95,76.29-641.11,77.21-643.48,77.32z M-643.48,67l2.14-2.14c2.02,1.9,4.68,3.11,7.63,3.26c-0.25,2.28-1.24,4.33-2.72,5.92
	L-643.48,67z"/>
<g>
	<path d="M-31.04-17.75l4.07,4.07c0.86-0.92,1.43-2.1,1.57-3.42c-1.7-0.09-3.24-0.79-4.41-1.88L-31.04-17.75z"/>
	<path d="M-32.91-15.88c1.03,1.09,1.72,2.51,1.87,4.09c1.37-0.07,2.62-0.59,3.6-1.43l-4.06-4.06L-32.91-15.88z"/>
	<path d="M-25.35-17.77c0-1.57-0.62-2.99-1.61-4.05l-2.37,2.36C-28.28-18.47-26.89-17.85-25.35-17.77z"/>
	<path d="M-27.44-22.28c-1.04-0.9-2.4-1.44-3.88-1.45c0.08,1.45,0.64,2.77,1.53,3.79L-27.44-22.28z"/>
	<path d="M-37.31-17.38c0.08,1.34,0.61,2.56,1.43,3.52l2.01-2.01C-34.81-16.69-36-17.24-37.31-17.38z"/>
	<path d="M-35.41-13.39c0.98,0.92,2.27,1.5,3.7,1.59c-0.15-1.39-0.76-2.65-1.67-3.62L-35.41-13.39z"/>
	<path d="M-38.96-32.95c0.55-0.07,1.12-0.04,1.68-0.05c5,0,10,0,15,0c0.6,0,1.2,0,1.93,0c-0.05-0.68-0.08-1.14-0.11-1.69
		c-6.42,0-12.7-0.04-18.99,0.03c-1.85,0.02-3.03,1.41-3.04,3.37c-0.03,7.29-0.03,14.59,0,21.88c0.01,2.53,1.23,3.7,3.77,3.7
		c5.68,0.02,11.35,0.01,17.03,0c0.43,0,0.85-0.09,1.28-0.14c0-7.86,0-15.58,0-23.5c-0.83,0-1.44,0-2.06,0c-5,0-10,0-15,0
		c-0.51,0-1.02,0.03-1.52-0.04c-0.85-0.11-1.55-0.91-1.58-1.71C-40.61-31.97-39.89-32.83-38.96-32.95z M-37.99-18.09
		c0.01,0,0.01,0,0.02,0c0.17-3.51,3.07-6.31,6.64-6.31c3.67,0,6.65,2.97,6.65,6.64c0,3.56-2.8,6.45-6.32,6.62c0,0.01,0,0.01,0,0.02
		h-0.33c0,0,0,0,0,0c0,0,0,0,0,0h-0.33c0-0.01,0-0.01,0-0.02c-3.41-0.17-6.13-2.89-6.3-6.29c-0.01,0-0.01,0-0.02,0V-18.09z"/>
	<path d="M-30.27-19.46c-1.01-1.14-1.64-2.61-1.73-4.23c-1.32,0.14-2.5,0.72-3.42,1.57l3.9,3.9L-30.27-19.46z"/>
	<path d="M-31.98-17.75l-3.9-3.89c-0.84,0.98-1.37,2.22-1.44,3.59c1.5,0.15,2.85,0.77,3.92,1.71L-31.98-17.75z"/>
	<path d="M-18.7-16.27c0,1.46,0,2.93,0,4.39c1.72,0.16,2.04-0.06,2.17-1.49c0.04-0.44,0.04-0.89,0.01-1.33
		C-16.6-16.24-16.98-16.53-18.7-16.27z"/>
	<path d="M-18.71-10.25c0,1.41,0,2.84,0,4.38c1.77,0.12,2.06-0.1,2.17-1.58c0.04-0.5,0.01-1-0.03-1.5
		C-16.69-10.36-17.06-10.59-18.71-10.25z"/>
	<path d="M-16.52-19.56c0.03-0.39,0.03-0.78,0-1.16c-0.11-1.49-0.36-1.7-2.17-1.71c-0.18,1.5-0.13,3.02-0.02,4.53
		C-16.94-17.76-16.65-17.98-16.52-19.56z"/>
	<path d="M-16.61-25.45c0.02-0.44,0.02-0.89,0-1.34c-0.05-1.52-0.29-1.72-2.09-1.62c0,1.55,0,2.98,0,4.4
		C-16.94-23.78-16.69-23.96-16.61-25.45z"/>
</g>
<path d="M-665.91,64.94l-0.1-0.11c-0.59-0.67-1.39-1.18-3.23-0.42c-1.39,0.57-2.8,1.17-3.47,1.46c-0.42-0.43-1.01-0.53-1.44-0.53
	h-2.21c-0.41-0.44-1.41-1.44-2.66-2.09c-1.09-0.56-2.45-0.72-3.28-0.77v-1.22c0-0.78-0.62-1.41-1.38-1.41h-3.43
	c-0.76,0-1.38,0.63-1.38,1.41v11.55c0,0.78,0.62,1.41,1.38,1.41h3.43c0.76,0,1.38-0.63,1.38-1.41v-1.55
	c1.07,0.36,3.23,1.08,4.38,1.37l0.55,0.15c0.62,0.17,1.17,0.32,1.77,0.32c0.56,0,1.17-0.13,1.92-0.52c1.6-0.82,5.86-3.61,6.93-4.35
	c0.72-0.49,1.18-1.21,1.25-1.97C-665.46,65.75-665.61,65.25-665.91,64.94z M-683.54,72.82c0,0.08-0.07,0.16-0.15,0.16h-3.43
	c-0.08,0-0.15-0.07-0.15-0.16V61.27c0-0.08,0.07-0.16,0.15-0.16h3.43c0.08,0,0.15,0.07,0.15,0.16V72.82z M-667.45,67.21
	c-1.17,0.8-5.31,3.51-6.8,4.27c-1.12,0.57-1.68,0.42-2.81,0.11c-0.18-0.05-0.37-0.1-0.57-0.15c-1.26-0.32-3.9-1.21-4.68-1.48v-6.21
	c0.73,0.05,1.87,0.19,2.73,0.63c1.39,0.71,2.47,1.99,2.48,2l0.18,0.22h2.76c0.69,0,0.72,0.27,0.72,0.74c0,0.41,0,0.55-0.53,0.55
	h-5.34v1.26h5.34c0.8,0,1.76-0.31,1.76-1.8c0-0.12-0.02-0.21-0.03-0.32c0.67-0.29,2.08-0.88,3.46-1.45c1.3-0.53,1.57-0.23,1.86,0.09
	c0.05,0.06,0.1,0.11,0.14,0.16c0.02,0.02,0.08,0.15,0.04,0.39C-666.77,66.42-666.91,66.84-667.45,67.21z"/>
<path d="M-701.88,66.93c0-0.04-0.01-0.08-0.01-0.11c0-0.03,0-0.05-0.01-0.09c-0.24-2.01-1.94-3.53-3.94-3.53h-1
	c0.86-0.85,1.34-2,1.34-3.19c0-2.49-2.02-4.51-4.49-4.51c-2.48,0-4.49,2.02-4.49,4.51c0,1.19,0.49,2.34,1.34,3.19h-1
	c-2.2,0-3.99,1.8-3.99,4.01v10.63c0,0.36,0.3,0.66,0.66,0.66h14.97c0.36,0,0.66-0.3,0.66-0.66V67.21
	C-701.85,67.11-701.87,67.02-701.88,66.93z M-713.17,60.01c0-1.76,1.42-3.19,3.17-3.19c1.75,0,3.17,1.43,3.17,3.19
	c0,1.76-1.42,3.19-3.17,3.19C-711.75,63.2-713.17,61.77-713.17,60.01z M-703.18,68.31v8.87h-9.23L-703.18,68.31z M-703.26,66.55
	l-11.06,10.62h-2.51v-0.86l12.05-11.56C-704.02,65.09-703.46,65.75-703.26,66.55z M-716.82,74.48v-7.28c0-1.48,1.2-2.69,2.67-2.69
	h7.71L-716.82,74.48z"/>
<g>
	<path d="M-599.9,60.15h-6.36v-2.1c0-0.54-0.44-0.99-0.98-0.99h-5.61c-0.54,0-0.98,0.44-0.98,0.99v2.1h-6.36
		c-0.75,0-1.36,0.62-1.36,1.38v14.29c0,0.76,0.61,1.38,1.36,1.38h20.29c0.75,0,1.36-0.62,1.36-1.38V61.53
		C-598.55,60.77-599.15,60.15-599.9,60.15z M-603.26,61.52v14.33l-13.58-0.03V61.49L-603.26,61.52z M-612.5,58.4h4.91v1.75h-4.91
		V58.4z M-620.22,75.81l0.03-14.33l2.03,0v14.33L-620.22,75.81z M-599.87,75.81l-0.03,0.04l-2.03,0V61.52l2.06,0V75.81z"/>
	<path d="M-612.83,70.6h0.87v0.87c0,0.79,0.61,1.43,1.35,1.43h1.12c0.75,0,1.35-0.64,1.35-1.43V70.6h0.87
		c0.78,0,1.42-0.61,1.42-1.36V68.1c0-0.75-0.64-1.36-1.42-1.36h-0.87v-0.87c0-0.79-0.61-1.43-1.35-1.43h-1.12
		c-0.75,0-1.35,0.64-1.35,1.43v0.87h-0.87c-0.78,0-1.42,0.61-1.42,1.36v1.13C-614.25,69.98-613.61,70.6-612.83,70.6z M-612.83,68.08
		h1.53c0.37,0,0.66-0.3,0.66-0.67v-1.54c0-0.06,0.03-0.09,0.03-0.09l1.12,0c0.01,0,0.04,0.04,0.04,0.1v1.54
		c0,0.37,0.3,0.67,0.66,0.67h1.53c0.06,0,0.09,0.03,0.09,0.03l0,1.12c-0.01,0.01-0.04,0.04-0.1,0.04h-1.53
		c-0.37,0-0.66,0.3-0.66,0.67v1.54c0,0.06-0.03,0.09-0.03,0.09l-1.11,0c-0.01,0-0.04-0.04-0.04-0.1v-1.54c0-0.37-0.3-0.67-0.66-0.67
		h-1.53c-0.06,0-0.09-0.03-0.09-0.03l0-1.12C-612.92,68.1-612.89,68.08-612.83,68.08z"/>
</g>
<g>
	<path d="M-574,72.39c-1.13,0-2.06,0.94-2.06,2.09c0,1.16,0.92,2.1,2.06,2.1s2.06-0.94,2.06-2.1
		C-571.94,73.33-572.87,72.39-574,72.39z"/>
	<path d="M-562.66,62.92c-2.79-3.5-6.92-5.5-11.34-5.5c-4.42,0-8.56,2.01-11.34,5.5c-0.25,0.31-0.2,0.77,0.1,1.02
		c0.13,0.11,0.29,0.16,0.45,0.16c0.21,0,0.41-0.09,0.55-0.27c2.51-3.16,6.24-4.97,10.23-4.97c3.99,0,7.72,1.81,10.23,4.97
		c0.25,0.31,0.7,0.36,1,0.11C-562.46,63.69-562.41,63.23-562.66,62.92z"/>
	<path d="M-574,62.67c-3.24,0-6.24,1.64-8.03,4.39c-0.22,0.33-0.13,0.78,0.2,1.01c0.33,0.22,0.77,0.13,0.99-0.2
		c1.52-2.34,4.08-3.74,6.84-3.74c2.76,0,5.32,1.4,6.84,3.74c0.14,0.21,0.36,0.33,0.59,0.33c0.14,0,0.27-0.04,0.39-0.12
		c0.33-0.22,0.42-0.67,0.2-1.01C-567.76,64.32-570.76,62.67-574,62.67z"/>
	<path d="M-574,67.94c-2,0-3.85,1.01-4.96,2.72c-0.22,0.33-0.13,0.78,0.2,1.01c0.12,0.08,0.26,0.12,0.39,0.12
		c0.23,0,0.46-0.11,0.59-0.33c0.84-1.29,2.25-2.07,3.77-2.07c1.52,0,2.93,0.77,3.77,2.07c0.22,0.34,0.66,0.42,0.99,0.2
		c0.33-0.22,0.42-0.67,0.2-1.01C-570.15,68.96-572,67.94-574,67.94z"/>
</g>
<g>
	<path d="M-494.25,71.85c-1.71,0-2.57,0.84-3.34,1.57c-0.69,0.67-1.24,1.2-2.41,1.2c-1.17,0-1.72-0.53-2.41-1.2
		c-0.77-0.74-1.63-1.57-3.35-1.57c-1.71,0-2.58,0.84-3.34,1.57c-0.69,0.67-1.24,1.2-2.41,1.2v1.35c1.71,0,2.57-0.83,3.34-1.57
		c0.7-0.67,1.24-1.2,2.41-1.2c1.17,0,1.72,0.53,2.42,1.2c0.77,0.74,1.63,1.57,3.34,1.57c1.71,0,2.57-0.84,3.34-1.57
		c0.69-0.67,1.24-1.2,2.41-1.2c1.17,0,1.72,0.53,2.41,1.2c0.76,0.74,1.63,1.57,3.34,1.57v-1.35c-1.17,0-1.71-0.53-2.41-1.2
		C-491.67,72.69-492.54,71.85-494.25,71.85z"/>
	<path d="M-494.25,64.81c-1.71,0-2.57,0.84-3.34,1.57c-0.69,0.67-1.24,1.2-2.41,1.2c-1.17,0-1.72-0.53-2.41-1.2
		c-0.77-0.74-1.63-1.57-3.35-1.57c-1.71,0-2.58,0.84-3.34,1.57c-0.69,0.67-1.24,1.2-2.41,1.2v1.35c1.71,0,2.57-0.83,3.34-1.57
		c0.7-0.67,1.24-1.2,2.41-1.2c1.17,0,1.72,0.53,2.42,1.2c0.77,0.74,1.63,1.57,3.34,1.57c1.71,0,2.57-0.83,3.33-1.57
		c0.69-0.67,1.24-1.2,2.41-1.2c1.17,0,1.72,0.53,2.41,1.2c0.76,0.74,1.63,1.57,3.34,1.57v-1.35c-1.17,0-1.71-0.53-2.41-1.2
		C-491.67,65.64-492.54,64.81-494.25,64.81z"/>
	<path d="M-490.91,59.34c-0.76-0.74-1.63-1.57-3.34-1.57s-2.57,0.84-3.34,1.57c-0.69,0.67-1.24,1.2-2.41,1.2
		c-1.17,0-1.72-0.53-2.41-1.2c-0.77-0.74-1.63-1.57-3.35-1.57c-1.71,0-2.58,0.84-3.34,1.57c-0.69,0.67-1.24,1.2-2.41,1.2v1.35
		c1.71,0,2.57-0.83,3.34-1.57c0.7-0.67,1.24-1.2,2.41-1.2c1.17,0,1.72,0.53,2.42,1.2c0.77,0.74,1.63,1.57,3.34,1.57
		c1.71,0,2.57-0.84,3.34-1.57c0.69-0.67,1.24-1.2,2.41-1.2c1.17,0,1.72,0.53,2.41,1.2c0.76,0.74,1.63,1.57,3.34,1.57v-1.35
		C-489.67,60.53-490.21,60-490.91,59.34z"/>
</g>
<path d="M-385.41,41h-5.42c-0.36,0-0.66-0.29-0.66-0.66v-5.94h-3.02v5.94c0,0.36-0.3,0.66-0.66,0.66h-5.42
	c-0.36,0-0.66-0.29-0.66-0.66v-8.13h-2.59c-0.27,0-0.52-0.17-0.61-0.42c-0.1-0.25-0.03-0.54,0.17-0.72l10.84-9.89
	c0.25-0.23,0.64-0.23,0.89,0l10.84,9.89c0.2,0.18,0.27,0.47,0.17,0.72c-0.1,0.25-0.34,0.42-0.61,0.42h-2.59v8.13
	C-384.75,40.71-385.05,41-385.41,41z"/>
<path d="M105.54-21.6h-3.26c-0.22,0-0.4-0.18-0.4-0.4v-3.59h-1.82V-22c0,0.22-0.18,0.4-0.4,0.4H96.4c-0.22,0-0.4-0.18-0.4-0.4v-4.92
	h-1.56c-0.16,0-0.31-0.1-0.37-0.25c-0.06-0.15-0.02-0.33,0.1-0.44l6.52-5.98c0.15-0.14,0.38-0.14,0.54,0l6.52,5.98
	c0.12,0.11,0.16,0.29,0.1,0.44c-0.06,0.15-0.21,0.25-0.37,0.25h-1.56V-22C105.94-21.78,105.76-21.6,105.54-21.6z"/>
<path d="M-384.41,77.06h-5.42c-0.36,0-0.66-0.3-0.66-0.66v-5.97h-3.02v5.97c0,0.37-0.3,0.66-0.66,0.66h-5.42
	c-0.36,0-0.66-0.3-0.66-0.66v-8.18h-2.59c-0.27,0-0.52-0.17-0.61-0.42c-0.1-0.25-0.03-0.54,0.17-0.73l10.84-9.95
	c0.25-0.23,0.64-0.23,0.89,0l10.84,9.95c0.2,0.18,0.27,0.47,0.17,0.73c-0.1,0.26-0.34,0.42-0.61,0.42h-2.59v8.18
	C-383.75,76.77-384.05,77.06-384.41,77.06z M-389.17,75.74h4.1v-8.18c0-0.37,0.3-0.66,0.66-0.66h1.55L-392,58.5l-9.14,8.39h1.55
	c0.36,0,0.66,0.3,0.66,0.66v8.18h4.1v-5.97c0-0.37,0.3-0.66,0.66-0.66h4.34c0.36,0,0.66,0.3,0.66,0.66V75.74z"/>
<g>
	<path d="M-361.23,19.5h-7.05c-0.67,0-1.22,0.55-1.22,1.22v7.05c0,0.67,0.55,1.22,1.22,1.22h7.05c0.67,0,1.22-0.55,1.22-1.22v-7.05
		C-360.01,20.05-360.56,19.5-361.23,19.5z"/>
	<path d="M-347.72,19.5h-7.05c-0.67,0-1.22,0.55-1.22,1.22v7.05c0,0.67,0.55,1.22,1.22,1.22h7.05c0.67,0,1.22-0.55,1.22-1.22v-7.05
		C-346.5,20.05-347.05,19.5-347.72,19.5z"/>
	<path d="M-347.72,33.01h-7.05c-0.67,0-1.22,0.55-1.22,1.22v7.05c0,0.67,0.55,1.22,1.22,1.22h7.05c0.67,0,1.22-0.55,1.22-1.22v-7.05
		C-346.5,33.56-347.05,33.01-347.72,33.01z"/>
	<path d="M-361.23,33.01h-7.05c-0.67,0-1.22,0.55-1.22,1.22v7.05c0,0.67,0.55,1.22,1.22,1.22h7.05c0.67,0,1.22-0.55,1.22-1.22v-7.05
		C-360.01,33.56-360.56,33.01-361.23,33.01z"/>
</g>
<g>
	<path d="M-360.23,54.5h-7.05c-0.67,0-1.22,0.55-1.22,1.22v7.05c0,0.67,0.55,1.22,1.22,1.22h7.05c0.67,0,1.22-0.55,1.22-1.22v-7.05
		C-359.01,55.05-359.56,54.5-360.23,54.5z M-360.39,62.61h-6.73v-6.73h6.73V62.61z"/>
	<path d="M-346.72,54.5h-7.05c-0.67,0-1.22,0.55-1.22,1.22v7.05c0,0.67,0.55,1.22,1.22,1.22h7.05c0.67,0,1.22-0.55,1.22-1.22v-7.05
		C-345.5,55.05-346.05,54.5-346.72,54.5z M-346.88,62.61h-6.73v-6.73h6.73V62.61z"/>
	<path d="M-346.72,68.01h-7.05c-0.67,0-1.22,0.55-1.22,1.22v7.05c0,0.67,0.55,1.22,1.22,1.22h7.05c0.67,0,1.22-0.55,1.22-1.22v-7.05
		C-345.5,68.56-346.05,68.01-346.72,68.01z M-346.88,76.12h-6.73v-6.73h6.73V76.12z"/>
	<path d="M-360.23,68.01h-7.05c-0.67,0-1.22,0.55-1.22,1.22v7.05c0,0.67,0.55,1.22,1.22,1.22h7.05c0.67,0,1.22-0.55,1.22-1.22v-7.05
		C-359.01,68.56-359.56,68.01-360.23,68.01z M-360.39,76.12h-6.73v-6.73h6.73V76.12z"/>
</g>
<path d="M-315.67,68.78c2.81-3.63,2.44-8.78-0.88-12.04c-3.65-3.59-9.58-3.61-13.2-0.05c-3.62,3.56-3.6,9.38,0.06,12.97
	c3.52,3.45,9.29,3.59,12.92,0.32l6.08,5.97l0.09,0.09l1.16-1.14L-315.67,68.78z M-323.2,55.64c2.07,0,4.02,0.79,5.49,2.24
	c1.46,1.43,2.27,3.34,2.28,5.36c0.01,2.02-0.78,3.91-2.23,5.33c-1.43,1.41-3.35,2.19-5.39,2.19h-0.04
	c-2.06-0.01-3.99-0.81-5.45-2.24c-3.01-2.96-3.04-7.75-0.05-10.68C-327.15,56.42-325.24,55.64-323.2,55.64z"/>
<path d="M-314.46,35.53c2.54-3.6,2.09-8.56-1.12-11.71c-3.66-3.59-9.59-3.61-13.22-0.05c-3.63,3.56-3.6,9.38,0.05,12.96
	c3.4,3.33,8.95,3.57,12.59,0.61l5.88,5.77l1.77-1.74L-314.46,35.53z M-322.23,23.57c1.84,0,3.58,0.71,4.88,1.99
	c1.3,1.27,2.02,2.96,2.03,4.76c0.01,1.79-0.69,3.47-1.98,4.73c-1.27,1.25-2.97,1.94-4.82,1.94c-1.83-0.01-3.55-0.72-4.85-1.99
	c-1.3-1.27-2.02-2.96-2.03-4.75c-0.01-1.79,0.69-3.47,1.97-4.73C-325.75,24.25-324.05,23.57-322.23,23.57z"/>
<g>
	<path d="M-543.68,68.37c-1.31,0-2.37,1.08-2.37,2.4c0,1.32,1.06,2.4,2.37,2.4c1.31,0,2.37-1.08,2.37-2.4
		C-541.3,69.44-542.37,68.37-543.68,68.37z M-543.68,72.02c-0.68,0-1.24-0.56-1.24-1.25c0-0.69,0.55-1.25,1.24-1.25
		s1.24,0.56,1.24,1.25C-542.44,71.46-543,72.02-543.68,72.02z"/>
	<path d="M-532.56,68.37c-1.31,0-2.37,1.08-2.37,2.4c0,1.32,1.06,2.4,2.37,2.4s2.37-1.08,2.37-2.4
		C-530.18,69.44-531.25,68.37-532.56,68.37z M-532.56,72.02c-0.68,0-1.24-0.56-1.24-1.25c0-0.69,0.55-1.25,1.24-1.25
		c0.68,0,1.24,0.56,1.24,1.25C-531.32,71.46-531.87,72.02-532.56,72.02z"/>
	<path d="M-528.38,66.59c-0.13-0.13-0.32-0.24-0.5-0.33l-0.7-5.87c0-0.99-0.8-1.8-1.78-1.8h-3.05v-2.01c0-0.6-0.48-1.08-1.07-1.08
		h-5.28c-0.59,0-1.07,0.49-1.07,1.08v2.01h-3.05c-0.98,0-1.78,0.81-1.78,1.73l-0.7,5.94c-0.18,0.09-0.36,0.2-0.5,0.33
		c-0.51,0.49-0.81,1.12-0.81,1.7v5.8c0,0.9,0.6,1.36,1.78,1.36h0.83v1.77c0,0.7,0.58,1.27,1.3,1.27h2c0.72,0,1.3-0.57,1.3-1.27
		v-1.77h6.66v1.77c0,0.7,0.58,1.27,1.3,1.27h2c0.72,0,1.3-0.57,1.3-1.27v-1.77h0.83c1.18,0,1.78-0.46,1.78-1.36v-5.8
		C-527.58,67.71-527.88,67.08-528.38,66.59z M-535.54,56.58v1.92h-5.17l-0.05-1.85L-535.54,56.58z M-545.52,60.39
		c0-0.36,0.29-0.65,0.64-0.65h13.52c0.35,0,0.64,0.29,0.65,0.72l0.63,5.42c-0.28-0.07-0.59-0.12-0.88-0.18
		c-0.18-0.04-0.36-0.08-0.55-0.11c-0.46-0.08-0.93-0.16-1.41-0.22c-0.25-0.04-0.5-0.07-0.75-0.11c-0.49-0.06-0.98-0.1-1.48-0.14
		c-0.24-0.02-0.48-0.05-0.72-0.06c-0.74-0.04-1.48-0.07-2.21-0.07h-0.07c-0.74,0-1.5,0.03-2.25,0.07c-0.13,0.01-0.26,0.02-0.39,0.03
		c-0.63,0.04-1.25,0.1-1.86,0.17c-0.16,0.02-0.31,0.04-0.47,0.07c-0.57,0.08-1.13,0.16-1.67,0.26c-0.15,0.03-0.3,0.06-0.45,0.09
		c-0.31,0.06-0.64,0.12-0.93,0.19L-545.52,60.39z M-542.58,77.23c0,0.06-0.07,0.12-0.17,0.12h-2c-0.1,0-0.17-0.06-0.17-0.12v-1.77
		h2.33V77.23z M-531.32,77.23c0,0.06-0.07,0.12-0.17,0.12h-2c-0.1,0-0.17-0.06-0.17-0.12v-1.77h2.33V77.23z M-528.73,74.22
		c0,0-0.08,0.1-0.63,0.1h-17.52c-0.54,0-0.62-0.09-0.64-0.21v-5.8c0-0.21,0.14-0.57,0.45-0.87c0.07-0.07,0.32-0.2,0.45-0.23
		c2.33-0.66,5.51-1.05,8.51-1.05c3,0,6.18,0.39,8.51,1.05c0.12,0.03,0.37,0.16,0.44,0.23c0.31,0.3,0.45,0.65,0.45,0.87
		L-528.73,74.22z"/>
</g>
<path d="M-419.16,30.86l-12.12-11.23c-0.13-0.13-0.33-0.16-0.5-0.11c-0.17,0.06-0.3,0.21-0.33,0.39l-2.88,15.98
	c-0.04,0.2,0.05,0.39,0.21,0.5c0.16,0.11,0.38,0.12,0.54,0.01l4.38-2.73l3.4,8.51c0.08,0.19,0.27,0.31,0.46,0.31
	c0.05,0,0.11-0.01,0.16-0.03l4.09-1.42c0.13-0.04,0.23-0.14,0.29-0.26c0.06-0.12,0.06-0.26,0.01-0.39l-3.2-8.5l5.15-0.17
	c0.2-0.01,0.38-0.13,0.45-0.33C-418.96,31.22-419.01,31-419.16,30.86z"/>
<g>
	<path d="M-915.5,30.48h5.1c-0.05-2.18-0.44-4.21-1.06-5.91h-4.05L-915.5,30.48z"/>
	<path d="M-916.5,19.87c-1.45,0.25-2.76,1.63-3.7,3.68h3.7L-916.5,19.87z"/>
	<path d="M-921.67,30.48h5.17l0-5.91h-4.12C-921.24,26.27-921.62,28.3-921.67,30.48z"/>
	<path d="M-910.74,23.55h3.64c-1.67-2.06-4.02-3.53-6.7-4.05C-912.57,20.28-911.51,21.7-910.74,23.55z"/>
	<path d="M-920.62,37.45h4.11l0-5.95h-5.17C-921.62,33.69-921.24,35.74-920.62,37.45z"/>
	<path d="M-910.36,24.57c0.57,1.72,0.92,3.73,0.97,5.91h4.9c-0.09-2.18-0.76-4.2-1.87-5.91H-910.36z"/>
	<path d="M-906.38,37.45c1.12-1.72,1.79-3.76,1.88-5.95h-4.9c-0.05,2.19-0.39,4.22-0.97,5.95H-906.38z"/>
	<path d="M-915.5,19.88l0,3.67h3.63C-912.8,21.53-914.08,20.16-915.5,19.88z"/>
	<path d="M-922.68,31.5h-4.82c0.09,2.19,0.76,4.23,1.88,5.95h3.91C-922.29,35.72-922.63,33.69-922.68,31.5z"/>
	<path d="M-916.51,42.15l0-3.68h-3.69C-919.26,40.51-917.95,41.9-916.51,42.15z"/>
	<path d="M-921.33,38.47h-3.55c1.64,2.01,3.92,3.46,6.53,4.01C-919.55,41.68-920.58,40.28-921.33,38.47z"/>
	<path d="M-910.74,38.47c-0.76,1.83-1.8,3.24-3.01,4.03c2.65-0.53,4.98-1.99,6.64-4.03H-910.74z"/>
	<path d="M-925.63,24.57L-925.63,24.57c-1.11,1.7-1.78,3.73-1.87,5.91h4.82c0.05-2.18,0.39-4.19,0.97-5.91H-925.63z"/>
	<path d="M-911.87,38.47h-3.63l0,3.67C-914.08,41.86-912.8,40.49-911.87,38.47z"/>
	<path d="M-910.4,31.5h-5.11l0,5.95h4.05C-910.83,35.74-910.45,33.69-910.4,31.5z"/>
	<path d="M-921.33,23.55c0.76-1.84,1.81-3.25,3.03-4.04c-2.64,0.54-4.95,2-6.6,4.04H-921.33z"/>
</g>
<path d="M-767.97,26.53l-3.83-0.1c-1.06-0.03-2.06,0.37-2.82,1.12c-0.76,0.75-1.2,1.76-1.22,2.84l-0.02,0.86
	c-0.85,0.25-1.53,0.83-2.02,1.68c-0.14-2.04-0.51-3.91-1.44-5.15c0.01-0.03,0.02-0.06,0.02-0.1v-1.71c0-3.04-2.39-5.51-5.33-5.51
	h-5.38c-0.26,0-0.48,0.22-0.48,0.48v1.71c0,3.04,2.39,5.51,5.33,5.51h4.92c1.28,1.45,1.45,4.35,1.49,7.26
	c-3.51,0.22-6.29,2.66-6.29,5.64c0,0.27,0.21,0.48,0.48,0.48h12.65c0.26,0,0.48-0.22,0.48-0.48c0-2.97-2.76-5.4-6.25-5.64
	c0.23-1.84,1.05-3.07,2.27-3.32c0.01,0,0.01-0.01,0.02-0.01l3.81,0.1c0.04,0,0.07,0,0.11,0c0.99,0,1.94-0.38,2.67-1.08
	c0.79-0.75,1.24-1.77,1.27-2.88l0.03-1.22C-767.49,26.76-767.7,26.54-767.97,26.53z"/>
<path d="M-679.78,28.05c-1.11-0.55-2.62-0.68-3.39-0.71l-0.09,6.89c1.07,0.34,4.17,1.31,5.53,1.65c0.22,0.06,0.43,0.11,0.63,0.16
	c1.25,0.33,1.93,0.52,3.22-0.12c1.64-0.82,6.23-3.72,7.52-4.58c0.71-0.47,0.84-1.02,0.86-1.24c0.03-0.26-0.04-0.43-0.09-0.48
	c-0.05-0.05-0.1-0.11-0.15-0.16c-0.34-0.37-0.68-0.75-2.23-0.14c-1.58,0.63-3.21,1.3-3.91,1.59c0.02,0.14,0.03,0.28,0.03,0.44
	c0,1.18-0.6,1.77-1.79,1.77h-5.9V32.1h5.9c0.74,0,0.74-0.29,0.74-0.74c0-0.54-0.07-0.95-0.95-0.95h-2.98l-0.16-0.18
	C-677.01,30.22-678.22,28.83-679.78,28.05z"/>
<g>
	<path d="M-574,36.35c-1.13,0-2.06,0.93-2.06,2.08c0,1.15,0.92,2.08,2.06,2.08s2.06-0.93,2.06-2.08
		C-571.94,37.28-572.87,36.35-574,36.35z"/>
	<path d="M-562.66,26.95c-2.79-3.47-6.92-5.45-11.34-5.45c-4.42,0-8.56,1.99-11.34,5.46c-0.25,0.31-0.2,0.76,0.1,1.01
		c0.13,0.11,0.29,0.16,0.45,0.16c0.21,0,0.41-0.09,0.55-0.27c2.51-3.13,6.24-4.92,10.23-4.92c3.99,0,7.72,1.79,10.23,4.92
		c0.25,0.31,0.7,0.35,1,0.11C-562.46,27.72-562.41,27.26-562.66,26.95z"/>
	<path d="M-574,26.71c-3.24,0-6.24,1.63-8.03,4.35c-0.22,0.33-0.13,0.78,0.2,1c0.33,0.22,0.77,0.13,0.99-0.2
		c1.52-2.32,4.08-3.71,6.84-3.71c2.76,0,5.32,1.39,6.84,3.71c0.14,0.21,0.36,0.32,0.59,0.32c0.14,0,0.27-0.04,0.39-0.12
		c0.33-0.22,0.42-0.67,0.2-1C-567.76,28.34-570.76,26.71-574,26.71z"/>
	<path d="M-574,31.93c-2,0-3.85,1.01-4.96,2.69c-0.22,0.33-0.13,0.78,0.2,1c0.12,0.08,0.26,0.12,0.39,0.12
		c0.23,0,0.46-0.11,0.59-0.32c0.84-1.28,2.25-2.05,3.77-2.05c1.52,0,2.93,0.77,3.77,2.05c0.22,0.33,0.66,0.42,0.99,0.2
		c0.33-0.22,0.42-0.67,0.2-1C-570.15,32.94-572,31.93-574,31.93z"/>
</g>
<path d="M-937.86,62.94l-10.86-5.44c-0.19-0.09-0.41-0.09-0.59,0l-10.82,5.45c-0.22,0.11-0.36,0.34-0.36,0.59
	c0,0.25,0.14,0.48,0.36,0.59l1.17,0.59v8.75c0,0.02,0.01,0.04,0.01,0.06c-0.82,0.27-1.43,1.04-1.43,1.96c0,1.14,0.93,2.07,2.07,2.07
	s2.07-0.93,2.07-2.07c0-0.91-0.6-1.68-1.43-1.96c0-0.02,0.01-0.04,0.01-0.06v-8.08l1.36,0.69v4.24c0,2.15,3.15,3.77,7.32,3.77
	s7.32-1.62,7.32-3.77v-4.29l3.78-1.9c0.22-0.11,0.36-0.34,0.36-0.59C-937.5,63.28-937.64,63.06-937.86,62.94z M-958.3,76.25
	c-0.42,0-0.75-0.34-0.75-0.75c0-0.42,0.34-0.75,0.75-0.75s0.75,0.34,0.75,0.75C-957.55,75.91-957.89,76.25-958.3,76.25z
	 M-942.96,70.32c0,1.16-2.57,2.45-6,2.45s-6-1.29-6-2.45v-3.57l5.65,2.85c0.09,0.05,0.2,0.07,0.3,0.07c0.1,0,0.2-0.02,0.3-0.07
	l5.76-2.9V70.32z M-949.02,68.26l-6.34-3.19c0,0-0.01,0-0.01-0.01l-3.01-1.51l9.36-4.72l9.39,4.7L-949.02,68.26z"/>
<g>
	<path d="M-465.84,63.74l0.22,1.3c0.58-0.1,1.19-0.11,1.8-0.04c0.57,0.07,1.13,0.21,1.64,0.41l0.5-1.22
		c-0.62-0.25-1.29-0.42-1.98-0.5C-464.4,63.61-465.14,63.62-465.84,63.74z"/>
	<path d="M-463.83,60.99c1.54,0,2.79-1.23,2.79-2.74c0-1.51-1.25-2.74-2.79-2.74s-2.79,1.23-2.79,2.74
		C-466.63,59.76-465.37,60.99-463.83,60.99z M-463.83,56.82c0.81,0,1.47,0.64,1.47,1.42c0,0.79-0.66,1.42-1.47,1.42
		c-0.81,0-1.47-0.64-1.47-1.42C-465.3,57.46-464.64,56.82-463.83,56.82z"/>
	<path d="M-468.95,66.03c-0.39,0-0.71,0.31-0.71,0.69c0,0.38,0.32,0.69,0.71,0.69c0.39,0,0.71-0.31,0.71-0.69
		C-468.24,66.34-468.56,66.03-468.95,66.03z"/>
	<path d="M-454.22,65.83c-0.54-0.11-1.3-0.1-2.18,0.34c-0.5-0.98-1.35-2.06-2.83-3.05c-2.72-1.82-7-1.59-8.52-1.02l-3.35-1.66
		c-0.24-0.12-0.53-0.08-0.73,0.1c-0.2,0.18-0.28,0.46-0.19,0.71l1.02,2.91c-0.72,0.65-1.25,1.35-1.68,2.19h-0.46
		c-0.9,0-1.39,0.53-1.39,1.49v2.78c0,1.13,0.89,1.32,1.67,1.35c0.21,0.43,0.6,1.11,1.3,1.77c0.64,0.61,1.06,0.96,1.31,1.15
		l0.54,3.07c0.06,0.32,0.33,0.55,0.65,0.55h2.04c0.33,0,0.61-0.25,0.66-0.57l0.2-1.5c1.23,0.23,2.58,0.19,3.73-0.1l0.3,1.63
		c0.06,0.31,0.33,0.54,0.65,0.54h1.89c0.33,0,0.6-0.24,0.65-0.56l0.54-3.46c2.76-1.86,2.7-4.48,2.68-5.48l0-0.2
		c0-0.33-0.04-0.82-0.19-1.4c0.5-0.27,0.98-0.38,1.44-0.28c0.69,0.14,1.32,0.7,1.76,1.59l1.18-0.59
		C-452.17,66.86-453.12,66.05-454.22,65.83z M-459.36,73.53c-0.16,0.1-0.27,0.27-0.3,0.46l-0.5,3.19h-0.78l-0.34-1.82
		c-0.04-0.19-0.16-0.36-0.33-0.46c-0.17-0.1-0.38-0.11-0.56-0.04c-1.25,0.48-2.97,0.53-4.39,0.12c-0.19-0.05-0.38-0.02-0.55,0.08
		c-0.16,0.1-0.27,0.28-0.29,0.47l-0.22,1.65h-0.9l-0.49-2.79c-0.03-0.18-0.14-0.34-0.29-0.44c0,0-0.42-0.28-1.36-1.17
		c-0.87-0.83-1.13-1.65-1.13-1.66c-0.08-0.28-0.34-0.47-0.63-0.47c-0.27,0-0.63,0-0.79-0.04v-2.78c0-0.08,0-0.14,0.01-0.17
		c0.02,0,0.03,0,0.06,0h0.87c0.26,0,0.5-0.15,0.6-0.39c0.44-0.98,0.99-1.7,1.85-2.4c0.22-0.17,0.3-0.47,0.21-0.73l-0.63-1.81
		l2.19,1.09c0.25,0.12,0.51,0.11,0.71-0.08c0.61-0.37,4.85-0.81,7.37,0.87c1.33,0.89,2.05,1.86,2.45,2.69c0,0,0,0-0.01,0l0.02,0.02
		c0.4,0.85,0.45,1.56,0.45,1.87l0,0.23C-457.03,70.01-456.98,72.05-459.36,73.53z"/>
</g>
<g>
	<polygon points="-495.54,109.4 -495.54,111.27 -489.69,111.27 -499.98,121.56 -498.66,122.88 -488.37,112.59 -488.37,118.44 
		-486.5,118.44 -486.5,109.4 	"/>
	<polygon points="-491.65,130.47 -507.57,130.47 -507.57,114.55 -499.37,114.55 -499.37,112.62 -509.5,112.62 -509.5,132.4 
		-489.72,132.4 -489.72,122.34 -491.65,122.34 	"/>
</g>
<path class="st0" d="M-959.5,128.44c3.41,0.01,4.82-0.43,6.76-1.88c0,0-3.48-0.19-4.23-3.08c0,0,1.22,0.05,2.06,0
	c0,0-3.83-0.93-3.88-4.55c0,0,1.2,0.44,2.07,0.44c0,0-3.29-2.3-1.37-6.19c0,0,3.6,4.56,9.82,4.7c0,0-0.34-3.5,2.05-4.86
	c2.39-1.37,4.87-0.6,5.99,0.71c0,0,1.5-0.09,2.99-1.04c0,0,0,1.13-1.59,2.39c0,0,1.17-0.14,2.34-0.54c0,0-0.61,1.17-2.29,2.3
	c0,0,0.42,4.03-2.15,7.75c-2.57,3.72-6.22,5.43-8.98,5.79C-952.67,130.75-957.49,130.32-959.5,128.44"/>
<path class="st0" d="M-919.92,117.17v6.71l5.75-3.35L-919.92,117.17z M-911.61,113.33c2.82,0,5.11,2.29,5.11,5.11v5.11
	c0,2.82-2.29,5.11-5.11,5.11h-12.78c-2.82,0-5.11-2.29-5.11-5.11v-5.11c0-2.82,2.29-5.11,5.11-5.11H-911.61z"/>
<g>
	<defs>
		<path id="SVGID_1_" d="M-881.69,132v-11h3.25l0.43-3.79h-3.69l0.01-1.9c0-0.99,0.1-1.52,1.62-1.52h2.03V110h-3.25
			c-3.91,0-5.29,1.84-5.29,4.93v2.28H-889V121h2.44v11H-881.69z"/>
	</defs>
	<use xlink:href="#SVGID_1_"  style="overflow:visible;"/>
	<clipPath id="SVGID_2_">
		<use xlink:href="#SVGID_1_"  style="overflow:visible;"/>
	</clipPath>
	<rect x="-894.5" y="104.5" class="st1" width="22" height="33"/>
</g>
<g>
	<path class="st0" d="M-841.58,112.88c-0.93,0-1.69,0.76-1.69,1.69c0,0.93,0.76,1.69,1.69,1.69c0.94,0,1.69-0.76,1.69-1.69
		C-839.89,113.64-840.64,112.88-841.58,112.88z"/>
	<path class="st0" d="M-847.96,115.29c-3.19,0-5.77,2.59-5.77,5.79s2.58,5.78,5.77,5.78c3.19,0,5.77-2.59,5.77-5.78
		S-844.78,115.29-847.96,115.29z M-847.96,124.74c-2.02,0-3.66-1.64-3.66-3.67c0-2.03,1.64-3.67,3.66-3.67
		c2.02,0,3.66,1.64,3.66,3.67C-844.3,123.1-845.95,124.74-847.96,124.74z"/>
	<path class="st0" d="M-841.13,109.5h-13.75c-2.54,0-4.62,2.08-4.62,4.63v13.75c0,2.54,2.08,4.62,4.62,4.62h13.75
		c2.54,0,4.63-2.08,4.63-4.62v-13.75C-836.5,111.58-838.58,109.5-841.13,109.5z M-838.63,127.88c0,1.38-1.12,2.5-2.5,2.5h-13.75
		c-1.38,0-2.5-1.12-2.5-2.5v-13.75c0-1.38,1.12-2.5,2.5-2.5h13.75c1.38,0,2.5,1.12,2.5,2.5V127.88z"/>
</g>
<polygon points="-587.5,130.38 -596.98,120.81 -587.51,111.43 -589.52,109.4 -599,118.79 -608.48,109.4 -610.49,111.43 
	-601.02,120.81 -610.5,130.38 -608.47,132.4 -599,122.84 -589.53,132.4 "/>
<path d="M-698.92,119.19l-9.66-9.79l-3.17,3.27l8.06,8.17l-8.07,8.33l3.2,3.24l9.65-9.96c0.42-0.44,0.66-1.02,0.65-1.63
	C-698.25,120.19-698.49,119.62-698.92,119.19z"/>
<path d="M-674.33,132.4l-2.17-2.15l9.32-9.43l-9.31-9.25l2.15-2.17l10.39,10.32c0.29,0.29,0.45,0.67,0.45,1.08
	c0,0.41-0.16,0.8-0.44,1.08L-674.33,132.4z"/>
<path d="M-645.5,122.36h18.22l-7.63,7.47l2.08,2.08l9.74-9.53c0.77-0.76,0.78-1.99,0.01-2.76l-9.75-9.71l-2.1,2.06l7.5,7.47h-18.08
	V122.36z"/>
<path d="M-775,131.4l-0.91-0.99c-5.45-5.97-8.09-10.36-8.09-13.42c0-4.74,4.04-8.59,9-8.59s9,3.85,9,8.59
	c0,3.06-2.65,7.44-8.09,13.42L-775,131.4z M-775,110.79c-3.62,0-6.57,2.78-6.57,6.2c0,1.57,1.17,4.71,6.57,10.81
	c5.4-6.1,6.57-9.24,6.57-10.81C-768.43,113.57-771.38,110.79-775,110.79z"/>
<ellipse cx="-775" cy="117.25" rx="2.99" ry="2.94"/>
<g>
	<path d="M-417.48,112.81l-2.73-1.02c-0.38-0.14-0.8,0.06-0.94,0.44c-0.14,0.39,0.05,0.81,0.43,0.96l2.25,0.84v16.44l-4.72-2.31
		v-1.89c0-0.41-0.33-0.74-0.73-0.74c-0.4,0-0.73,0.33-0.73,0.74v1.69l-6.16,2.49v-4.74c0-0.41-0.33-0.74-0.73-0.74
		c-0.4,0-0.73,0.33-0.73,0.74v4.9l-5.26-2.54v-16.52l1.91,0.93c0.37,0.18,0.8,0.02,0.98-0.35c0.17-0.37,0.02-0.81-0.34-0.99
		l-2.96-1.44c-0.23-0.11-0.5-0.09-0.71,0.04c-0.21,0.14-0.34,0.37-0.34,0.63v18.17c0,0.29,0.16,0.55,0.42,0.67l6.45,3.12
		c0.14,0.07,0.3,0.07,0.45,0.04c0.05,0.01,0.09,0.03,0.14,0.03c0.23,0,0.43-0.11,0.56-0.28l6.86-2.77l6.07,2.98
		c0.1,0.05,0.21,0.07,0.32,0.07c0.14,0,0.27-0.04,0.39-0.11c0.21-0.14,0.34-0.37,0.34-0.63v-18.15
		C-417,113.2-417.19,112.92-417.48,112.81z"/>
	<path d="M-427.84,125.72l0.62-0.7c3.75-4.24,5.57-7.35,5.57-9.52c0-3.36-2.78-6.1-6.19-6.1c-3.41,0-6.19,2.74-6.19,6.1
		c0,2.17,1.82,5.28,5.57,9.52L-427.84,125.72z M-427.84,111.1c2.49,0,4.52,1.97,4.52,4.4c0,1.11-0.8,3.34-4.52,7.67
		c-3.71-4.33-4.52-6.56-4.52-7.67C-432.35,113.07-430.33,111.1-427.84,111.1z"/>
	<path d="M-425.78,115.68c0-1.15-0.92-2.09-2.06-2.09c-1.14,0-2.06,0.94-2.06,2.09c0,1.15,0.92,2.09,2.06,2.09
		C-426.7,117.77-425.78,116.83-425.78,115.68z"/>
</g>
<ellipse class="st2" cx="-775" cy="117.25" rx="2.99" ry="2.94"/>
<g>
	<rect x="-750.55" y="110.4" width="23" height="2.97"/>
	<rect x="-750.55" y="118.42" width="23" height="2.97"/>
	<rect x="-750.55" y="126.43" width="23" height="2.97"/>
</g>
<path d="M-383.42,112.21h-3v-2.81h-1.92v2.81h-9.33v-2.81h-1.92v2.81h-3c-1.06,0-1.92,0.86-1.92,1.92v16.36
	c0,1.06,0.86,1.92,1.92,1.92h19.17c1.06,0,1.92-0.86,1.92-1.92v-16.36C-381.5,113.07-382.36,112.21-383.42,112.21z M-399.58,114.13
	v2.55h1.92v-2.55h9.33v2.55h1.92v-2.55h3l0,5.11h-19.17v-5.11H-399.58z M-402.58,130.48v-9.33h19.17l0,9.33H-402.58z"/>
<g>
	<path d="M-599.62,23.78h-2.23v16.88h2.23c0.67,0,1.21-0.55,1.21-1.22V25.01C-598.41,24.33-598.95,23.78-599.62,23.78z"/>
	<path d="M-621.41,25.01v14.44c0,0.67,0.54,1.22,1.21,1.22h2.23V23.78h-2.23C-620.86,23.78-621.41,24.33-621.41,25.01z"/>
	<path d="M-606.24,21.5c0-0.46-0.37-0.83-0.83-0.83h-5.69c-0.46,0-0.83,0.37-0.83,0.83v2.29h-3.38v16.88h14.11V23.78h-3.38V21.5z
		 M-612.57,21.68h5.32v2.1h-5.32V21.68z M-605.81,31.66v1.14c0,0.67-0.57,1.21-1.27,1.21h-1.05v1.05c0,0.7-0.54,1.27-1.21,1.27
		h-1.14c-0.66,0-1.21-0.57-1.21-1.27v-1.05h-1.05c-0.7,0-1.27-0.54-1.27-1.21v-1.14c0-0.67,0.57-1.21,1.27-1.21h1.05V29.4
		c0-0.7,0.54-1.27,1.21-1.27h1.14c0.66,0,1.21,0.57,1.21,1.27v1.05h1.05C-606.38,30.45-605.81,30.99-605.81,31.66z"/>
	<path d="M-608.64,31.46c-0.28,0-0.51-0.23-0.51-0.51V29.4c0-0.14-0.09-0.26-0.19-0.26h-1.14c-0.11,0-0.19,0.12-0.19,0.26v1.56
		c0,0.28-0.23,0.51-0.51,0.51h-1.55c-0.14,0-0.26,0.09-0.26,0.2v1.14c0,0.11,0.12,0.2,0.26,0.2h1.55c0.28,0,0.51,0.23,0.51,0.51
		v1.55c0,0.14,0.09,0.26,0.19,0.26h1.14c0.11,0,0.19-0.12,0.19-0.26V33.5c0-0.28,0.23-0.51,0.51-0.51h1.55
		c0.14,0,0.26-0.09,0.26-0.2v-1.14c0-0.1-0.12-0.2-0.26-0.2H-608.64z"/>
</g>
<path d="M-527.84,30.59c-0.14-0.13-0.33-0.24-0.52-0.33l-0.72-5.87c0-0.99-0.83-1.8-1.86-1.8h-3.18v-2.01c0-0.6-0.5-1.08-1.12-1.08
	h-5.51c-0.62,0-1.12,0.49-1.12,1.08v2.01h-3.18c-1.02,0-1.86,0.81-1.85,1.73l-0.73,5.94c-0.19,0.09-0.38,0.2-0.52,0.33
	c-0.53,0.48-0.85,1.12-0.85,1.7v5.8c0,0.9,0.62,1.36,1.86,1.36h0.86v1.77c0,0.7,0.61,1.27,1.36,1.27h2.08
	c0.75,0,1.36-0.57,1.36-1.27v-1.77h6.95v1.77c0,0.7,0.61,1.27,1.36,1.27h2.08c0.75,0,1.36-0.57,1.36-1.27v-1.77h0.87
	c1.23,0,1.86-0.46,1.86-1.36v-5.8C-527,31.71-527.32,31.08-527.84,30.59z M-543.8,37.17c-1.37,0-2.48-1.08-2.48-2.4
	c0-1.32,1.11-2.4,2.48-2.4c1.36,0,2.47,1.08,2.47,2.4C-541.33,36.09-542.44,37.17-543.8,37.17z M-532.2,37.17
	c-1.36,0-2.48-1.08-2.48-2.4c0-1.32,1.11-2.4,2.48-2.4c1.36,0,2.48,1.08,2.48,2.4C-529.72,36.09-530.83,37.17-532.2,37.17z
	 M-530.73,29.66c-0.07-0.01-0.13-0.03-0.2-0.04c-2.16-0.39-4.65-0.63-7.04-0.63h-0.07c-2.39,0-4.87,0.23-7.04,0.63
	c-0.07,0.01-0.13,0.03-0.2,0.04c-0.38,0.07-0.77,0.14-1.12,0.22l0.67-5.49c0-0.36,0.3-0.65,0.67-0.65h14.11
	c0.37,0,0.67,0.29,0.68,0.72l0.66,5.42C-529.96,29.8-530.35,29.73-530.73,29.66z"/>
<g>
	<path d="M-705.77,27.12h-1.3c0.92-0.81,1.52-2,1.52-3.34c0-2.45-1.96-4.44-4.36-4.44c-2.4,0-4.36,1.99-4.36,4.44
		c0,1.34,0.6,2.53,1.52,3.34h-1.3c-2.13,0-3.86,1.76-3.86,3.93v8.69l12.89-12.53C-705.26,27.15-705.51,27.12-705.77,27.12z"/>
	<path d="M-701.93,30.84l-11.8,11.49h11.29c0.3,0,0.54-0.25,0.54-0.55V31.04C-701.91,30.98-701.92,30.91-701.93,30.84z"/>
	<path d="M-703.9,27.62l-14.01,13.62v0.54c0,0.3,0.24,0.55,0.54,0.55h2.08l13.1-12.75C-702.52,28.75-703.13,28.06-703.9,27.62z"/>
</g>
<path d="M-803.62,26.31c-0.15-0.1-0.33-0.12-0.49-0.05c-1.97,0.77-4.04,1.16-6.14,1.18c0.01-0.14,0.04-0.28,0.04-0.43v-6.95
	c0-0.36-0.39-0.62-0.73-0.49c-4.1,1.61-8.62,1.61-12.72,0c-0.16-0.06-0.35,0.02-0.49,0.12c-0.14,0.1-0.23,0.32-0.23,0.5v6.83
	c0,4.18,2.86,7.79,6.96,8.77c0.04,0.01,0.08,0.01,0.13,0.01c0.02,0,0.04,0,0.05-0.01c0.79,3.26,3.34,5.84,6.67,6.64
	c0.04,0.01,0.08,0.01,0.13,0.01c0.04,0,0.08,0,0.13-0.01c4.09-0.99,6.94-4.59,6.94-8.75v-6.93
	C-803.39,26.57-803.48,26.41-803.62,26.31z M-815.21,24.52h1.3c0.29,0,0.53,0.23,0.53,0.52s-0.24,0.52-0.53,0.52h-1.3
	c-0.29,0-0.53-0.23-0.53-0.52S-815.5,24.52-815.21,24.52z M-821.23,25.04c0-0.29,0.24-0.52,0.53-0.52h1.3
	c0.29,0,0.53,0.23,0.53,0.52s-0.24,0.52-0.53,0.52h-1.3C-820.99,25.57-821.23,25.33-821.23,25.04z M-820.34,30.01
	c-0.11-0.27,0.03-0.57,0.3-0.68c0.27-0.1,0.58,0.03,0.68,0.3c0.33,0.84,1.14,1.39,2.05,1.39c0.92,0,1.72-0.54,2.06-1.39
	c0.11-0.27,0.41-0.4,0.68-0.3c0.27,0.1,0.41,0.41,0.3,0.68c-0.49,1.25-1.69,2.05-3.04,2.05C-818.66,32.06-819.85,31.26-820.34,30.01
	z M-807.72,38.79c-0.27,0.1-0.58-0.03-0.69-0.3c-0.33-0.84-1.14-1.38-2.05-1.38c-0.91,0-1.71,0.54-2.05,1.38
	c-0.08,0.21-0.28,0.33-0.49,0.33c-0.06,0-0.13-0.01-0.19-0.04c-0.27-0.1-0.41-0.41-0.3-0.68c0.49-1.24,1.68-2.05,3.03-2.05
	c1.35,0,2.54,0.8,3.03,2.05C-807.32,38.38-807.45,38.69-807.72,38.79z M-807.07,32.35h-1.3c-0.29,0-0.53-0.23-0.53-0.52
	c0-0.29,0.24-0.52,0.53-0.52h1.3c0.29,0,0.53,0.23,0.53,0.52C-806.54,32.12-806.78,32.35-807.07,32.35z"/>
<path d="M-684.39,37.55c0.17,0,0.32-0.15,0.32-0.32V24.87c0-0.17-0.15-0.32-0.32-0.32h-3.79c-0.17,0-0.32,0.15-0.32,0.32v12.36
	c0,0.17,0.15,0.32,0.32,0.32H-684.39z"/>
<path d="M95.19-18.73c-1.4-0.7-3.3-0.86-4.28-0.9l-0.12,8.74c1.35,0.43,5.26,1.66,6.98,2.09c0.28,0.07,0.55,0.14,0.8,0.21
	c1.57,0.42,2.44,0.65,4.06-0.16c2.07-1.04,7.86-4.71,9.48-5.8c0.89-0.6,1.05-1.3,1.08-1.57c0.03-0.32-0.06-0.54-0.12-0.61
	c-0.06-0.06-0.13-0.13-0.19-0.21c-0.42-0.47-0.86-0.95-2.81-0.18c-2,0.8-4.05,1.65-4.93,2.02c0.02,0.17,0.04,0.36,0.04,0.56
	c0,1.49-0.76,2.25-2.25,2.25h-7.43v-1.31h7.43c0.93,0,0.93-0.37,0.93-0.94c0-0.68-0.09-1.2-1.2-1.2H98.9l-0.2-0.23
	C98.69-15.99,97.17-17.75,95.19-18.73z"/>
<path d="M89.38-6.7c0.22,0,0.4-0.19,0.4-0.41v-15.66c0-0.22-0.18-0.41-0.4-0.41H84.6c-0.22,0-0.4,0.19-0.4,0.41v15.66
	c0,0.22,0.18,0.41,0.4,0.41H89.38z"/>
<g>
	<path d="M-641.8,27.63c-1.95-2.2-3.18-5.04-3.34-8.16c-2.58,0.27-4.9,1.39-6.69,3.08l7.56,7.56L-641.8,27.63z"/>
	<path d="M-648.71,34.54c-1.84-1.61-4.16-2.69-6.73-2.96c0.15,2.63,1.17,5.02,2.8,6.89L-648.71,34.54z"/>
	<path d="M-647.9,33.72l2.8-2.8l-7.54-7.54c-1.65,1.9-2.69,4.35-2.8,7.03C-652.56,30.7-649.95,31.9-647.9,33.72z"/>
	<path d="M-640.19,27.65c2.04,1.93,4.75,3.16,7.74,3.32c0-0.01,0-0.03,0-0.04c0-3.05-1.2-5.82-3.14-7.88L-640.19,27.65z"/>
	<path d="M-644.28,31.74l-2.79,2.79c2,2.1,3.32,4.84,3.62,7.89c2.69-0.12,5.13-1.15,7.03-2.8L-644.28,31.74z"/>
	<path d="M-647.88,35.34l-3.96,3.96c1.91,1.8,4.44,2.95,7.23,3.11C-644.9,39.68-646.1,37.23-647.88,35.34z"/>
	<path d="M-640.99,26.82l4.57-4.57c-2.02-1.76-4.66-2.83-7.54-2.83c-0.01,0-0.03,0-0.04,0C-643.85,22.24-642.74,24.81-640.99,26.82z
		"/>
	<path d="M-641,28.46l-2.46,2.46l7.88,7.88c1.69-1.79,2.81-4.11,3.08-6.69C-635.79,31.94-638.76,30.59-641,28.46z"/>
</g>
<g>
	<path d="M-464.73,23.83c1.2,0,2.18-0.97,2.18-2.16c0-1.2-0.97-2.16-2.18-2.16s-2.18,0.97-2.18,2.16
		C-466.91,22.86-465.93,23.83-464.73,23.83z"/>
	<path d="M-456.54,30.49c-0.43-1.11-1.29-2.43-2.98-3.61c-2.74-1.9-7.06-1.63-8.41-1.02l-3.4-1.76c-0.18-0.09-0.39-0.06-0.54,0.07
		c-0.15,0.13-0.2,0.34-0.14,0.53l1.06,3.15c-0.77,0.71-1.34,1.47-1.78,2.41h-0.56c-0.79,0-1.21,0.47-1.21,1.36v2.89
		c0,1.06,0.82,1.19,1.6,1.21c0.18,0.42,0.57,1.15,1.3,1.88c0.69,0.69,1.12,1.05,1.35,1.23l0.55,3.27c0.04,0.24,0.24,0.41,0.48,0.41
		h2.03c0.24,0,0.45-0.18,0.48-0.43l0.22-1.76c1.31,0.28,2.78,0.24,4-0.11l0.34,1.9c0.04,0.23,0.24,0.4,0.48,0.4h1.89
		c0.24,0,0.44-0.18,0.48-0.42l0.55-3.68c2.73-1.88,2.67-4.55,2.65-5.56l0-0.21c0-0.19-0.01-0.43-0.05-0.71
		c2.05-0.83,3.03,0.7,3.36,1.42l1.31-0.62C-452.26,31.06-454.02,29.56-456.54,30.49z M-469.95,31.19c-0.4,0-0.73-0.32-0.73-0.72
		c0-0.4,0.32-0.72,0.73-0.72c0.4,0,0.73,0.32,0.73,0.72C-469.23,30.87-469.55,31.19-469.95,31.19z M-462.91,28.77
		c-0.56-0.17-1.15-0.27-1.75-0.28c-0.67-0.02-1.29,0.05-1.88,0.21l-0.25-0.95c0.69-0.18,1.42-0.26,2.16-0.24
		c0.69,0.02,1.37,0.13,2,0.32L-462.91,28.77z"/>
</g>
<g>
	<path d="M-732.51,37.19h-3.74c-0.49,0-0.99-0.03-1.47-0.1l-4.05-0.74c-1.01-0.14-2.05-0.14-3.08,0.01l-3.72,0.71
		c-0.53,0.08-1.04,0.11-1.55,0.11h-3.67c-0.47,0-0.86,0.33-0.86,0.73c0,0.4,0.39,0.73,0.86,0.73h21.28c0.47,0,0.86-0.33,0.86-0.73
		C-731.65,37.52-732.03,37.19-732.51,37.19z"/>
	<path d="M-748.73,36.1l3.72-0.71c1.15-0.16,2.29-0.17,3.4-0.01l4.05,0.74c0.41,0.06,0.86,0.09,1.31,0.09h2.44l0.04-0.1v0.1h1v-1.08
		c0-3.24-1.59-6.17-4.14-8.03v6.82h-1v-7.46c-0.73-0.41-1.53-0.73-2.37-0.97v6.14c0,1.55-1.26,2.81-2.8,2.81h-0.22
		c-1.55,0-2.8-1.26-2.8-2.81v-6.2c-0.84,0.25-1.64,0.58-2.37,1.01v7.49h-1v-6.83c-2.53,1.89-4.14,4.86-4.14,8.03v1.08h3.51
		C-749.65,36.2-749.19,36.17-748.73,36.1z"/>
	<path d="M-743.3,33.44h0.22c1,0,1.8-0.82,1.8-1.82v-7.33h-3.83v7.33C-745.11,32.62-744.3,33.44-743.3,33.44z"/>
</g>
<g>
	<path d="M-860.5,38.02c0,1.03,0.85,1.86,1.9,1.86c1.05,0,1.9-0.83,1.9-1.86V26.54h-3.8V38.02z"/>
	<path d="M-855.65,22.11v15.91c0,0.71-0.26,1.36-0.7,1.86h16.94c1.06,0,1.92-0.83,1.92-1.86V22.11H-855.65z M-852.91,26.66h12.39
		v1.01h-12.39V26.66z M-840.52,36.03h-12.39v-1.01h12.39V36.03z M-840.45,31.85h-12.53v-1.01h12.53V31.85z"/>
</g>
<g>
	<path d="M-957.96,37.56v-8.79c0-0.27-0.23-0.48-0.52-0.48S-959,28.5-959,28.77v8.79l-1.44,2.69c-0.09,0.16-0.08,0.36,0.01,0.53
		c0.09,0.16,0.26,0.26,0.45,0.26h3c0.18,0,0.35-0.1,0.45-0.26c0.09-0.16,0.1-0.36,0.01-0.53L-957.96,37.56z"/>
	<path d="M-948.34,33.17c-0.08,0-0.16-0.02-0.23-0.06l-7.07-3.64v4.65c0,1.94,3.3,3.51,7.36,3.51c4.07,0,7.36-1.57,7.36-3.51v-4.71
		l-7.19,3.7C-948.18,33.15-948.26,33.17-948.34,33.17z"/>
	<polygon points="-937.5,26.46 -948.34,20.91 -959.15,26.48 -948.34,32.04 	"/>
</g>
<path d="M-875.95,23.17c-0.1-0.15-0.26-0.23-0.44-0.23h-3.61c-0.25,0-0.47,0.18-0.52,0.43l-0.38,2h-4.22l-0.38-2
	c-0.05-0.25-0.27-0.43-0.52-0.43h-3.61c-0.18,0-0.34,0.09-0.44,0.23l-3.43,5.12c1.05-0.83,2.37-1.33,3.81-1.33
	c2.5,0,4.66,1.51,5.62,3.66h2.12c0.96-2.15,3.11-3.66,5.62-3.66c1.44,0,2.76,0.5,3.81,1.33L-875.95,23.17z M-881.68,29.57h-2.64
	l-0.59-3.14h3.82L-881.68,29.57z"/>
<path d="M-889.68,28.29c-2.66,0-4.82,2.16-4.82,4.83c0,2.66,2.16,4.83,4.82,4.83c2.66,0,4.83-2.16,4.83-4.83
	C-884.85,30.45-887.01,28.29-889.68,28.29z"/>
<path d="M-876.32,28.29c-2.66,0-4.83,2.16-4.83,4.83c0,2.66,2.16,4.83,4.83,4.83c2.66,0,4.82-2.16,4.82-4.83
	C-871.5,30.45-873.66,28.29-876.32,28.29z"/>
<g>
	<path d="M-494.25,21.5c-2.87,0-2.87,2.81-5.74,2.81c-2.88,0-2.88-2.81-5.76-2.81c-2.88,0-2.88,2.81-5.75,2.81V30
		c1.24,0,1.85-0.59,2.54-1.27c0.74-0.72,1.58-1.54,3.21-1.54c1.63,0,2.47,0.82,3.21,1.54c0.7,0.68,1.3,1.27,2.55,1.27
		c1.24,0,1.84-0.59,2.54-1.27c0.74-0.72,1.58-1.54,3.21-1.54c1.63,0,2.47,0.82,3.21,1.54c0.7,0.68,1.3,1.27,2.54,1.27v-5.69
		C-491.37,24.31-491.37,21.5-494.25,21.5z"/>
	<path d="M-494.25,28.17c-1.24,0-1.85,0.59-2.54,1.27c-0.74,0.72-1.58,1.54-3.2,1.54c-1.63,0-2.47-0.82-3.21-1.54
		c-0.7-0.68-1.3-1.27-2.55-1.27c-1.25,0-1.85,0.59-2.55,1.27c-0.74,0.72-1.58,1.54-3.21,1.54v6.18c1.24,0,1.85-0.59,2.54-1.27
		c0.74-0.72,1.58-1.54,3.21-1.54c1.63,0,2.47,0.82,3.21,1.54c0.7,0.68,1.3,1.27,2.55,1.27c1.24,0,1.84-0.59,2.54-1.27
		c0.74-0.72,1.58-1.54,3.21-1.54c1.63,0,2.47,0.82,3.21,1.54c0.7,0.68,1.3,1.27,2.54,1.27v-6.18c-1.63,0-2.47-0.82-3.2-1.54
		C-492.4,28.76-493,28.17-494.25,28.17z"/>
	<path d="M-494.25,35.46c-1.24,0-1.85,0.59-2.54,1.27c-0.74,0.72-1.58,1.54-3.2,1.54c-1.63,0-2.47-0.82-3.21-1.54
		c-0.7-0.68-1.3-1.27-2.55-1.27c-1.25,0-1.85,0.59-2.55,1.27c-0.74,0.72-1.58,1.54-3.21,1.54v4.23h23v-4.23
		c-1.63,0-2.47-0.82-3.2-1.54C-492.4,36.05-493,35.46-494.25,35.46z"/>
</g>
<path d="M-459.85,109.44l-0.03-0.04h-8.17c-1.08,0-1.95,1.01-1.95,2.25v18.5c0,1.24,0.87,2.25,1.95,2.25h12.1
	c1.08,0,1.95-1.01,1.95-2.25v-13.84L-459.85,109.44z M-460.33,116.51l0.09-5.09l4.34,5.09H-460.33z M-468.5,111.65
	c0-0.31,0.21-0.57,0.45-0.57h6.32l-0.13,6.99l0,0.12h6.36v11.96c0,0.31-0.21,0.57-0.45,0.57h-12.1c-0.24,0-0.45-0.26-0.45-0.57
	V111.65z"/>
<g>
	<path d="M-405.15-16.9c0.24,0.43,0.37,0.87,0.39,1.31c0.05,1.38-0.94,2.38-1.73,3.19l-0.07,0.07c-0.1,0.1-0.19,0.2-0.29,0.3
		c-0.48,0.52-1.24,0.79-2.18,0.79c-0.87,0-1.92-0.23-3.02-0.68c-2.21-0.89-4.58-2.57-6.76-4.76c-4.24,0.92-7.09,2.6-7.09,4.52
		c0,2.91,6.49,5.27,14.5,5.27c8.01,0,14.5-2.36,14.5-5.27C-396.9-14.24-400.27-16.05-405.15-16.9z"/>
	<path d="M-411.5-32.9c0.03,0,0.06,0,0.09,0c2.22,0,4.3,0.99,5.72,2.74c1.44,1.77,2.01,4.07,1.57,6.32
		c-0.05,0.27,0.12,0.53,0.38,0.58c0.03,0.01,0.06,0.01,0.1,0.01c0.23,0,0.43-0.16,0.47-0.4c0.5-2.54-0.15-5.15-1.77-7.14
		c-1.63-2-3.99-3.12-6.56-3.09c-0.27,0-0.48,0.23-0.48,0.5C-411.98-33.11-411.77-32.9-411.5-32.9z"/>
	<path d="M-411.99-29.91c1.54-0.17,3.05,0.45,4.03,1.66c0.99,1.21,1.31,2.84,0.86,4.35c-0.08,0.26,0.07,0.54,0.32,0.62
		c0.05,0.01,0.09,0.02,0.14,0.02c0.21,0,0.4-0.14,0.46-0.35c0.54-1.83,0.15-3.8-1.04-5.27c-1.2-1.47-3.01-2.22-4.89-2.02
		c-0.27,0.03-0.46,0.27-0.43,0.54C-412.5-30.07-412.25-29.88-411.99-29.91z"/>
	<path d="M-412.42-27.22c0.83-0.1,1.65,0.24,2.19,0.9c0.54,0.66,0.71,1.54,0.47,2.36c-0.08,0.26,0.07,0.54,0.32,0.62
		c0.05,0.01,0.09,0.02,0.14,0.02c0.21,0,0.4-0.14,0.46-0.35c0.34-1.14,0.1-2.37-0.65-3.28c-0.75-0.92-1.89-1.39-3.04-1.25
		c-0.27,0.03-0.46,0.27-0.43,0.55C-412.92-27.39-412.68-27.2-412.42-27.22z"/>
	<path d="M-418.69-17.95c0.34,0.37,0.69,0.71,1.05,1.05c1.95,1.86,4.02,3.29,5.95,4.07c1.88,0.75,3.52,0.79,4.14,0.13
		c0.1-0.1,0.2-0.21,0.3-0.32l0.07-0.07c0.73-0.74,1.49-1.51,1.45-2.46c-0.02-0.51-0.28-1.02-0.78-1.56
		c-0.14-0.15-0.3-0.31-0.48-0.46c-2.39-2.05-3.07-1.32-4.19-0.11l-0.21,0.22c-0.01,0.01-0.03,0.02-0.04,0.03
		c-0.33,0.32-0.82,0.33-1.47,0.03c-0.23-0.11-0.48-0.25-0.74-0.44c-0.77-0.54-1.72-1.41-2.82-2.58c-2.61-2.79-3.52-4.53-2.77-5.34
		l0.21-0.22c1.12-1.17,1.85-1.95-0.1-4.54c-0.66-0.87-1.27-1.31-1.87-1.33c-0.02,0-0.03,0-0.05,0c-0.85,0-1.57,0.82-2.22,1.54
		c-0.16,0.18-0.26,0.29-0.36,0.4c-0.66,0.7-0.62,2.42,0.11,4.47C-422.64-22.99-420.93-20.34-418.69-17.95z"/>
	<polygon points="-418.52,-25.06 -418.52,-25.06 -418.52,-25.06 	"/>
</g>
<g>
	<path d="M-494.71-26.7c0-0.16,0.01-0.31,0.02-0.47h-4.54v2.04h4.71C-494.64-25.63-494.71-26.16-494.71-26.7z"/>
	<rect x="-501.73" y="-16.74" width="1.25" height="1.67"/>
	<path d="M-494.15-24.04h-12.58c-0.09,0-0.16,0.08-0.16,0.18v6.03h4.62h2.31h6.6h2.31h4.62v-2.62c-0.61,0.2-1.25,0.31-1.92,0.31
		C-490.93-20.15-493.16-21.75-494.15-24.04z"/>
	<rect x="-492.82" y="-16.74" width="1.25" height="1.67"/>
	<path d="M-490.51-14.52c0,0.3-0.24,0.55-0.53,0.55h-2.31c-0.29,0-0.53-0.24-0.53-0.55v-2.22h-5.54v2.22c0,0.3-0.24,0.55-0.53,0.55
		h-2.31c-0.29,0-0.53-0.24-0.53-0.55v-2.22h-4.09v7.4c0,0.1,0.07,0.17,0.16,0.17h20.15c0.09,0,0.16-0.08,0.16-0.17v-7.4h-4.09
		V-14.52z"/>
	<path d="M-483.08-23.01c-0.2,0.3-0.43,0.59-0.68,0.85c-0.25,0.26-0.51,0.5-0.8,0.72l0.5,0.51l0.75-0.77l0.75-0.77L-483.08-23.01z"
		/>
	<path d="M-483.04-26.7c0-3.01-2.38-5.46-5.3-5.46c-2.44,0-4.49,1.72-5.1,4.04c-0.06,0.22-0.1,0.45-0.13,0.69
		c-0.03,0.24-0.07,0.48-0.07,0.74c0,0.31,0.04,0.61,0.09,0.91c0.04,0.23,0.1,0.44,0.16,0.66c0.05,0.18,0.09,0.37,0.17,0.55
		c0.02,0.04,0.05,0.08,0.06,0.12c0.06,0.15,0.15,0.28,0.22,0.42c0.91,1.66,2.62,2.8,4.6,2.8c0.68,0,1.32-0.14,1.92-0.38
		c0.18-0.07,0.36-0.17,0.53-0.26c0.18-0.1,0.36-0.19,0.53-0.3C-483.96-23.17-483.04-24.83-483.04-26.7z"/>
	<polygon points="-482.03,-21.48 -483.1,-20.37 -478.98,-16.12 -477.89,-17.25 	"/>
</g>
<g>
	<path d="M-705.56-22.31c-0.35-0.78-0.55-1.8-0.61-2.87h-1.57C-707.55-23.89-706.71-22.82-705.56-22.31z"/>
	<path d="M-705.57-29.1c-1.15,0.52-1.98,1.58-2.17,2.86h1.57C-706.11-27.3-705.92-28.32-705.57-29.1z"/>
	<path d="M-700.35-14.44c-0.01,0-0.03,0.01-0.04,0.01h-7.24c-0.3,0-0.54-0.24-0.54-0.53c0-0.29,0.24-0.53,0.54-0.53h6.25
		c-0.31-0.39-0.49-0.87-0.49-1.38c0-0.61,0.24-1.17,0.67-1.6c0.86-0.85,2.38-0.85,3.24,0l2.54,2.51v-18.42
		c0-0.15-0.13-0.27-0.29-0.27h-16.61c-0.16,0-0.29,0.12-0.29,0.27v23.44c0,0.15,0.13,0.27,0.29,0.27h14.95
		c-0.11-0.38-0.21-0.75-0.28-1.09L-700.35-14.44z M-704.01-30.5c2.68,0,4.86,2.15,4.86,4.8c0,2.65-2.18,4.8-4.86,4.8
		c-2.68,0-4.85-2.15-4.85-4.8C-708.87-28.35-706.69-30.5-704.01-30.5z"/>
	<path d="M-704-22.02c0.3,0,0.98-1.08,1.08-3.15h-2.17C-704.98-23.1-704.31-22.02-704-22.02z"/>
	<path d="M-704-29.41c-0.3,0-0.98,1.09-1.08,3.17h2.17C-703.02-28.29-703.71-29.41-704-29.41z"/>
	<path d="M-700.29-26.24c-0.19-1.26-1.01-2.32-2.14-2.84c0.34,0.78,0.54,1.79,0.59,2.84H-700.29z"/>
	<path d="M-700.29-25.18h-1.56c-0.05,1.06-0.25,2.08-0.6,2.85C-701.3-22.84-700.47-23.91-700.29-25.18z"/>
	<path d="M-704.01-29.44c-0.03,0-0.06,0.01-0.1,0.01c0.04,0.01,0.07,0.02,0.11,0.02c0.04,0,0.07-0.01,0.1-0.02
		C-703.94-29.43-703.97-29.44-704.01-29.44z"/>
	<path d="M-704.01-21.97c0.06,0,0.12-0.01,0.18-0.02c-0.05-0.02-0.11-0.03-0.16-0.03c-0.06,0-0.12,0.02-0.17,0.03
		C-704.12-21.99-704.07-21.97-704.01-21.97z"/>
	<path d="M-687.44-11.08l-0.04-0.16c-0.99-3.7-4.05-8.72-4.59-9.6l-2.16-0.99l0.01,8.55l-0.12-0.11l-0.54-0.53l-0.54-0.53l-3.3-3.26
		c-0.46-0.45-1.26-0.45-1.71,0c-0.23,0.22-0.35,0.53-0.35,0.85s0.13,0.62,0.35,0.85l3.78,3.73l0.03,0.16
		c0.09,0.44,0.23,0.95,0.4,1.46c0.06,0.18,0.12,0.35,0.19,0.53c0.07,0.18,0.16,0.36,0.25,0.53c0.2,0.41,0.43,0.8,0.71,1.12
		c1.48,1.67,3.97,1.59,4,1.59l0.22-0.01l1.45,1.26l3.82-3.91L-687.44-11.08z"/>
</g>
<g>
	<path d="M-870.72-6.53h-3.84v-8.98h-0.97v8.98h-3.84c-0.27,0-0.49,0.22-0.49,0.48c0,0.27,0.22,0.48,0.49,0.48h4.33h4.33
		c0.27,0,0.49-0.22,0.49-0.48C-870.23-6.31-870.45-6.53-870.72-6.53z"/>
	<path d="M-867.05-29.47c-2.72,0-4.92,2.13-5.06,4.81c2.55,0.86,4.6,2.81,5.59,5.3c2.56-0.27,4.56-2.4,4.56-5.03
		C-861.96-27.2-864.24-29.47-867.05-29.47z"/>
	<path d="M-867.05-31.52c0.27,0,0.49-0.22,0.49-0.48v-2.07c0-0.27-0.22-0.48-0.49-0.48s-0.49,0.22-0.49,0.48V-32
		C-867.54-31.73-867.32-31.52-867.05-31.52z"/>
	<path d="M-871.82-30.35c0.09,0.13,0.24,0.21,0.4,0.21c0.1,0,0.19-0.03,0.28-0.09c0.22-0.15,0.27-0.46,0.12-0.67l-1.19-1.7
		c-0.15-0.22-0.46-0.27-0.68-0.12c-0.22,0.15-0.27,0.46-0.12,0.67L-871.82-30.35z"/>
	<path d="M-876.33-27.25l1.95,0.71c0.05,0.02,0.11,0.03,0.17,0.03c0.2,0,0.38-0.12,0.46-0.32c0.09-0.25-0.04-0.53-0.29-0.62
		l-1.95-0.71c-0.25-0.09-0.53,0.04-0.62,0.29C-876.71-27.62-876.58-27.34-876.33-27.25z"/>
	<path d="M-861.78-32.6l-1.19,1.7c-0.15,0.22-0.1,0.52,0.12,0.67c0.09,0.06,0.18,0.09,0.28,0.09c0.15,0,0.3-0.07,0.4-0.21l1.19-1.7
		c0.15-0.22,0.1-0.52-0.12-0.67C-861.32-32.87-861.63-32.82-861.78-32.6z"/>
	<path d="M-857.37-27.87c-0.09-0.25-0.37-0.38-0.62-0.29l-1.95,0.71c-0.25,0.09-0.38,0.37-0.29,0.62c0.07,0.2,0.26,0.32,0.46,0.32
		c0.05,0,0.11-0.01,0.17-0.03l1.95-0.71C-857.41-27.34-857.28-27.62-857.37-27.87z"/>
	<path d="M-862.35-18.04c-0.14-0.23-0.44-0.29-0.67-0.15c-0.23,0.14-0.29,0.44-0.15,0.67l1.11,1.75c0.09,0.15,0.25,0.22,0.41,0.22
		c0.09,0,0.18-0.02,0.26-0.08c0.23-0.14,0.29-0.44,0.15-0.67L-862.35-18.04z"/>
	<path d="M-857.88-21.63l-1.98-0.62c-0.26-0.08-0.53,0.06-0.61,0.32c-0.08,0.26,0.06,0.53,0.32,0.61l1.98,0.62
		c0.05,0.02,0.1,0.02,0.15,0.02c0.21,0,0.4-0.13,0.46-0.34C-857.48-21.27-857.62-21.55-857.88-21.63z"/>
	<path d="M-876.33-24.08c-3.76,0.59-6.68,3.73-6.91,7.6h4.05C-879.35-18.95-878.14-22.09-876.33-24.08z"/>
	<path d="M-872.06-23.62c-0.54-0.21-1.11-0.36-1.71-0.46c1.82,1.98,3.02,5.13,2.86,7.6h4.05c-0.06-1.02-0.31-2-0.72-2.89
		C-868.45-21.3-870.07-22.84-872.06-23.62z"/>
	<path d="M-875.05-23.96c-0.49,0.43-0.94,0.95-1.35,1.56c-0.15,0.23-0.3,0.46-0.44,0.71c-0.94,1.66-1.49,3.64-1.38,5.21h3.17h3.17
		c0.03-0.43,0.02-0.88-0.05-1.36c-0.05-0.38-0.13-0.76-0.23-1.16C-872.66-20.89-873.74-22.81-875.05-23.96z"/>
</g>
<g>
	<path d="M-904.99-13.32c-0.88,1.14-1.81,2.21-2.8,3.21c-0.44,0.45-1.04,0.71-1.67,0.71h-0.02c-0.64-0.01-1.22-0.27-1.66-0.73
		c-0.95-0.99-1.84-2.07-2.7-3.2c-3.89,0.62-6.62,2.03-6.62,3.67c0,2.21,4.92,4,11,4c6.08,0,11-1.79,11-4
		C-898.45-11.29-901.14-12.7-904.99-13.32z"/>
	<path d="M-912.68-13.49c0.72,0.93,1.47,1.82,2.26,2.65c0.25,0.27,0.59,0.42,0.95,0.42l0.01,0.5v-0.5c0.37,0,0.71-0.15,0.97-0.41
		c0.82-0.83,1.6-1.72,2.35-2.65c0.92-1.15,1.79-2.37,2.57-3.66c1.57-2.59,3.11-5.37,3.11-8.35c-0.02-5.06-4.06-9.17-9.01-9.17
		c-4.96,0-8.99,4.12-8.99,9.18c0,2.57,1.2,4.87,2.54,7.19C-914.93-16.58-913.85-14.98-912.68-13.49z M-912.7-24.09v-6.01
		c0-0.56,0.44-1.01,0.99-1.01h2.68c2.17,0,3.93,1.8,3.93,4.01c0,2.21-1.76,4.01-3.93,4.01h-1.69v3.33c0,0.56-0.44,1.01-0.99,1.01
		c-0.55,0-0.99-0.45-0.99-1.01V-24.09z"/>
	<path d="M-907.07-27.09c0-1.1-0.88-2-1.96-2h-1.69v3.99h1.69C-907.95-25.1-907.07-25.99-907.07-27.09z"/>
</g>
<g>
	<path d="M-839.28-21.45c0,0.88,0.71,1.59,1.58,1.59c0.46,0,0.89-0.2,1.19-0.55h13.19c0.3,0.35,0.73,0.55,1.19,0.55
		c0.87,0,1.57-0.71,1.57-1.59c0-0.46-0.2-0.9-0.55-1.2v-9.22c0.35-0.3,0.55-0.74,0.55-1.2c0-0.88-0.71-1.59-1.57-1.59
		c-0.46,0-0.89,0.2-1.19,0.55h-13.19c-0.3-0.35-0.73-0.55-1.18-0.55c-0.87,0-1.58,0.71-1.58,1.59c0,0.46,0.2,0.89,0.55,1.2v9.22
		C-839.08-22.34-839.28-21.91-839.28-21.45z M-838.07-32.57c-0.16-0.12-0.25-0.3-0.25-0.49c0-0.34,0.28-0.62,0.61-0.62
		c0.19,0,0.37,0.09,0.49,0.26c0.15,0.19,0.36,0.3,0.6,0.3h13.39c0.24,0,0.46-0.11,0.6-0.3c0.12-0.16,0.3-0.25,0.49-0.25
		c0.34,0,0.61,0.28,0.61,0.62c0,0.2-0.09,0.37-0.25,0.49c-0.19,0.14-0.3,0.37-0.3,0.61v9.42c0,0.24,0.11,0.47,0.3,0.61
		c0.16,0.12,0.25,0.3,0.25,0.49c0,0.34-0.27,0.62-0.61,0.62c-0.19,0-0.37-0.09-0.49-0.26c-0.14-0.19-0.37-0.3-0.6-0.3h-13.39
		c-0.23,0-0.45,0.11-0.6,0.3c-0.12,0.16-0.3,0.25-0.48,0.25c-0.34,0-0.61-0.28-0.61-0.62c0-0.19,0.09-0.37,0.24-0.49
		c0.19-0.14,0.3-0.37,0.3-0.61v-9.42C-837.77-32.21-837.89-32.43-838.07-32.57z"/>
	<path d="M-835.3-23.37h10.75c0.28,0,0.51-0.2,0.51-0.45v-6.87c0-0.25-0.23-0.45-0.51-0.45h-10.75c-0.28,0-0.51,0.2-0.51,0.45v6.87
		C-835.81-23.57-835.58-23.37-835.3-23.37z"/>
	<path d="M-816.42-6.63h-2.05v-7.69c0-0.02-0.01-0.04-0.01-0.06c0-0.03,0.01-0.06,0.01-0.09c0.85-0.22,1.48-0.99,1.48-1.91
		c0-1.09-0.88-1.98-1.96-1.98s-1.96,0.89-1.96,1.98c0,0.81,0.48,1.5,1.17,1.81c-2.89,1.56-6.46,2.43-10.14,2.43
		c-3.7,0-7.28-0.87-10.19-2.45c0.66-0.32,1.13-1,1.13-1.79c0-1.09-0.88-1.98-1.96-1.98s-1.96,0.89-1.96,1.98
		c0,0.94,0.65,1.72,1.51,1.92c-0.01,0.04-0.03,0.09-0.03,0.14v7.69h-2.05c-0.27,0-0.48,0.22-0.48,0.49s0.21,0.49,0.48,0.49h5.06
		c0.27,0,0.48-0.22,0.48-0.49s-0.21-0.49-0.48-0.49h-2.05v-7.05c3.02,1.61,6.72,2.51,10.53,2.51c3.78,0,7.45-0.88,10.46-2.47v7.01
		h-2.05c-0.27,0-0.48,0.22-0.48,0.49s0.21,0.49,0.48,0.49h5.06c0.27,0,0.48-0.22,0.48-0.49S-816.16-6.63-816.42-6.63z"/>
</g>
<path d="M-460.01-15.94c0.82-0.63,1.67-1.29,3.23-1.29c1.67,0,2.5,0.76,3.24,1.44c0.73,0.66,1.36,1.24,2.77,1.24
	c1.41,0,2.02-0.57,2.73-1.23c0.72-0.68,1.54-1.44,3.22-1.44c1.54,0,2.32,0.64,3.09,1.26c0.85,0.69,1.73,1.41,3.94,1.41v-2.8
	c-4.35,0-4.02-2.67-7.02-2.67c-0.87,0-1.47,0.23-1.96,0.55V-32.3c0-0.77,0.62-1.39,1.39-1.39c0.77,0,1.39,0.62,1.39,1.39h0.97
	c0-1.3-1.06-2.36-2.36-2.36c-1.3,0-2.36,1.06-2.36,2.36v2.21h-6.54v-2.21c0-0.77,0.62-1.39,1.39-1.39c0.77,0,1.39,0.62,1.39,1.39
	h0.97c0-1.3-1.06-2.36-2.36-2.36c-1.3,0-2.36,1.06-2.36,2.36v12.58c-0.41-0.18-0.89-0.3-1.51-0.3c-2.99,0-2.99,2.67-7.02,2.67v11.69
	h0v-0.37c2,0,2.91-0.7,3.79-1.38c0.82-0.63,1.67-1.29,3.23-1.29c1.66,0,2.5,0.76,3.24,1.44c0.73,0.66,1.36,1.24,2.77,1.24
	c1.41,0,2.02-0.57,2.73-1.23c0.72-0.68,1.54-1.44,3.22-1.44c1.54,0,2.32,0.64,3.09,1.26c0.85,0.69,1.73,1.41,3.94,1.41v-3.4
	c-2.55,0-3.66-0.9-4.55-1.63c-0.71-0.58-1.28-1.04-2.47-1.04c-1.29,0-1.88,0.55-2.55,1.18c-0.75,0.7-1.6,1.49-3.39,1.49
	c-1.8,0-2.66-0.79-3.43-1.49c-0.69-0.63-1.29-1.18-2.58-1.18c-1.22,0-1.84,0.48-2.63,1.09c-0.97,0.74-2.06,1.59-4.39,1.59v-0.97
	c2,0,2.91-0.7,3.79-1.38c0.82-0.63,1.67-1.29,3.23-1.29c1.66,0,2.5,0.76,3.24,1.44c0.73,0.66,1.36,1.24,2.77,1.24
	c1.41,0,2.02-0.57,2.73-1.23c0.72-0.68,1.54-1.44,3.22-1.44c1.54,0,2.32,0.64,3.09,1.26c0.85,0.69,1.73,1.41,3.94,1.41v-3.18
	c-2.55,0-3.66-0.9-4.55-1.63c-0.71-0.58-1.28-1.04-2.47-1.04c-1.29,0-1.88,0.55-2.55,1.18c-0.75,0.7-1.6,1.49-3.39,1.49
	c-1.8,0-2.66-0.79-3.43-1.49c-0.69-0.63-1.29-1.18-2.58-1.18c-1.22,0-1.84,0.48-2.63,1.09c-0.97,0.74-2.06,1.59-4.39,1.59v-0.97
	C-461.81-14.55-460.89-15.26-460.01-15.94z M-454.3-29.12h6.54v2.31h-6.54V-29.12z M-454.3-25.83h6.54v2.31h-6.54V-25.83z
	 M-454.3-22.55h6.54v2.31h-6.54V-22.55z M-454.3-19.27h6.54v0.6c-0.71,0.66-1.45,1.32-3.02,1.32c-1.91,0-2.61-0.97-3.52-1.74V-19.27
	z"/>
<g>
	<path d="M-542.38-5.66c6.23,0,12.43,0,18.65,0c0-3.46,0-6.9,0-10.35c-6.24,0-12.45,0-18.65,0C-542.38-12.54-542.38-9.1-542.38-5.66
		z"/>
	<path d="M-543.52-16.97c7.01,0,13.99,0,20.97,0c0-0.63,0-1.24,0-1.86c-7,0-13.98,0-20.97,0C-543.52-18.21-543.52-17.6-543.52-16.97
		z"/>
	<path d="M-526.58-24.71c-0.28-0.16-0.52-0.31-0.75-0.44c-0.13,0.05-0.22,0.09-0.31,0.12c-0.69,0.27-1.37,0.57-2.06,0.8
		c-0.71,0.24-1.32,0.04-1.79-0.55c-0.13-0.16-0.24-0.34-0.34-0.53c-0.25-0.47-0.26-0.96-0.02-1.43c0.13-0.25,0.32-0.47,0.5-0.73
		c-0.43-0.27-0.88-0.55-1.34-0.85c-1.49,2.21-2.96,4.41-4.46,6.64c2.9,0,5.76,0,8.61,0C-527.88-22.69-527.24-23.69-526.58-24.71z"/>
	<path d="M-523.24-19.87c-0.92-0.72-1.85-1.43-2.77-2.15c-0.06-0.05-0.14-0.09-0.21-0.1c-0.31-0.01-0.62,0-0.92,0
		c-0.1,0.16-0.19,0.3-0.3,0.47c0.24,0.01,0.43,0.02,0.63,0.03c0,0.31,0,0.6,0,0.89c-4.15,0-8.28,0-12.42,0c0-0.31,0-0.59,0-0.9
		c0.33,0,0.64,0,0.95,0c0.1-0.16,0.2-0.31,0.32-0.5c-0.6,0-1.14,0.01-1.67,0c-0.2,0-0.36,0.05-0.52,0.18
		c-0.83,0.66-1.67,1.31-2.5,1.96c-0.07,0.05-0.13,0.11-0.23,0.21c6.6,0,13.15,0,19.72,0C-523.21-19.83-523.22-19.86-523.24-19.87z"
		/>
	<path d="M-520.07-34.66l-2.01,1.6c-0.35,0.02-0.69,0.04-1.02,0.06c-1.39,0.08-2.75-0.13-4.1-0.47c-0.56-0.14-1.05-0.03-1.45,0.35
		c-0.34,0.33-0.67,0.7-0.91,1.1c-0.64,1.05-1.24,2.12-1.85,3.18c-0.03,0.06-0.05,0.12-0.09,0.2c0.39,0.24,0.76,0.46,1.11,0.68
		c0.55-0.09,0.9-0.38,1.18-0.78c0.22-0.31,0.46-0.6,0.72-0.88c0.65-0.69,1.78-0.69,2.44,0c0.31,0.33,0.26,0.67-0.16,0.86
		c-1.38,0.62-2.75,1.23-4.14,1.83c-0.28,0.12-0.53,0.27-0.65,0.55c-0.07,0.16-0.12,0.38-0.07,0.54c0.22,0.73,0.68,0.94,1.38,0.65
		c1.02-0.41,2.04-0.82,3.05-1.24c0.73-0.3,1.47-0.41,2.26-0.34c0.68,0.06,1.31-0.11,1.84-0.56c0.21-0.17,0.43-0.33,0.65-0.48
		c0.03-0.02,0.07-0.04,0.1-0.06l0,0l4.25-2.54L-520.07-34.66z"/>
</g>
<g>
	<path d="M-742.67-17.92h-15.16v2.2c0,0.09,0.07,0.17,0.16,0.17h16.41l-0.82-0.81C-742.52-16.8-742.71-17.37-742.67-17.92z"/>
	<path d="M-742.09-19.23c0.79-0.79,2.08-0.79,2.87,0l1.96,1.95v-12.56c0-0.09-0.07-0.17-0.16-0.17h-20.26
		c-0.09,0-0.16,0.07-0.16,0.17v10.85h15.55C-742.23-19.07-742.16-19.15-742.09-19.23z M-744.99-27.6c0.3,0,0.53,0.24,0.53,0.53
		s-0.24,0.53-0.53,0.53h-4.77c-0.3,0-0.53-0.24-0.53-0.53s0.24-0.53,0.53-0.53 M-739.66-25.2c0.3,0,0.53,0.24,0.53,0.53
		s-0.24,0.53-0.53,0.53h-10.1c-0.3,0-0.53-0.24-0.53-0.53s0.24-0.53,0.53-0.53 M-753.94-27.82c0.68,0,1.24,0.55,1.24,1.23
		c0,0.68-0.55,1.23-1.24,1.23c-0.68,0-1.24-0.55-1.24-1.23C-755.17-27.27-754.62-27.82-753.94-27.82z M-751.99-21.72h-3.89v-2.03
		c0-0.59,0.48-1.06,1.07-1.06h1.75c0.59,0,1.07,0.48,1.07,1.06V-21.72z M-739.66-22.96c0.3,0,0.53,0.24,0.53,0.53
		s-0.24,0.53-0.53,0.53h-10.1c-0.3,0-0.53-0.24-0.53-0.53s0.24-0.53,0.53-0.53"/>
	<path d="M-730.36-12.77l-0.04-0.16c-0.83-3.15-3.41-7.41-3.9-8.22l-1.71-0.8l0.01,7.41l-0.45-0.45l-0.38-0.38l-0.42-0.41l-2.71-2.7
		c-0.38-0.37-0.98-0.37-1.36,0c-0.01,0.01-0.01,0.03-0.02,0.04c-0.11,0.12-0.17,0.25-0.21,0.4c-0.08,0.32-0.02,0.67,0.23,0.92
		l1.57,1.56l0.53,0.53l0.53,0.53l0.6,0.6l0.03,0.16c0.19,0.96,0.58,2.28,1.3,3.1c1.25,1.42,3.33,1.34,3.35,1.34l0.21-0.01l1.21,1.06
		l3.16-3.25L-730.36-12.77z"/>
</g>
<g>
	<path d="M-787.28-11.09h-11.74V-25.4h22.61v3.33c0,0.27,0.22,0.49,0.49,0.49s0.49-0.22,0.49-0.49v-8.27c0-0.54-0.44-0.99-0.98-0.99
		h-3.44v-2.84c0-0.27-0.22-0.49-0.49-0.49c-0.27,0-0.49,0.22-0.49,0.49v2.84h-13.76v-2.84c0-0.27-0.22-0.49-0.49-0.49
		s-0.49,0.22-0.49,0.49v2.84h-3.44c-0.54,0-0.98,0.44-0.98,0.99v19.25c0,0.54,0.44,0.99,0.98,0.99h11.74c0.27,0,0.49-0.22,0.49-0.49
		C-786.79-10.87-787.01-11.09-787.28-11.09z"/>
	<rect x="-795.82" y="-23.18" width="3.44" height="3.46"/>
	<rect x="-790.41" y="-23.18" width="3.44" height="3.46"/>
	<rect x="-785.01" y="-23.18" width="3.44" height="3.46"/>
	<rect x="-795.82" y="-17.75" width="3.44" height="3.46"/>
	<rect x="-790.41" y="-17.75" width="3.44" height="3.46"/>
	<path d="M-778-19.73c-3.86,0-7,3.16-7,7.03s3.14,7.03,7,7.03s7-3.16,7-7.03S-774.14-19.73-778-19.73z M-778-6.65
		c-3.32,0-6.02-2.71-6.02-6.05s2.7-6.05,6.02-6.05s6.02,2.71,6.02,6.05S-774.68-6.65-778-6.65z"/>
	<path d="M-774.93-12.08h-3.44v-3.46c0-0.27-0.22-0.49-0.49-0.49s-0.49,0.22-0.49,0.49v4.44h4.42c0.27,0,0.49-0.22,0.49-0.49
		C-774.44-11.85-774.66-12.08-774.93-12.08z"/>
</g>
<path d="M-642.32-26.15c-0.1-0.5-0.39-0.92-0.8-1.2c-0.41-0.28-0.91-0.37-1.39-0.26c-0.48,0.11-0.9,0.4-1.16,0.82l-3.05,4.83v-11.73
	c0-0.53-0.42-0.97-0.94-0.97h-18.66c-0.52,0-0.94,0.44-0.94,0.97v27.06c0,0.53,0.42,0.97,0.94,0.97h18.66
	c0.52,0,0.94-0.44,0.94-0.97v-8.29l6.15-9.81C-642.31-25.15-642.21-25.66-642.32-26.15z M-652.58-10.56l-1.65,0.84l0.09-1.87
	l0.7-1.12l0.61-0.97l4.1-6.5l3.84-6.09c0.27-0.43,0.83-0.55,1.25-0.27c0.2,0.13,0.34,0.34,0.39,0.58c0.05,0.24,0.01,0.49-0.13,0.7
	l-5.36,8.54L-652.58-10.56z M-665.42-30.96h4.23v4.34h-4.23V-30.96z M-665.75-23.47h13.49c0.26,0,0.47,0.22,0.47,0.48
	s-0.21,0.48-0.47,0.48h-13.49c-0.26,0-0.47-0.22-0.47-0.48S-666.01-23.47-665.75-23.47z M-665.75-20.27h13.49
	c0.26,0,0.47,0.22,0.47,0.48c0,0.27-0.21,0.48-0.47,0.48h-13.49c-0.26,0-0.47-0.22-0.47-0.48
	C-666.22-20.05-666.01-20.27-665.75-20.27z M-665.75-17.06h13.49c0.14,0,0.26,0.06,0.34,0.16l-0.51,0.81h-13.32
	c-0.26,0-0.47-0.22-0.47-0.48C-666.22-16.85-666.01-17.06-665.75-17.06z M-666.22-13.19c0-0.27,0.21-0.48,0.47-0.48h11.79
	l-0.61,0.97h-11.18C-666.01-12.71-666.22-12.92-666.22-13.19z"/>
<g>
	<path d="M-952.31-26.47c-0.41,0-0.74,0.33-0.74,0.73v2.44c0,0.4,0.33,0.73,0.74,0.73c0.41,0,0.74-0.33,0.74-0.73v-2.44
		C-951.56-26.14-951.9-26.47-952.31-26.47z"/>
	<path d="M-952.31-21.78c-0.41,0-0.74,0.33-0.74,0.73c0,0.4,0.33,0.73,0.74,0.73c0.41,0,0.74-0.33,0.74-0.73
		C-951.56-21.45-951.9-21.78-952.31-21.78z"/>
	<path d="M-940.58-23.13v-9.03h-10.46v3.12l-0.27-0.44c-0.38-0.62-1.41-0.62-1.79,0l-5.92,9.55c-0.2,0.32-0.21,0.72-0.02,1.05
		c0.19,0.33,0.53,0.53,0.92,0.53h7.08v10.19h3.59v-4.36h3.23v4.36h3.58h0.06h10.41v-14.97H-940.58z M-949.71-30.62h2.89v2.86h-2.89
		V-30.62z M-946.82-25.99v2.86h-0.57l-1.77-2.86H-946.82z M-952.7-29.22L-952.7-29.22L-952.7-29.22L-952.7-29.22z M-946.82-14.1
		h-2.89v-2.86h2.89V-14.1z M-946.3-19.3h-4.75h-7.08l-0.07-0.12l5.91-9.55h0.14l1.1,1.78l1.34,2.16l1.18,1.91l2.3,3.71L-946.3-19.3z
		 M-942.14-14.1h-2.89v-2.86h2.89V-14.1z M-942.14-18.73h-2.89v-2.86h2.89V-18.73z M-942.14-23.13h-2.89v-2.86h2.89V-23.13z
		 M-942.14-27.75h-2.89v-2.86h2.89V-27.75z M-936.34-14.1h-2.89v-2.86h2.89V-14.1z M-936.34-18.73h-2.89v-2.86h2.89V-18.73z
		 M-931.66-14.1h-2.89v-2.86h2.89V-14.1z M-931.66-18.73h-2.89v-2.86h2.89V-18.73z"/>
</g>
<g>
	<path d="M-560.76-21.8c-0.79,0.57-1.72,0.91-2.73,0.91h-1.11v2.29h-3.14v-2.29h-6.28v2.29h-3.14v-2.29h-1.05
		c-1.08,0-2.08-0.38-2.91-1.04c-1.17,1.13-1.89,2.7-1.89,4.43v9.77c0,1.14,0.94,2.07,2.09,2.07h3.24v-9.32h13.6v9.32h2.98
		c1.15,0,2.09-0.93,2.09-2.07v-9.77C-559-19.17-559.67-20.68-560.76-21.8z"/>
	<path d="M-580.26-22.62c0.61,0.43,1.31,0.69,2.06,0.69h1.05v-1.76v-0.61h3.14v0.59v1.78h6.28v-1.78v-0.59h3.14v0.63v1.74h1.11
		c0.69,0,1.33-0.22,1.9-0.58c1.31-0.83,2.22-2.46,2.22-4.35v-1.73c0-1.05-0.72-1.94-1.57-1.94h-5.75v-0.52v-0.52v-0.5
		c0-1.43-1.17-2.59-2.61-2.59h-3.14c-1.44,0-2.61,1.16-2.61,2.59v0.5v0.52v0.52h-5.7c-0.85,0-1.57,0.89-1.57,1.94v1.73
		C-582.32-25.05-581.48-23.48-580.26-22.62z M-574.01-31.05v-0.52v-0.5c0-0.86,0.7-1.55,1.57-1.55h3.14c0.87,0,1.57,0.7,1.57,1.55
		v0.5v0.52v0.52h-6.28V-31.05z"/>
	<polygon points="-576.1,-21.41 -576.1,-20.9 -576.1,-19.64 -575.05,-19.64 -575.05,-20.9 -575.05,-21.41 -575.05,-21.93 
		-575.05,-23.27 -576.1,-23.27 -576.1,-21.93 	"/>
	<polygon points="-566.69,-21.41 -566.69,-20.9 -566.69,-19.64 -565.64,-19.64 -565.64,-20.9 -565.64,-21.41 -565.64,-21.93 
		-565.64,-23.27 -566.69,-23.27 -566.69,-21.93 	"/>
	<rect x="-576.62" y="-13.94" width="11.5" height="2.07"/>
	<rect x="-576.62" y="-10.84" width="11.5" height="5.18"/>
</g>
<g>
	<path d="M-617-28.34c1.75,0,3.16-1.42,3.16-3.17s-1.42-3.17-3.16-3.17c-1.75,0-3.16,1.42-3.16,3.17S-618.74-28.34-617-28.34z"/>
	<path d="M-599.7-17.13c-2.35-0.42-3.38-2.15-5.64-5.94l-0.11-0.19c-2.06-3.45-4.92-5.2-8.49-5.2c-0.28,0-0.51,0.23-0.51,0.51
		s0.23,0.51,0.51,0.51c3.24,0,5.73,1.54,7.62,4.7l0.11,0.19c2.13,3.56,3.29,5.51,5.57,6.23c-0.6,0.73-1.89,1.99-4.11,2.74
		c-3.28,1.11-5.87-0.71-6.39-1.46c-0.16-0.23-0.47-0.29-0.7-0.13c-0.23,0.16-0.29,0.48-0.13,0.71c0.66,0.95,2.64,2.24,5.14,2.24
		c0.76,0,1.57-0.12,2.4-0.4c3.63-1.23,5.01-3.67,5.07-3.77L-599-17L-599.7-17.13z"/>
	<path d="M-613.6-16.81v-1.61c0.37,0.75,1.28,1.17,2.11,0.2c1.4-1.65,1.4-1.65,2.34-2.82c0.94-1.18,0-2.12-0.7-2.59
		c-0.7-0.47-2.81-1.88-3.98-2.59c-1.17-0.71-3.04-0.71-3.04-0.71s-1.87,0-3.04,0.71c-1.17,0.71-3.28,2.12-3.98,2.59
		c-0.7,0.47-1.64,1.41-0.7,2.59c0.94,1.18,0.94,1.18,2.34,2.82c0.83,0.97,1.74,0.55,2.11-0.2v1.61c0,0-1.64,7.76-1.87,8.93
		c-0.23,1.18,0.23,1.88,1.17,2.12c0.94,0.24,1.87,0,2.11-1.41c0.23-1.41,1.87-7.99,1.87-7.99s1.64,6.58,1.87,7.99
		s1.17,1.65,2.11,1.41c0.94-0.24,1.4-0.94,1.17-2.12C-611.96-9.05-613.6-16.81-613.6-16.81z M-613.6-22.69l1.64,0.94
		c0,0-0.7,0.94-1.4,1.65c-0.1,0.1-0.17,0.2-0.23,0.32V-22.69z M-620.16-19.79c-0.06-0.11-0.14-0.22-0.23-0.32
		c-0.7-0.71-1.4-1.65-1.4-1.65l1.64-0.94V-19.79z M-616.96-21.47l-2.03-2.29l1.05-0.93h1.97l0.99,0.99L-616.96-21.47z"/>
</g>
<path d="M-623.26,153.54l-8.46-8.43l-1.83,1.79l6.51,6.49h-15.7v0h-2.5v13.5h2.5v-10.96h15.82l-6.63,6.48l1.81,1.8l8.46-8.28
	C-622.6,155.28-622.6,154.21-623.26,153.54z"/>
<g>
	<path d="M-457.35,162.33c0,0.36-0.29,0.66-0.66,0.66h-12.35c-0.36,0-0.66-0.29-0.66-0.66V143.4c0-0.36,0.29-0.66,0.66-0.66h12.35
		c0.36,0,0.66,0.29,0.66,0.66v4.8l1.31-1.31v-3.49c0-1.09-0.88-1.97-1.97-1.97h-12.35c-1.09,0-1.97,0.88-1.97,1.97v18.93
		c0,1.09,0.88,1.97,1.97,1.97h12.35c1.09,0,1.97-0.88,1.97-1.97v-6.99l-1.31,1.31V162.33z"/>
	<rect x="-469.05" y="145.14" width="9.73" height="1.31"/>
	<rect x="-469.05" y="148.65" width="9.73" height="1.31"/>
	<polygon points="-461.3,152.15 -469.05,152.15 -469.05,153.46 -462.62,153.46 	"/>
	<polygon points="-469.05,156.97 -464.73,156.97 -464.33,155.66 -469.05,155.66 	"/>
	<path d="M-451.01,147.58c-0.01-0.11-0.03-0.22-0.06-0.32c-0.07-0.26-0.21-0.51-0.42-0.71c-0.04-0.04-0.08-0.08-0.13-0.11
		c-0.02-0.01-0.03-0.02-0.05-0.04c-0.03-0.02-0.06-0.04-0.08-0.06c-0.02-0.01-0.04-0.02-0.06-0.04c-0.03-0.02-0.05-0.03-0.08-0.05
		c-0.02-0.01-0.04-0.02-0.07-0.03c-0.03-0.01-0.05-0.03-0.08-0.04c-0.02-0.01-0.05-0.02-0.07-0.02c-0.03-0.01-0.06-0.02-0.08-0.03
		c-0.02-0.01-0.05-0.01-0.07-0.02c-0.03-0.01-0.06-0.01-0.08-0.02c-0.02,0-0.05-0.01-0.07-0.01c-0.03,0-0.06-0.01-0.09-0.01
		c-0.03,0-0.05,0-0.08,0c-0.02,0-0.05,0-0.07,0c0,0-0.01,0-0.01,0c-0.03,0-0.06,0-0.09,0c-0.03,0-0.05,0-0.08,0
		c-0.03,0-0.06,0.01-0.09,0.01c-0.02,0-0.05,0.01-0.07,0.01c-0.03,0.01-0.06,0.01-0.09,0.02c-0.02,0.01-0.05,0.01-0.07,0.02
		c-0.03,0.01-0.06,0.02-0.09,0.03c-0.02,0.01-0.05,0.02-0.07,0.03c-0.03,0.01-0.06,0.03-0.09,0.04c-0.02,0.01-0.04,0.02-0.07,0.03
		c-0.03,0.02-0.06,0.03-0.09,0.05c-0.02,0.01-0.04,0.02-0.06,0.04c-0.03,0.02-0.06,0.05-0.09,0.07c-0.01,0.01-0.03,0.02-0.04,0.03
		c-0.05,0.04-0.09,0.08-0.13,0.12l-2.16,2.16l-1.31,1.31l-2.09,2.09l-1.31,1.31l-2.16,2.16c-0.01,0.01-0.02,0.02-0.03,0.04
		c-0.02,0.03-0.04,0.05-0.05,0.09l-0.37,1.23l-0.49,1.61c-0.01,0.03-0.01,0.05-0.01,0.07c0,0.01,0,0.02,0,0.02
		c0,0.02,0,0.03,0.01,0.05c0,0.01,0.01,0.02,0.01,0.03c0,0.01,0.01,0.03,0.02,0.04c0,0.01,0.01,0.02,0.01,0.02
		c0.01,0.01,0.02,0.02,0.03,0.03c0.01,0.01,0.01,0.01,0.02,0.02c0.01,0.01,0.02,0.02,0.03,0.03c0.01,0,0.01,0.01,0.02,0.01
		c0.02,0.01,0.03,0.01,0.05,0.02c0.01,0,0.01,0,0.02,0.01c0.02,0.01,0.04,0.01,0.07,0.01c0,0,0,0,0,0c0.03,0,0.05,0,0.08-0.01
		l2.84-0.87c0.02-0.01,0.04-0.02,0.06-0.03c0.02-0.01,0.04-0.03,0.06-0.04l1.02-1.02l0.21-0.21l1.97-1.97l1.31-1.31l4.53-4.53
		c0.29-0.29,0.46-0.66,0.5-1.04c0.01-0.05,0.01-0.11,0.01-0.16C-451,147.69-451,147.64-451.01,147.58z"/>
</g>
<path class="st0" d="M-588.31,153.63l-6.1-5.17c-0.36-0.31-0.81-0.5-1.28-0.57c-0.19-0.04-0.39-0.07-0.59-0.07h-11.73
	c-1.37,0-2.48,1.03-2.48,2.31v10.38c0,1.27,1.11,2.31,2.48,2.31h11.73c0.07,0,0.13,0,0.2-0.01c0.65,0.02,1.29-0.19,1.78-0.61
	l6.01-5.17c0.05-0.05,0.1-0.09,0.15-0.14C-587.22,155.95-587.3,154.49-588.31,153.63z M-599.66,159.07l-3.09-3.12l-3.09,3.12
	l-0.66-0.66l3.09-3.12l-3.09-3.06l0.66-0.66l3.09,3.06l3.09-3.06l0.66,0.66l-3.09,3.06l3.09,3.12L-599.66,159.07z"/>
<polygon points="-567.22,131.5 -576.5,122.48 -574.42,120.4 -567.64,126.99 -555.93,110.5 -553.5,112.18 "/>
<path d="M-811,188c-11.24,0-16.33-4.14-20.04-7.16c-2.54-2.07-3.81-3.1-6.97-3.1c-3.38,0-4.62,1.15-7.08,3.45
	c-3.08,2.88-7.3,6.82-15.8,6.82c-8.46,0-12.76-3.92-15.9-6.78c-2.47-2.25-3.83-3.49-7.22-3.49c-3.33,0-4.87,1.19-7.68,3.34
	c-3.8,2.92-9,6.92-19.32,6.92v-11.73c6.31,0,8.88-1.98,12.14-4.48c3.35-2.58,7.52-5.79,14.86-5.79c7.96,0,12.12,3.79,15.15,6.56
	c2.62,2.39,4.07,3.71,7.96,3.71c3.85,0,5.24-1.3,7.76-3.65c2.99-2.79,7.09-6.62,15.12-6.62c7.34,0,11.26,3.19,14.4,5.75
	c3.1,2.53,5.55,4.52,12.6,4.52V188z"/>
<polygon class="st0" points="-666.5,144.9 -666.5,154.4 -657,154.4 -657,157.4 -666.5,157.4 -666.5,166.9 -669.5,166.9 
	-669.5,157.4 -679,157.4 -679,154.4 -669.5,154.4 -669.5,144.9 "/>
<g>
	<defs>
		<rect id="SVGID_3_" x="-715" y="154" width="22" height="3"/>
	</defs>
	<clipPath id="SVGID_4_">
		<use xlink:href="#SVGID_3_"  style="overflow:visible;"/>
	</clipPath>
	<g class="st3">
		<g>
			<defs>
				<rect id="SVGID_5_" x="-720" y="144" width="32" height="24"/>
			</defs>
			<clipPath id="SVGID_6_">
				<use xlink:href="#SVGID_5_"  style="overflow:visible;"/>
			</clipPath>
			<g class="st4">
				<defs>
					<rect id="SVGID_7_" x="-715" y="154" width="22" height="3"/>
				</defs>
				<clipPath id="SVGID_8_">
					<use xlink:href="#SVGID_7_"  style="overflow:visible;"/>
				</clipPath>
				<rect x="-720" y="149" class="st5" width="32" height="13"/>
			</g>
			<g class="st4">
				<defs>
					<rect id="SVGID_9_" x="-716" y="144" width="24" height="24"/>
				</defs>
				<clipPath id="SVGID_10_">
					<use xlink:href="#SVGID_9_"  style="overflow:visible;"/>
				</clipPath>
				<g class="st6">
					<defs>
						<rect id="SVGID_11_" x="-715" y="154" width="22" height="3"/>
					</defs>
					<clipPath id="SVGID_12_">
						<use xlink:href="#SVGID_11_"  style="overflow:visible;"/>
					</clipPath>
					<rect x="-721" y="139" class="st7" width="34" height="34"/>
				</g>
			</g>
		</g>
	</g>
</g>
<g>
	<path d="M-345.98,123.51c-3.81-3.85-7.59-5.79-11.25-5.79c-0.05,0-0.09,0.01-0.14,0.01c-0.05,0-0.11-0.01-0.16-0.01
		c-0.47,0-0.93,0.05-1.37,0.15c-5.47,0.87-9.32,5.66-9.36,5.71l-0.23,0.3l0.12,0.36c0.08,0.25,3.89,4.44,8.5,5.82
		c0.73,0.28,1.52,0.44,2.35,0.44c0.08,0,0.16-0.01,0.24-0.01c0.07,0,0.13,0.01,0.2,0.01c3.84,0,7.58-2.02,11.14-6l0.45-0.51
		L-345.98,123.51z M-357.38,129.02c-0.56-0.02-1.12-0.11-1.67-0.24c-2.01-0.64-3.48-2.48-3.48-4.68c0-2.37,1.7-4.35,3.96-4.83
		c0.05-0.01,0.1-0.01,0.16-0.02c0.2-0.04,0.41-0.05,0.62-0.06c0.12-0.01,0.23-0.01,0.35-0.02c2.71,0.05,4.9,2.24,4.9,4.92
		C-352.54,126.77-354.7,128.94-357.38,129.02z M-366.7,123.99c0.7-0.77,1.91-1.9,3.44-2.87c-0.48,0.89-0.75,1.91-0.75,2.98
		c0,0.93,0.21,1.81,0.57,2.6C-364.94,125.68-366.12,124.58-366.7,123.99z M-352.23,127.76c0.74-1.04,1.17-2.3,1.17-3.66
		c0-1.3-0.4-2.51-1.08-3.52c1.51,0.81,3.05,1.95,4.61,3.46C-349.08,125.69-350.65,126.93-352.23,127.76z"/>
	<path d="M-357.53,120.33c-2.11,0-3.83,1.7-3.83,3.78c0,2.08,1.72,3.78,3.83,3.78c2.11,0,3.83-1.7,3.83-3.78
		C-353.71,122.02-355.42,120.33-357.53,120.33z M-357.53,126.43c-1.29,0-2.35-1.04-2.35-2.32c0-1.28,1.05-2.32,2.35-2.32
		c1.29,0,2.35,1.04,2.35,2.32C-355.19,125.38-356.24,126.43-357.53,126.43z"/>
	<rect x="-357.83" y="109.5" width="1.48" height="4.81"/>
	<polygon points="-359.63,114.85 -362.06,110.06 -363.38,110.71 -360.95,115.5 	"/>
	<polygon points="-350.81,110.71 -352.13,110.06 -354.56,114.85 -353.24,115.5 	"/>
	<polygon points="-363.11,116.26 -366.8,112.62 -367.84,113.65 -364.15,117.3 	"/>
	<polygon points="-350.04,117.3 -346.35,113.65 -347.39,112.62 -351.08,116.26 	"/>
</g>
<g>
	<path d="M-383.73-12.43l-0.54,0.04V-29c-0.5,0.09-1.01,0.19-1.53,0.32V-9c0,0,6.76-2.17,13.39-0.34
		C-376.67-12.89-383.66-12.43-383.73-12.43z"/>
	<path d="M-358.33-29v16.61l-0.54-0.04c-0.07,0-7.06-0.47-11.32,3.09C-363.56-11.17-356.8-9-356.8-9v-19.68
		C-357.32-28.81-357.83-28.91-358.33-29z"/>
	<path d="M-383.27-30.94v1.8v15.68c0.15,0,0.33-0.01,0.53-0.01c2.21,0,7.36,0.35,10.94,3.32v-16.8c-0.16-0.16-0.46-0.44-0.89-0.78
		C-374.37-29.08-378.08-31.39-383.27-30.94z"/>
	<path d="M-359.33-13.47v-15.68v-1.8c-5.19-0.45-8.9,1.86-10.58,3.21c-0.43,0.34-0.73,0.62-0.89,0.78v16.8
		C-366.9-13.4-361.12-13.52-359.33-13.47z"/>
</g>
<g>
	<path d="M-332.48-22.31h7.77v-3.57v-1.02v-1.55c-0.39-0.59-2.59-3.07-3.15-3.56h-9.63v5.11v1.02v7.55c0.5-0.98,0.82-1.61,0.98-1.87
		C-335.54-21.83-334.63-22.31-332.48-22.31z M-335.46-27.91h8.11v1.02h-8.11V-27.91z M-335.46-25.36h8.11v1.02h-8.11V-25.36z"/>
	<path d="M-314.02-20.53c-0.21-0.35-0.67-0.76-1.67-0.76h-4.58v-3.06c0-1.41-1.14-2.55-2.53-2.55h-0.9v1.02h0.9
		c0.84,0,1.52,0.69,1.52,1.53v3.06h-2.42h-0.51h-0.51h-7.77c-1.79,0-2.38,0.3-3.16,1.62c-0.25,0.42-0.99,1.89-1.85,3.62
		c-0.17,0.33-0.33,0.68-0.51,1.03c-0.17,0.34-0.34,0.69-0.51,1.03c-0.99,2.01-1.94,3.98-2.37,4.85c-0.54-0.24-0.92-0.78-0.92-1.4
		v-13.79c0-0.84,0.68-1.53,1.52-1.53h1.76v-1.02h-1.76c-1.4,0-2.53,1.15-2.53,2.55v13.79c0,1.03,0.61,1.92,1.49,2.32l0.3,0.11
		c0.24,0.08,0.49,0.13,0.75,0.13h17.47c0.26,0,0.51-0.05,0.75-0.13c1.44,0,2.58-0.01,3.39-1.64c0.21-0.43,1-1.92,1.86-3.55
		c1.05-1.99,2.24-4.23,2.63-5.03C-313.62-19.45-313.79-20.14-314.02-20.53z"/>
</g>
<g>
	<path d="M-276.64-9.22c-1.44,0-2.17,0.72-2.81,1.35c-0.58,0.57-1.04,1.02-2.03,1.02c-0.98,0-1.44-0.45-2.02-1.02
		c-0.64-0.63-1.37-1.35-2.81-1.35c-1.43,0-2.16,0.72-2.81,1.35c-0.58,0.57-1.04,1.02-2.02,1.02c-0.98,0-1.44-0.45-2.03-1.02
		c-0.64-0.63-1.37-1.35-2.81-1.35c-1.44,0-2.17,0.72-2.81,1.35c-0.58,0.57-1.04,1.02-2.03,1.02v1.15c1.43,0,2.16-0.72,2.81-1.35
		c0.58-0.57,1.05-1.03,2.03-1.03c0.98,0,1.45,0.45,2.03,1.03c0.64,0.63,1.37,1.35,2.81,1.35c1.43,0,2.16-0.72,2.8-1.35
		c0.58-0.57,1.04-1.02,2.02-1.02c0.98,0,1.44,0.45,2.03,1.03c0.64,0.63,1.37,1.35,2.8,1.35c1.43,0,2.16-0.72,2.81-1.35
		c0.58-0.57,1.05-1.03,2.03-1.03c0.98,0,1.45,0.45,2.03,1.03c0.64,0.63,1.37,1.35,2.81,1.35v-1.15c-0.98,0-1.44-0.45-2.03-1.02
		C-274.47-8.51-275.2-9.22-276.64-9.22z"/>
	<path d="M-273.83-11.72c-0.64-0.63-1.37-1.35-2.81-1.35c-1.44,0-2.17,0.72-2.81,1.35c-0.58,0.57-1.04,1.02-2.02,1.02
		c-0.98,0-1.44-0.45-2.02-1.02c-0.64-0.63-1.37-1.35-2.81-1.35c-1.43,0-2.16,0.72-2.81,1.35c-0.58,0.57-1.04,1.02-2.02,1.02
		c-0.98,0-1.44-0.45-2.03-1.02c-0.64-0.63-1.37-1.35-2.81-1.35c-1.44,0-2.17,0.72-2.81,1.35c-0.58,0.57-1.04,1.02-2.02,1.02v1.15
		c1.43,0,2.16-0.72,2.81-1.35c0.58-0.57,1.05-1.03,2.03-1.03c0.98,0,1.45,0.45,2.03,1.03c0.64,0.63,1.37,1.35,2.81,1.35
		c1.43,0,2.16-0.72,2.8-1.35c0.58-0.57,1.04-1.03,2.02-1.03c0.98,0,1.44,0.45,2.03,1.03c0.64,0.63,1.37,1.35,2.8,1.35
		c1.43,0,2.16-0.72,2.81-1.35c0.58-0.57,1.05-1.03,2.03-1.03c0.98,0,1.45,0.45,2.03,1.03c0.64,0.63,1.37,1.35,2.81,1.35v-1.15
		C-272.78-10.7-273.24-11.15-273.83-11.72z"/>
</g>
<g>
	<ellipse cx="-297.25" cy="-24.62" rx="1.41" ry="1.43"/>
	<path d="M-276.44-21.95c-0.28-1.53-0.94-3.53-4.4-7.26c-3.47-3.72-9.56-5.25-10.49-5.44s-1.03,0.19-0.84,0.86
		c0,0,6.37,16.62,6.84,17.86c0.47,1.24,1.03,1.05,1.78,0.57s4.78-3.06,5.9-3.82C-276.54-19.94-276.16-20.42-276.44-21.95z"/>
	<path d="M-289.94-18.03c-0.37-0.38-0.47-0.48-0.94-0.48c-0.47,0-2.72,0-2.72,0l-1.22-2.87h1.69c0,0,2.06-0.86,2.62-1.15
		c0.56-0.29,0.37-0.67,0.37-0.86s-0.37-0.67-0.84-0.48c-0.47,0.19-2.34,1.05-2.34,1.05s-3.19,0-4.03,0c-0.84,0-1.22,0.48-0.94,1.15
		c0.28,0.67,1.41,3.63,1.59,4.01c0.19,0.38,0.75,1.15,1.59,1.15c0.84,0,3.94,0,3.94,0s1.59,1.53,2.25,2.1
		c0.66,0.57,1.03,0.38,1.41,0.1c0.37-0.29,0.37-0.96,0-1.34S-289.56-17.65-289.94-18.03z"/>
</g>
<g>
	<path d="M-252.51-8.88h3.29v-11.26h3.29v11.26h3.29v-11.26h3.29v11.26h3.29v-12.85h2.53v-1.96l-10.24-5.07v-1.86v-0.04
		c0,0,0.76,0.49,1.77,0.49s1.64-0.37,2.4-0.37c0.76,0,1.9,0.37,1.9,0.37v-3.18c0,0-0.88-0.49-1.64-0.49c-0.76,0-2.02,0.37-2.78,0.37
		c-0.76,0-1.64-0.61-1.64-0.61c0-0.34-0.28-0.61-0.63-0.61c-0.35,0-0.63,0.28-0.63,0.61v5.33l-9.98,4.95v1.84c1.01,0,2.53,0,2.53,0
		V-8.88z"/>
	<polygon points="-235.58,-8.27 -253.4,-8.27 -255.8,-5.7 -232.8,-5.7 	"/>
</g>
<path d="M-203.86-31l-2.8,3.25l-0.28,0.39l0.37,0.31c0.62,0.52,0.7,1.44,0.17,2.05c-0.13,0.15-0.29,0.27-0.46,0.36l-6.96-2.29
	l-1.37,4.04l-0.11,0.47l0.46,0.15c0.37,0.12,0.68,0.38,0.85,0.73c0.18,0.35,0.2,0.74,0.08,1.11c-0.12,0.37-0.39,0.67-0.74,0.84
	s-0.75,0.2-1.16,0.07l-0.47-0.17l-1.53,4.51l18.7,6.16l0.47-1.39l1.69,1.41l3.14-3.65l-0.43-0.3l-0.08-0.06
	c-0.3-0.25-0.49-0.6-0.52-0.99c-0.03-0.39,0.09-0.76,0.35-1.06c0.25-0.3,0.61-0.48,1.01-0.51c0.39-0.03,0.78,0.09,1.08,0.34
	l0.07,0.07l0.37,0.36l3.14-3.65L-203.86-31z M-199.71-10.23l-16.86-5.55l0.92-2.71c0.49,0.07,0.99-0.01,1.44-0.23
	c0.59-0.29,1.02-0.78,1.23-1.39c0.21-0.61,0.16-1.27-0.13-1.84c-0.22-0.44-0.57-0.79-1.01-1.03l0.92-2.72l3.73,1.23l-2.53,2.94
	l6.3,5.25l-5.58-1.84l-0.31,0.91l7.89,2.6l4.26,3.55L-199.71-10.23z M-199.01-15.82l-0.71-0.59l-2.5-2.08l-0.71-0.59l-2.5-2.09
	l0.63-0.73l5.77,4.81l0.65,0.54L-199.01-15.82z M-196.67-18.47l-0.18-0.15l-3.39-2.82l-2.01-1.67l-0.85-0.7l0.63-0.73l2.71,2.26
	l2.01,1.67l1.23,1.02l0.48,0.4L-196.67-18.47z"/>
<g>
	<path d="M-158.61-11.28c-1.44,0-2.81-0.54-3.9-1.47h-10.3c-0.26,0-0.47-0.22-0.47-0.48s0.21-0.48,0.47-0.48h9.39
		c-0.21-0.28-0.41-0.57-0.58-0.88l-0.05-0.09c-0.07-0.13-0.15-0.27-0.19-0.38c-0.03-0.06-0.06-0.12-0.09-0.18
		c-0.06-0.16-0.11-0.33-0.16-0.5l-0.04-0.15c-0.02-0.08-0.05-0.16-0.07-0.25h-8.21c-0.26,0-0.47-0.22-0.47-0.48s0.21-0.48,0.47-0.48
		h8.03c-0.02-0.2-0.04-0.41-0.04-0.64c0-0.28,0.03-0.53,0.06-0.75l0.02-0.11c0.03-0.26,0.08-0.5,0.14-0.73h-8.21
		c-0.26,0-0.47-0.22-0.47-0.48c0-0.27,0.21-0.48,0.47-0.48h8.53c0.36-0.87,0.9-1.62,1.56-2.23h-10.09c-0.26,0-0.47-0.22-0.47-0.48
		s0.21-0.48,0.47-0.48h11.44c0.84-0.44,1.78-0.7,2.76-0.7c0.92,0,1.79,0.21,2.58,0.59v-10.12c0-0.53-0.42-0.97-0.93-0.97h-18.41
		c-0.51,0-0.93,0.44-0.93,0.97v27.06c0,0.53,0.42,0.97,0.93,0.97h18.41c0.51,0,0.93-0.44,0.93-0.97v-5.23
		c-0.11,0.05-0.2,0.11-0.32,0.16C-157.09-11.43-157.85-11.28-158.61-11.28z M-172.5-31h4.17v4.34h-4.17V-31z"/>
	<path d="M-153.43-14.05c-0.2,0.3-0.42,0.59-0.67,0.85c-0.24,0.26-0.51,0.5-0.79,0.72l0.49,0.51l0.74-0.77l0.74-0.77L-153.43-14.05z
		"/>
	<path d="M-153.81-15.58c0.28-0.66,0.43-1.4,0.43-2.16c0-0.35-0.03-0.7-0.09-1.03c-0.06-0.33-0.15-0.66-0.27-0.97
		c-0.08-0.21-0.17-0.41-0.27-0.6c-0.16-0.31-0.35-0.6-0.56-0.87c-0.32-0.4-0.69-0.76-1.11-1.06c-0.11-0.08-0.23-0.15-0.34-0.22
		c-0.76-0.45-1.64-0.72-2.58-0.72c-0.16,0-0.31,0.03-0.46,0.04c-0.73,0.07-1.42,0.27-2.02,0.62c-0.89,0.51-1.61,1.29-2.09,2.23
		c-0.16,0.31-0.29,0.63-0.39,0.97c-0.02,0.06-0.04,0.11-0.06,0.17c-0.06,0.22-0.1,0.45-0.13,0.69c-0.03,0.24-0.07,0.48-0.07,0.74
		c0,0.22,0.02,0.43,0.05,0.64c0.01,0.09,0.02,0.19,0.04,0.28c0.04,0.23,0.1,0.44,0.16,0.66c0,0.01,0.01,0.02,0.01,0.03
		c0.05,0.17,0.09,0.35,0.15,0.51c0.02,0.04,0.04,0.08,0.06,0.12c0.06,0.15,0.14,0.28,0.22,0.42c0.28,0.51,0.64,0.97,1.05,1.36
		c0.19,0.18,0.39,0.35,0.61,0.5c0.83,0.58,1.81,0.94,2.88,0.94c0.67,0,1.3-0.14,1.89-0.38c0.18-0.07,0.35-0.17,0.52-0.26
		c0.06-0.03,0.11-0.06,0.16-0.09c0.12-0.07,0.25-0.13,0.36-0.21c0.17-0.12,0.34-0.26,0.5-0.4c0.41-0.38,0.77-0.82,1.05-1.31
		C-154.01-15.14-153.9-15.36-153.81-15.58z"/>
	<polygon points="-152.38,-12.52 -153.45,-11.41 -149.38,-7.17 -148.3,-8.3 	"/>
</g>
<g>
	<path d="M-102.07-18.45l-4.66-4.33c-0.52,0.42-0.64,1.12-0.64,1.66c0,0.11,0,0.2,0.02,0.41l0.11,1.14h-1.12h-2.34h-0.94l-0.08-0.95
		c-0.03-0.37-0.03-0.67-0.03-1.03c0-1.75,0.57-3.17,1.71-4.29l-0.69-0.45l-1.65-0.21l-2.58-0.32l-0.66-0.08l-0.19-0.65
		c-0.13-0.47-0.2-0.99-0.2-1.59c0-0.66,0.1-1.32,0.29-1.96l-0.03-0.03c-0.32-0.29-0.81-0.29-1.12,0l-13.67,12.69
		c-0.25,0.24-0.34,0.6-0.21,0.93c0.12,0.33,0.43,0.54,0.78,0.54h3.27v10.44c0,0.47,0.37,0.85,0.83,0.85h6.83
		c0.46,0,0.83-0.38,0.83-0.85v-7.62h3.8v7.62c0,0.47,0.37,0.85,0.83,0.85h6.83c0.46,0,0.83-0.38,0.83-0.85v-10.44h3.27
		c0.34,0,0.65-0.21,0.78-0.54C-101.73-17.85-101.82-18.22-102.07-18.45z M-109.56-12.95c-1.51,0-2.74-1.25-2.74-2.79
		c0-1.56,1.23-2.82,2.74-2.82c1.53,0,2.77,1.27,2.77,2.82C-106.79-14.2-108.03-12.95-109.56-12.95z"/>
	<path d="M-112.25-27.53c-0.04-0.12-0.08-0.29-0.11-0.47c-0.05-0.27-0.08-0.58-0.08-0.85c0-1.7,1.01-3.46,3.32-3.46
		c2.12,0,3.16,1.49,3.16,3.08c0,1.05-0.5,2.03-1.41,2.65l-1.17,0.81c-0.29,0.2-0.53,0.41-0.76,0.62c-1.01,0.97-1.45,2.14-1.45,3.6
		c0,0.35,0,0.62,0.03,0.95h2.34c-0.03-0.27-0.03-0.38-0.03-0.51c0-0.93,0.29-1.77,0.91-2.36c0.09-0.08,0.16-0.17,0.26-0.24
		l1.22-0.84c1.54-1.05,2.71-2.54,2.71-4.71c0-2.76-2.1-5.44-5.82-5.44c-3.47,0-5.27,2.19-5.74,4.38c-0.08,0.39-0.13,0.79-0.13,1.17
		c0,0.49,0.05,0.92,0.16,1.3L-112.25-27.53z"/>
	<path d="M-109.56-17.53c-0.6,0-1.12,0.32-1.43,0.79c-0.19,0.29-0.29,0.63-0.29,0.99v0c0,0.12,0.01,0.24,0.03,0.36
		c0.16,0.8,0.85,1.4,1.69,1.4c0.84,0,1.55-0.6,1.72-1.4c0.02-0.11,0.04-0.23,0.04-0.36v0c0-0.37-0.11-0.71-0.3-0.99
		C-108.43-17.21-108.96-17.53-109.56-17.53z"/>
</g>
<g>
	<path d="M-71.01-29.32c-4.94,0.01-8.89,4.08-8.88,9.17c0.01,5.01,4,9.08,8.9,9.06c4.94-0.01,8.87-4.09,8.86-9.19
		C-62.14-25.26-66.13-29.33-71.01-29.32z M-71.06-14.23c-3.2-0.02-5.79-2.73-5.76-6.04c0.02-3.26,2.66-5.91,5.86-5.9
		c3.18,0.02,5.78,2.72,5.77,5.99C-65.22-16.88-67.84-14.22-71.06-14.23z"/>
	<path d="M-58.44-29.71c-1.01,0.98-1.67,2.19-1.78,3.58c-0.16,2.12-0.14,4.25-0.17,6.38c-0.01,0.47,0.35,0.78,0.83,0.85
		c0.71,0.1,0.95,0.38,0.96,1.11c0,1.99,0,3.98,0,5.97c0,0.27-0.01,0.54,0.01,0.8c0.04,0.44,0.37,0.75,0.79,0.79
		c0.44,0.04,0.84-0.22,0.95-0.64c0.05-0.19,0.05-0.39,0.05-0.59c0-6.07,0-12.14,0-18.21c0-0.17,0-0.33,0-0.5
		C-57.45-30.28-57.97-30.16-58.44-29.71z"/>
	<path d="M-81.1-27.18c0-0.83,0.01-1.67-0.01-2.5c-0.01-0.16-0.14-0.38-0.28-0.46c-0.12-0.07-0.37-0.02-0.48,0.08
		c-0.11,0.1-0.16,0.32-0.16,0.49c-0.01,1.04-0.01,2.09,0,3.13c0,0.29-0.06,0.54-0.36,0.63c-0.31,0.09-0.56-0.16-0.56-0.59
		c-0.01-1.04,0-2.09,0-3.13c0-0.34-0.06-0.64-0.47-0.66c-0.33-0.02-0.49,0.2-0.49,0.67c0,1-0.01,2,0,3.01
		c0,0.35-0.03,0.67-0.45,0.72c-0.31,0.03-0.47-0.23-0.47-0.74c0-1.02,0-2.03,0-3.05c0-0.34-0.1-0.61-0.47-0.61
		c-0.36,0-0.49,0.26-0.49,0.6c0,1.55-0.01,3.11,0.01,4.66c0.01,0.88,0.38,1.59,1.13,2.04c0.25,0.15,0.33,0.32,0.32,0.6
		c-0.01,3.61-0.01,7.23-0.01,10.84c0,0.16-0.01,0.31,0.01,0.46c0.1,0.66,0.81,1,1.36,0.65c0.35-0.23,0.44-0.58,0.44-0.99
		c-0.01-3.66,0-7.31,0-10.97c0-0.22-0.02-0.41,0.24-0.56c0.8-0.46,1.19-1.18,1.19-2.12C-81.1-25.71-81.1-26.45-81.1-27.18
		C-81.1-27.18-81.1-27.18-81.1-27.18z"/>
	<path d="M-70.99-25.11c-2.66,0-4.83,2.2-4.82,4.91c0.01,2.73,2.16,4.93,4.81,4.92c2.65-0.01,4.77-2.2,4.77-4.91
		C-66.22-22.91-68.35-25.11-70.99-25.11z"/>
</g>
<g>
	<path d="M24.21-8.12c0,0-0.19-6.51-2.61-10.41c0,0,3.17-4.09,4.48-7.81c0,0-5.6,2.42-7.28,2.97l-5.6-5.39l-0.93,6.13l-4.59-0.11
		l1.23-2.67c0,0,1.49-0.37,3.17-0.93l-2.8-0.93v-3.72l-2.05,1.67l-2.43-2.23l0.93,3.35c0,0-3.17,1.49-4.11,1.86
		c0,0,2.43,0.93,4.67,0.93l0.33,2.65L4.79-22.8l1.97,1.21l0.08,0.65l0.21-0.46l4.08,2.51c0,0-1.87,6.51-4.29,9.67
		c0,0,2.05,0.37,10.64-5.21C17.49-14.44,19.17-14.07,24.21-8.12z M17.86-22.06c0.52,0,0.93,0.42,0.93,0.93
		c0,0.51-0.42,0.93-0.93,0.93c-0.52,0-0.93-0.42-0.93-0.93C16.93-21.64,17.34-22.06,17.86-22.06z M14.13-21.5
		c0.52,0,0.93,0.42,0.93,0.93c0,0.51-0.42,0.93-0.93,0.93c-0.52,0-0.93-0.42-0.93-0.93C13.19-21.09,13.61-21.5,14.13-21.5z
		 M19.49-18.31c-0.74,1.1-1.72,1.8-2.86,2.02c-0.19,0.04-0.37,0.06-0.57,0.06c-0.79,0-1.64-0.33-2.71-1.04
		c-0.18-0.12-0.23-0.36-0.11-0.54c0.12-0.18,0.36-0.22,0.54-0.11c1.14,0.76,1.95,1.02,2.69,0.87c0.94-0.19,1.74-0.76,2.36-1.69
		c0.12-0.18,0.36-0.23,0.54-0.11C19.56-18.73,19.61-18.49,19.49-18.31z"/>
	<path d="M24.21-7.37c-2.37,0-4.29,0.37-4.29,0.84c0,0.46,1.92,0.84,4.29,0.84c2.37,0,4.29-0.37,4.29-0.84
		C28.5-7,26.58-7.37,24.21-7.37z"/>
	<ellipse cx="20.29" cy="-27.45" rx="1.31" ry="1.3"/>
	<ellipse cx="16.46" cy="-32.19" rx="1.59" ry="1.58"/>
	<path d="M5.07-16.67c-0.88,0-1.59,0.71-1.59,1.58c0,0.87,0.71,1.58,1.59,1.58s1.59-0.71,1.59-1.58
		C6.66-15.96,5.95-16.67,5.07-16.67z"/>
	<polygon points="2.37,-31.91 3.67,-30.98 3.3,-32.28 4.05,-33.4 2.93,-33.4 2.74,-34.7 2.18,-33.58 0.5,-33.77 1.62,-32.47 
		1.06,-30.98 	"/>
</g>
<g>
	<polygon points="72.1,-23.5 57.3,-30.7 43.1,-23.5 57.3,-16.3 	"/>
	<path d="M47.83-19.3c0,0,0,3.6,0,4.8s3.55,4.8,9.47,4.8s9.47-3.6,9.47-5.4s0-4.2,0-4.2l-9.47,4.8L47.83-19.3z"/>
	<path d="M70.32-13.73v-7.37l-1.18,0.6v6.77c-0.35,0.21-0.59,0.59-0.59,1.03c0,0.66,0.53,1.2,1.18,1.2s1.18-0.54,1.18-1.2
		C70.92-13.14,70.68-13.53,70.32-13.73z"/>
</g>
<g>
	<path d="M-1027.17,26.67c-3.12,0-5.66,2.59-5.66,5.76s2.54,5.76,5.66,5.76c3.12,0,5.66-2.59,5.66-5.76
		S-1024.05,26.67-1027.17,26.67z M-1027.17,36.7c-2.29,0-4.15-1.92-4.15-4.27s1.86-4.27,4.15-4.27c2.29,0,4.15,1.92,4.15,4.27
		S-1024.88,36.7-1027.17,36.7z"/>
	<path d="M-1027.14,24.98c0.42,0,0.75-0.33,0.75-0.75v-2.99c0-0.41-0.34-0.75-0.75-0.75s-0.75,0.33-0.75,0.75v2.99
		C-1027.9,24.65-1027.56,24.98-1027.14,24.98z"/>
	<path d="M-1027.14,39.02c-0.42,0-0.75,0.33-0.75,0.75v2.99c0,0.41,0.34,0.75,0.75,0.75s0.75-0.33,0.75-0.75v-2.99
		C-1026.39,39.35-1026.72,39.02-1027.14,39.02z"/>
	<path d="M-1034.02,32.5c0-0.41-0.34-0.75-0.75-0.75h-2.92c-0.42,0-0.75,0.33-0.75,0.75c0,0.41,0.34,0.75,0.75,0.75h2.92
		C-1034.36,33.24-1034.02,32.91-1034.02,32.5z"/>
	<path d="M-1016.21,31.75h-2.92c-0.42,0-0.75,0.33-0.75,0.75c0,0.41,0.34,0.75,0.75,0.75h2.92c0.42,0,0.75-0.33,0.75-0.75
		C-1015.45,32.08-1015.79,31.75-1016.21,31.75z"/>
	<path d="M-1021.52,27.36c0.2,0,0.39-0.08,0.54-0.23l2.07-2.11c0.29-0.3,0.28-0.77-0.02-1.06s-0.78-0.28-1.07,0.02l-2.07,2.11
		c-0.29,0.3-0.28,0.77,0.02,1.06C-1021.9,27.3-1021.71,27.36-1021.52,27.36z"/>
	<path d="M-1033.04,37.33l-2.07,2.11c-0.29,0.3-0.28,0.77,0.02,1.06c0.15,0.14,0.34,0.21,0.52,0.21c0.2,0,0.39-0.08,0.54-0.23
		l2.07-2.11c0.29-0.3,0.28-0.77-0.02-1.06C-1032.28,37.03-1032.76,37.03-1033.04,37.33z"/>
	<path d="M-1020.95,37.66c-0.29-0.3-0.77-0.3-1.07-0.02c-0.3,0.29-0.31,0.76-0.02,1.06l2.06,2.11c0.15,0.15,0.35,0.23,0.54,0.23
		c0.19,0,0.38-0.07,0.52-0.21c0.3-0.29,0.31-0.76,0.02-1.06L-1020.95,37.66z"/>
	<path d="M-1033.04,27.4c0.15,0.15,0.35,0.23,0.54,0.23c0.19,0,0.38-0.07,0.52-0.21c0.3-0.29,0.31-0.76,0.02-1.06l-2.07-2.11
		c-0.29-0.3-0.77-0.3-1.07-0.02c-0.3,0.29-0.31,0.76-0.02,1.06L-1033.04,27.4z"/>
</g>
<g>
	<path d="M-1091.7,25.61c0.05,0.26,0.28,0.43,0.52,0.43c0.04,0,0.07,0,0.11-0.01c0.29-0.06,0.48-0.35,0.41-0.64l-0.41-1.96
		c-0.06-0.29-0.34-0.48-0.64-0.42c-0.29,0.06-0.48,0.35-0.41,0.64L-1091.7,25.61z"/>
	<path d="M-1082.51,29.31c-0.06-0.29-0.35-0.48-0.64-0.42l-1.87,0.4c-0.29,0.06-0.48,0.35-0.41,0.64c0.05,0.26,0.28,0.43,0.52,0.43
		c0.04,0,0.07,0,0.11-0.01l1.87-0.4C-1082.64,29.89-1082.45,29.6-1082.51,29.31z"/>
	<path d="M-1087.53,26.75c0.09,0.06,0.19,0.08,0.29,0.08c0.18,0,0.35-0.09,0.45-0.25l1.04-1.66c0.16-0.25,0.08-0.59-0.17-0.75
		c-0.25-0.16-0.58-0.08-0.74,0.17l-1.04,1.66C-1087.86,26.26-1087.78,26.59-1087.53,26.75z"/>
	<path d="M-1085.35,33.41c-0.24-0.17-0.58-0.1-0.74,0.15c-0.17,0.25-0.1,0.58,0.14,0.75l1.61,1.1c0.09,0.06,0.2,0.09,0.3,0.09
		c0.17,0,0.34-0.08,0.45-0.24c0.17-0.25,0.1-0.58-0.14-0.75L-1085.35,33.41z"/>
	<path d="M-1094.56,28.41c0.09,0.06,0.2,0.09,0.3,0.09c0.17,0,0.34-0.08,0.44-0.24c0.17-0.25,0.1-0.58-0.14-0.75l-1.61-1.1
		c-0.25-0.17-0.58-0.1-0.74,0.15c-0.17,0.25-0.1,0.58,0.14,0.75L-1094.56,28.41z"/>
	<path d="M-1087.01,36.02c-0.07-0.48-0.27-1.27-0.84-2c1.16-0.88,1.76-2.41,1.44-3.92c-0.21-1.02-0.79-1.89-1.63-2.46
		c-0.84-0.58-1.85-0.78-2.84-0.57c-1.62,0.34-2.77,1.73-2.94,3.35c-1.3-0.92-2.96-1.28-4.66-0.9c-2.83,0.63-4.45,2.54-4.41,5.15
		c-1.65,0.37-2.62,1.51-2.62,3.12c0,1.33,0.99,3.21,3.18,3.21h14.55c1.28,0,2.65-0.63,2.65-2.41
		C-1085.12,37.03-1086.19,36.28-1087.01,36.02z M-1090.65,28.12c0.7-0.15,1.41,0,2.01,0.41c0.61,0.42,1.03,1.05,1.18,1.79
		c0.24,1.16-0.25,2.34-1.18,2.94c-1.11-0.8-2.58-0.73-3.31-0.62c-0.21-0.44-0.47-0.84-0.77-1.2l0.02,0
		C-1093.02,29.91-1092.1,28.42-1090.65,28.12z M-1087.77,39.92h-14.55c-1.59,0-2.11-1.44-2.11-2.13c0-0.85,0.38-1.91,2.18-2.13
		l0.51-0.06l-0.05-0.52c-0.28-3.16,2.1-4.17,3.55-4.5c0.34-0.08,0.7-0.12,1.07-0.12c1.7,0,3.56,0.86,4.4,2.99l0.17,0.44l0.45-0.11
		c0.02-0.01,1.88-0.45,2.97,0.43c1.09,0.88,1.12,2.2,1.12,2.25l0,0.46l0.45,0.07c0.14,0.02,1.39,0.26,1.39,1.6
		C-1086.19,39.69-1087.05,39.92-1087.77,39.92z"/>
</g>
<path d="M-1050.62,27.84c-0.12-0.73-0.51-1.98-1.69-2.92c-1.25-0.99-2.95-0.95-3.86-0.83c-1.37-2.7-4.32-4.09-7.38-3.41
	c-3.18,0.7-5.02,2.8-5.03,5.68c-1.84,0.45-2.92,1.74-2.92,3.54c0,1.52,1.14,3.67,3.69,3.67h1.36l-1.18,3.27
	c-0.14,0.38,0.06,0.81,0.45,0.94c0.08,0.03,0.17,0.04,0.25,0.04c0.3,0,0.59-0.19,0.7-0.49l1.24-3.45c0.04-0.1,0.05-0.21,0.04-0.31
	h1.15l-3.3,8.95c-0.14,0.38,0.06,0.81,0.44,0.95c0.08,0.03,0.17,0.05,0.26,0.05c0.3,0,0.59-0.19,0.7-0.48l3.37-9.14
	c0.04-0.11,0.05-0.21,0.04-0.32h1.35l-2.04,6.04c-0.13,0.39,0.08,0.8,0.47,0.93c0.08,0.03,0.16,0.04,0.24,0.04
	c0.31,0,0.6-0.19,0.7-0.5l2.19-6.5c0,0,0,0,0-0.01h1.37l-3.2,8.66c-0.14,0.38,0.06,0.81,0.44,0.95c0.08,0.03,0.17,0.05,0.26,0.05
	c0.3,0,0.59-0.19,0.7-0.48l3.37-9.14c0-0.01,0-0.02,0-0.03h1.39l-2.04,6.04c-0.13,0.39,0.08,0.8,0.47,0.93
	c0.08,0.03,0.16,0.04,0.24,0.04c0.31,0,0.6-0.19,0.7-0.5l2.19-6.5c0,0,0,0,0-0.01h1.88c1.91,0,3.1-1.07,3.1-2.79
	C-1048.5,29.03-1049.68,28.17-1050.62,27.84z M-1051.6,32.08h-16.21c-1.67,0-2.21-1.48-2.21-2.19c0-1.27,0.77-2.01,2.3-2.2
	l0.71-0.09l-0.06-0.71c-0.31-3.35,2.28-4.43,3.84-4.78c0.37-0.08,0.76-0.12,1.16-0.12c1.84,0,3.86,0.92,4.77,3.19l0.24,0.6
	l0.63-0.16c0.02,0,2.03-0.47,3.19,0.45c1.16,0.93,1.19,2.3,1.2,2.35l0.01,0.63l0.63,0.1c0.24,0.04,1.43,0.29,1.43,1.62
	C-1049.98,31.64-1050.53,32.08-1051.6,32.08z"/>
<g>
	<g>
		<g>
			<path class="st8" d="M12.93,16.51c0-1.54-1.25-2.79-2.79-2.79s-2.79,1.25-2.79,2.79h1.69c0-0.6,0.49-1.1,1.1-1.1
				s1.1,0.49,1.1,1.1H12.93z"/>
			<path class="st8" d="M19.85,13.73c-1.54,0-2.79,1.25-2.79,2.79h1.69c0-0.6,0.49-1.1,1.1-1.1s1.1,0.49,1.1,1.1h1.69
				C22.64,14.98,21.39,13.73,19.85,13.73L19.85,13.73z"/>
			<path class="st8" d="M15,21.46c-1.07,0-2.07-0.57-2.62-1.5l-1.46,0.86c0.85,1.44,2.41,2.33,4.07,2.33s3.23-0.89,4.07-2.33
				l-1.46-0.86C17.07,20.89,16.07,21.46,15,21.46L15,21.46z"/>
			<path class="st8" d="M28.39,13.57c-0.54-0.54-1.22-0.9-1.96-1.04C24.84,7.61,20.22,4.22,15,4.22h-0.57
				c-1.37,0-2.48-1.11-2.48-2.48h-1.7c0,0.93,0.3,1.79,0.82,2.48h-0.54c-1.37,0-2.48-1.11-2.48-2.48h-1.7c0,1.85,1.2,3.42,2.87,3.97
				c-2.63,1.45-4.69,3.86-5.65,6.83c-0.74,0.14-1.42,0.5-1.96,1.04c-0.81,0.81-1.21,1.93-1.08,3.09c0.07,0.67,0.32,1.31,0.73,1.84
				c0.58,0.77,1.4,1.27,2.31,1.44c1.59,4.92,6.21,8.31,11.44,8.31s9.84-3.39,11.44-8.31c0.91-0.17,1.73-0.68,2.31-1.44
				c0.41-0.54,0.66-1.17,0.73-1.84C29.6,15.5,29.21,14.38,28.39,13.57L28.39,13.57z M25.72,18.24l-0.63,0.01l-0.17,0.61
				c-1.21,4.46-5.29,7.58-9.92,7.58s-8.71-3.12-9.92-7.58l-0.17-0.61l-0.63-0.01c-1.12-0.02-2.02-0.95-2.02-2.06
				c0-0.55,0.21-1.07,0.6-1.46c0.38-0.38,0.88-0.59,1.42-0.6l0.63-0.01l0.17-0.61c1.2-4.45,5.26-7.56,9.87-7.58
				c1.43-0.01,2.72,1.16,2.82,2.58c0.11,1.61-1.17,2.96-2.77,2.96c-1.53,0-2.77-1.24-2.77-2.77h-1.69c0,2.54,2.13,4.59,4.7,4.46
				c2.26-0.12,4.09-1.94,4.22-4.2c0.04-0.79-0.12-1.55-0.44-2.21c2.84,1.21,5.07,3.66,5.9,6.76l0.17,0.61l0.63,0.01
				c0.54,0.01,1.04,0.22,1.42,0.6c0.39,0.39,0.61,0.91,0.61,1.46C27.74,17.29,26.83,18.22,25.72,18.24L25.72,18.24z"/>
		</g>
	</g>
</g>
</svg>
