<?xml version="1.0" encoding="utf-8"?>
<!-- Generator: Adobe Illustrator 23.1.0, SVG Export Plug-In . SVG Version: 6.00 Build 0)  -->
<svg version="1.1" id="Calque_1" xmlns="http://www.w3.org/2000/svg" xmlns:xlink="http://www.w3.org/1999/xlink" x="0px" y="0px"
	 viewBox="0 0 35 36" style="enable-background:new 0 0 35 36;" xml:space="preserve">
<style type="text/css">
	.st0{fill:#FFFFFF;}
</style>
<g>
	<g>
		<path class="st0" d="M8.8,22.7c0-2.9,0-5.7,0-8.6c0-0.3,0.1-0.4,0.3-0.5c2.7-1.5,5.3-3,7.9-4.5c0.2-0.1,0.3-0.1,0.5,0
			c2.7,1.5,5.3,3,8,4.5c0.2,0.1,0.3,0.3,0.3,0.5c0,5.8,0,11.6,0,17.4c0,0.2-0.1,0.3-0.3,0.3c-0.9,0-1.7,0-2.6,0
			c-0.3,0-0.3-0.1-0.3-0.3c0-2.5,0-4.9,0-7.4c0-0.7-0.2-0.9-0.9-0.9c-2.9,0-5.9,0-8.8,0c-0.7,0-0.9,0.2-0.9,0.9c0,2.5,0,4.9,0,7.4
			c0,0.3,0,0.4-0.3,0.3c-0.8,0-1.7,0-2.5,0c-0.3,0-0.3-0.1-0.3-0.4C8.8,28.5,8.8,25.6,8.8,22.7z M17.4,16.3c1.5,0,2.7-1.2,2.7-2.7
			c0-1.5-1.2-2.7-2.7-2.7c-1.5,0-2.7,1.2-2.7,2.7C14.7,15.1,15.9,16.3,17.4,16.3z"/>
		<path class="st0" d="M7.6,23.9c0,2.5,0,5,0,7.4c0,0.3-0.1,0.4-0.4,0.4c-2.3,0-4.6,0-6.9,0C0,31.7,0,31.6,0,31.4
			c0-4.9,0-9.9,0-14.8c0-0.3,0.1-0.4,0.4-0.4c2.3,0,4.6,0,6.9,0c0.3,0,0.4,0.1,0.4,0.4C7.6,19,7.6,21.5,7.6,23.9z"/>
		<path class="st0" d="M34.7,23.9c0,2.5,0,5,0,7.4c0,0.3,0,0.4-0.3,0.4c-2.3,0-4.6,0-6.9,0c-0.3,0-0.4-0.1-0.4-0.4
			c0-4.9,0-9.9,0-14.8c0-0.3,0.1-0.4,0.4-0.4c2.3,0,4.6,0,6.9,0c0.3,0,0.3,0.1,0.3,0.3C34.7,19,34.7,21.5,34.7,23.9z"/>
		<path class="st0" d="M16.7,28.1c0,1.1,0,2.2,0,3.4c0,0.2,0,0.3-0.3,0.3c-0.9,0-1.9,0-2.8,0c-0.2,0-0.3-0.1-0.3-0.3
			c0-2.3,0-4.5,0-6.8c0-0.2,0.1-0.3,0.3-0.3c0.9,0,1.9,0,2.8,0c0.2,0,0.3,0.1,0.3,0.3C16.7,25.8,16.7,27,16.7,28.1z"/>
		<path class="st0" d="M18,28c0-1.1,0-2.2,0-3.3c0-0.3,0-0.4,0.3-0.3c0.9,0,1.8,0,2.8,0c0.2,0,0.3,0,0.3,0.3c0,2.3,0,4.5,0,6.8
			c0,0.3-0.1,0.3-0.3,0.3c-0.9,0-1.8,0-2.8,0c-0.2,0-0.3-0.1-0.3-0.3C18,30.3,18,29.2,18,28z"/>
		<path class="st0" d="M16,13.6c0-0.8,0.6-1.4,1.4-1.4c0.8,0,1.4,0.6,1.4,1.4c0,0.8-0.6,1.4-1.4,1.4C16.6,15,16,14.4,16,13.6z"/>
	</g>
	<path class="st0" d="M23.1,6.7c0.4,0,0.3-3,0.3-3.6c0-0.7-0.2-0.9-0.9-0.9c-1.2,0-2.4,0-3.6,0c-0.7,0-0.7,0-0.7-0.7
		c0-0.4-0.3-0.7-0.7-0.7c-0.4,0-0.6,0.3-0.6,0.7c0,0.1,0,0.2,0,0.3c0,2.1-0.1,4.3,0,6.4c0,0.9-0.3,1.3-1,1.8l2.4-0.6
		c-0.2-0.3,0-0.8-0.1-1.2c0-0.1,0-0.2,0-0.4c0-0.3-0.1-0.7,0.1-0.9c0.2-0.1,0.6,0,0.8,0C19.8,6.8,22.4,6.8,23.1,6.7z"/>
</g>
</svg>
