<?xml version="1.0" encoding="utf-8"?>
<!-- Generator: Adobe Illustrator 23.1.0, SVG Export Plug-In . SVG Version: 6.00 Build 0)  -->
<svg version="1.1" id="Calque_1" xmlns="http://www.w3.org/2000/svg" xmlns:xlink="http://www.w3.org/1999/xlink" x="0px" y="0px"
	 viewBox="0 0 24 24" style="enable-background:new 0 0 24 24;" xml:space="preserve">
<g>
	<path d="M0.4,15.6c0-0.2,0-0.5,0-0.7c0-0.5,0.2-1.2,0.3-1.7c0.3-1,1-1.5,2-1.8C3.3,11.3,4,11.1,4.5,11h0.2c0.5,0.5,1.2,0.7,1.8,0.7
		l0,0C6.1,11.8,6,12,5.7,12.1c-1,0.8-1.7,2-2,3.3c-0.2,1-0.3,2.1-0.3,3.1c0,0.2,0,0.3-0.3,0.2c-0.8-0.2-1.5-0.5-2.1-0.8
		c-0.2-0.2-0.5-0.3-0.7-0.5C0.4,16.8,0.4,16.1,0.4,15.6z"/>
	<path d="M12.1,21.9c-1.7,0-3.3-0.2-4.8-0.7c-0.8-0.2-1.5-0.5-2.1-1.2c-0.2,0-0.2-0.2-0.3-0.2c-0.2-0.2-0.3-0.5-0.3-0.7
		c0-1,0-2.1,0.2-3.1c0.2-1,0.5-1.8,1.2-2.5c0.7-0.5,1.3-0.8,2-1c0.5-0.2,1.2-0.3,1.7-0.5c0.2,0,0.2,0,0.3,0c0.7,0.7,1.5,0.8,2.5,0.7
		c0.7,0,1.3-0.3,1.8-0.8h0.2c1,0.2,2.1,0.5,3.1,1c1.2,0.7,1.7,1.7,2,2.8c0.2,1.2,0.2,2.5,0.2,3.6c0,0.2-0.2,0.3-0.2,0.3
		c-0.3,0.5-0.8,0.7-1.3,1c-1,0.5-2.1,0.7-3.1,0.8C13.9,21.7,12.9,21.9,12.1,21.9z"/>
	<path d="M8,6.8C8,5.7,8,5,8.3,4.4C8.6,3,9.5,2.2,10.8,1.9c0.8-0.2,1.7-0.2,2.6,0c1.2,0.3,2,1,2.3,2.1c0.5,1.5,0.5,3.1,0,4.6
		c-0.3,1-1,1.8-2,2.3c-1.5,0.8-3.3,0.5-4.5-1C8.3,9.1,8,7.8,8,6.8z"/>
	<path d="M7.6,2.9c-0.3,0.7-0.5,1.3-0.5,2C7,6.5,7,8.2,7.8,9.8C7.8,10,8,10,8,10.1c0.2,0.2,0,0.2-0.2,0.3c-1.2,0.7-2.6,0.3-3.6-0.8
		c-0.8-1-1-2.1-1-3.3c0-0.5,0-1,0.2-1.3c0.3-1.3,1.2-2,2.5-2.1C6.5,2.7,7.1,2.9,7.6,2.9z"/>
	<path d="M17.1,6.3c0-1.2-0.2-2.1-0.7-3.1c0-0.2,0-0.2,0.2-0.2c0.8-0.2,1.8-0.2,2.6,0.2c0.7,0.2,1.2,0.7,1.3,1.3
		c0.5,1.3,0.5,2.8,0,4.1c-0.5,1-1.2,1.8-2.1,2c-0.7,0.2-1.3,0.2-2-0.3c-0.2,0-0.2-0.2-0.2-0.2C16.9,9,17.2,7.7,17.1,6.3z"/>
	<path d="M17.6,11.8c0.3,0,0.7,0,1-0.2s0.5-0.2,0.8-0.3c0.2-0.2,0.3-0.2,0.5-0.2c0.7,0.2,1.2,0.3,1.8,0.5c1.3,0.5,2,1.3,2.1,2.6
		c0.2,1,0.2,1.8,0.2,2.8c0,0.2-0.2,0.3-0.2,0.3c-0.3,0.3-0.8,0.7-1.2,0.8c-0.5,0.2-1,0.3-1.5,0.5c-0.2,0-0.3,0-0.3-0.2
		c0-0.7,0-1.3-0.2-2c-0.2-1-0.3-2-0.8-2.8c-0.5-0.8-1.2-1.5-2-1.8C17.7,11.8,17.6,11.8,17.6,11.8z"/>
</g>
</svg>
