<svg id="Calque_1" data-name="Calque 1" xmlns="http://www.w3.org/2000/svg" viewBox="0 0 35 27.72"><defs><style>.cls-1{fill:#fdfdfd;}</style></defs><title>picto-votre_situation_electorale</title><path class="cls-1" d="M10,24.23a3.34,3.34,0,0,0-4.92,1.46c-.06.13-.23.32.13.32h6.11A3.28,3.28,0,0,0,10,24.23Z" transform="translate(0 -5.91)"/><path class="cls-1" d="M28.18,19.54A6.83,6.83,0,0,0,31,18.93V12.52h-.26l-2.8,2.8a1.21,1.21,0,0,1-.91.39,1.14,1.14,0,0,1-.85-.34l-1.44-1.43a.56.56,0,0,1,0-.81.55.55,0,0,1,.83,0c.41.41.83.81,1.23,1.24.2.21.33.23.55,0,.62-.64,1.25-1.28,1.89-1.91H21.37v.21A6.83,6.83,0,0,0,28.18,19.54Z" transform="translate(0 -5.91)"/><path class="cls-1" d="M3.93,25.66A4.55,4.55,0,0,1,6.21,23a3.22,3.22,0,0,1-.36-4.72,3.17,3.17,0,0,1,4.45-.15,3.08,3.08,0,0,1,1,2.1A3.18,3.18,0,0,1,10.09,23a4.57,4.57,0,0,1,2.29,2.65A1.52,1.52,0,0,0,13,24.37c0-2.18,0-4.36,0-6.53a1.58,1.58,0,0,0-1.59-1.61q-3.3,0-6.6,0a1.57,1.57,0,0,0-1.57,1.54q0,3.35,0,6.68A1.45,1.45,0,0,0,3.93,25.66Z" transform="translate(0 -5.91)"/><path class="cls-1" d="M22.89,18.57a.68.68,0,0,0-.49-.18H17a.61.61,0,0,1-.67-.38c-.13-.37.16-.71.63-.71h4.73c-.21-.36-.4-.7-.6-1-.07-.12-.2-.06-.3-.06H17a.59.59,0,0,1-.57-.24.5.5,0,0,1,0-.55.6.6,0,0,1,.58-.3c1.08,0,2.17,0,3.26,0,.35,0,.4-.07.31-.41a5.48,5.48,0,0,1-.25-1.82s-1.34,0-1.59,0a2.29,2.29,0,0,1-.37,0H1.9A1.67,1.67,0,0,0,0,14.84V31.76a1.67,1.67,0,0,0,1.85,1.87H28.79a1.66,1.66,0,0,0,1.85-1.87V21.63c0-.25.06-1.42.06-1.42A7.59,7.59,0,0,1,22.89,18.57ZM2.18,21.1c0-1.05,0-2.11,0-3.16A2.73,2.73,0,0,1,5,15.13q3.15,0,6.32,0a2.71,2.71,0,0,1,2.81,2.74c0,2.17,0,4.33,0,6.5a2.73,2.73,0,0,1-2.8,2.72q-3.15,0-6.28,0a2.72,2.72,0,0,1-2.87-2.87Zm0,7.58a.51.51,0,0,1,.49-.49H27.94a.51.51,0,0,1,.52.5.52.52,0,0,1-.45.57,1.82,1.82,0,0,1-.33,0H3a1.33,1.33,0,0,1-.4,0A.5.5,0,0,1,2.18,28.68ZM28,31.43a1.45,1.45,0,0,1-.36,0H3a1.43,1.43,0,0,1-.36,0,.54.54,0,0,1,.07-1.06H28a.5.5,0,0,1,.5.48A.51.51,0,0,1,28,31.43Zm.38-7.29a.52.52,0,0,1-.35.74,1.26,1.26,0,0,1-.39,0H17c-.39,0-.63-.23-.62-.56a.55.55,0,0,1,.62-.52H27.77A.61.61,0,0,1,28.41,24.14Z" transform="translate(0 -5.91)"/><path class="cls-1" d="M10.24,20.51a2.08,2.08,0,1,0-2.08,2.07A2.1,2.1,0,0,0,10.24,20.51Z" transform="translate(0 -5.91)"/><path class="cls-1" d="M35,12.74a6.82,6.82,0,1,1-6.79-6.83A6.83,6.83,0,0,1,35,12.74Zm-8,3a1.21,1.21,0,0,0,.91-.39l3.64-3.64.1-.11a.54.54,0,0,0-.76-.77l-.21.21c-1.13,1.14-2.28,2.27-3.4,3.42-.22.22-.35.2-.55,0-.4-.43-.82-.83-1.23-1.24a.55.55,0,0,0-.83,0,.56.56,0,0,0,0,.81l1.44,1.43A1.14,1.14,0,0,0,27,15.71Z" transform="translate(0 -5.91)"/></svg>