<?xml version="1.0" encoding="utf-8"?>
<!-- Generator: Adobe Illustrator 23.1.0, SVG Export Plug-In . SVG Version: 6.00 Build 0)  -->
<svg version="1.1" id="Calque_1" xmlns="http://www.w3.org/2000/svg" xmlns:xlink="http://www.w3.org/1999/xlink" x="0px" y="0px"
	 viewBox="0 0 35 36" style="enable-background:new 0 0 35 36;" xml:space="preserve">
<style type="text/css">
	.st0{fill:#FFFFFF;}
</style>
<path class="st0" d="M26.4,26.2l-8.9,0c0,0,0,0-0.1,0c-4.9,0-9-4-9-8.9c0-4.9,4-9,8.9-9c4.9,0,9,4,9,8.9L26.4,26.2z M17.4,0
	C7.9,0,0.2,7.8,0.2,17.3S8,34.5,17.5,34.5c0.1,0,0.1,0,0.2,0l17,0l0-17.2C34.7,7.7,26.9,0,17.4,0"/>
</svg>
